STARTFONT  
FONTBOUNDINGBOX 24 24 0 0
STARTPROPERTIES 2
FONT_ASCENT 20
FONT_DESCENT 4
ENDPROPERTIES
CHARS 3631
STARTCHAR 0
ENCODING 0
SWIDTH 1000 1000
DWIDTH 24 0
BBX 24 24 0 0
BITMAP
0000
0000
0000
0000
0000
0000
0000
0000
0000
0000
0000
0000
0000
0000
0000
0000
0000
0000
0000
0000
0000
0000
0000
0000
ENDCHAR
STARTCHAR 164
ENCODING 164
SWIDTH 1000 1000
DWIDTH 24 0
BBX 24 24 0 0
BITMAP
0000
200004
107E08
98190
60060
80010
80010
100008
100008
200004
200004
200004
200004
200004
200004
100008
100008
80010
80010
60060
98190
107E08
200004
0000
ENDCHAR
STARTCHAR 167
ENCODING 167
SWIDTH 1000 1000
DWIDTH 24 0
BBX 24 24 0 0
BITMAP
0000
3C00
4200
8300
8300
4000
4000
3000
7800
8C00
8600
8300
C100
6100
3100
1E00
0600
0200
C100
C100
8200
4200
3C00
0000
ENDCHAR
STARTCHAR 168
ENCODING 168
SWIDTH 1000 1000
DWIDTH 24 0
BBX 24 24 0 0
BITMAP
0000
0000
0000
0000
300C0
781E0
781E0
300C0
0000
0000
0000
0000
0000
0000
0000
0000
0000
0000
0000
0000
0000
0000
0000
0000
ENDCHAR
STARTCHAR 176
ENCODING 176
SWIDTH 1000 1000
DWIDTH 24 0
BBX 24 24 0 0
BITMAP
0000
0000
70000
88000
104000
104000
104000
88000
70000
0000
0000
0000
0000
0000
0000
0000
0000
0000
0000
0000
0000
0000
0000
0000
ENDCHAR
STARTCHAR 177
ENCODING 177
SWIDTH 1000 1000
DWIDTH 24 0
BBX 24 24 0 0
BITMAP
0000
0000
0000
1000
1000
1000
1000
1000
1000
1000
FFFF0
1000
1000
1000
1000
1000
1000
0000
0000
FFFF0
0000
0000
0000
0000
ENDCHAR
STARTCHAR 215
ENCODING 215
SWIDTH 1000 1000
DWIDTH 24 0
BBX 24 24 0 0
BITMAP
0000
0000
0000
0000
80010
40020
20040
10080
8100
4200
2400
1800
1800
2400
4200
8100
10080
20040
40020
80010
0000
0000
0000
0000
ENDCHAR
STARTCHAR 224
ENCODING 224
SWIDTH 1000 1000
DWIDTH 24 0
BBX 24 24 0 0
BITMAP
0000
0000
0000
0000
2000
1000
0800
0000
7D00
8300
10100
10100
10100
10100
10100
10100
10100
8300
7D00
0000
0000
0000
0000
0000
ENDCHAR
STARTCHAR 225
ENCODING 225
SWIDTH 1000 1000
DWIDTH 24 0
BBX 24 24 0 0
BITMAP
0000
0000
0000
0000
0800
1000
2000
0000
7D00
8300
10100
10100
10100
10100
10100
10100
10100
8300
7D00
0000
0000
0000
0000
0000
ENDCHAR
STARTCHAR 232
ENCODING 232
SWIDTH 1000 1000
DWIDTH 24 0
BBX 24 24 0 0
BITMAP
0000
0000
0000
0000
2000
1000
0800
0000
3E00
4100
8080
8080
FF80
8000
8000
8080
8080
4100
3E00
0000
0000
0000
0000
0000
ENDCHAR
STARTCHAR 233
ENCODING 233
SWIDTH 1000 1000
DWIDTH 24 0
BBX 24 24 0 0
BITMAP
0000
0000
0000
0000
0400
0800
1000
0000
3E00
4100
8080
8080
FF80
8000
8000
8080
8080
4100
3E00
0000
0000
0000
0000
0000
ENDCHAR
STARTCHAR 234
ENCODING 234
SWIDTH 1000 1000
DWIDTH 24 0
BBX 24 24 0 0
BITMAP
0000
0000
0000
0000
0800
1400
2200
0000
3E00
4100
8080
8080
FF80
8000
8000
8080
8080
4100
3E00
0000
0000
0000
0000
0000
ENDCHAR
STARTCHAR 236
ENCODING 236
SWIDTH 1000 1000
DWIDTH 24 0
BBX 24 24 0 0
BITMAP
0000
0000
0000
0000
6000
3000
1800
0000
1000
1000
1000
1000
1000
1000
1000
1000
1000
1000
1000
0000
0000
0000
0000
0000
ENDCHAR
STARTCHAR 237
ENCODING 237
SWIDTH 1000 1000
DWIDTH 24 0
BBX 24 24 0 0
BITMAP
0000
0000
0000
0000
0C00
1800
3000
0000
1000
1000
1000
1000
1000
1000
1000
1000
1000
1000
1000
0000
0000
0000
0000
0000
ENDCHAR
STARTCHAR 242
ENCODING 242
SWIDTH 1000 1000
DWIDTH 24 0
BBX 24 24 0 0
BITMAP
0000
0000
0000
0000
2000
1000
0800
0000
7C00
8200
10100
10100
10100
10100
10100
10100
10100
8200
7C00
0000
0000
0000
0000
0000
ENDCHAR
STARTCHAR 243
ENCODING 243
SWIDTH 1000 1000
DWIDTH 24 0
BBX 24 24 0 0
BITMAP
0000
0000
0000
0000
0400
0800
1000
0000
7C00
8200
10100
10100
10100
10100
10100
10100
10100
8200
7C00
0000
0000
0000
0000
0000
ENDCHAR
STARTCHAR 247
ENCODING 247
SWIDTH 1000 1000
DWIDTH 24 0
BBX 24 24 0 0
BITMAP
0000
0000
0000
0000
0000
1000
3800
1000
0000
0000
0000
FFFF0
0000
0000
0000
1000
3800
1000
0000
0000
0000
0000
0000
0000
ENDCHAR
STARTCHAR 249
ENCODING 249
SWIDTH 1000 1000
DWIDTH 24 0
BBX 24 24 0 0
BITMAP
0000
0000
0000
0000
2000
1000
0800
0000
8100
8100
8100
8100
8100
8100
8100
8100
8300
8D00
7100
0000
0000
0000
0000
0000
ENDCHAR
STARTCHAR 250
ENCODING 250
SWIDTH 1000 1000
DWIDTH 24 0
BBX 24 24 0 0
BITMAP
0000
0000
0000
0000
0400
0800
1000
0000
8100
8100
8100
8100
8100
8100
8100
8100
8300
8D00
7100
0000
0000
0000
0000
0000
ENDCHAR
STARTCHAR 252
ENCODING 252
SWIDTH 1000 1000
DWIDTH 24 0
BBX 24 24 0 0
BITMAP
0000
0000
0000
0000
0000
0000
6600
6600
0000
8100
8100
8100
8100
8100
8100
8100
8300
8D00
7100
0000
0000
0000
0000
0000
ENDCHAR
STARTCHAR 257
ENCODING 257
SWIDTH 1000 1000
DWIDTH 24 0
BBX 24 24 0 0
BITMAP
0000
0000
0000
0000
0000
1FF00
0000
0000
7D00
8300
10100
10100
10100
10100
10100
10100
10100
8300
7D00
0000
0000
0000
0000
0000
ENDCHAR
STARTCHAR 275
ENCODING 275
SWIDTH 1000 1000
DWIDTH 24 0
BBX 24 24 0 0
BITMAP
0000
0000
0000
0000
0000
FF00
0000
0000
3E00
4100
8080
8080
FF80
8000
8000
8080
8080
4100
3E00
0000
0000
0000
0000
0000
ENDCHAR
STARTCHAR 283
ENCODING 283
SWIDTH 1000 1000
DWIDTH 24 0
BBX 24 24 0 0
BITMAP
0000
0000
0000
0000
2200
1400
0800
0000
3E00
4100
8080
8080
FF80
8000
8000
8080
8080
4100
3E00
0000
0000
0000
0000
0000
ENDCHAR
STARTCHAR 299
ENCODING 299
SWIDTH 1000 1000
DWIDTH 24 0
BBX 24 24 0 0
BITMAP
0000
0000
0000
0000
0000
3800
0000
0000
1000
1000
1000
1000
1000
1000
1000
1000
1000
1000
1000
0000
0000
0000
0000
0000
ENDCHAR
STARTCHAR 333
ENCODING 333
SWIDTH 1000 1000
DWIDTH 24 0
BBX 24 24 0 0
BITMAP
0000
0000
0000
0000
0000
1FF00
0000
0000
7C00
8200
10100
10100
10100
10100
10100
10100
10100
8200
7C00
0000
0000
0000
0000
0000
ENDCHAR
STARTCHAR 363
ENCODING 363
SWIDTH 1000 1000
DWIDTH 24 0
BBX 24 24 0 0
BITMAP
0000
0000
0000
0000
0000
FF00
0000
0000
8100
8100
8100
8100
8100
8100
8100
8100
8300
8D00
7100
0000
0000
0000
0000
0000
ENDCHAR
STARTCHAR 462
ENCODING 462
SWIDTH 1000 1000
DWIDTH 24 0
BBX 24 24 0 0
BITMAP
0000
0000
0000
0000
4400
2800
1000
0000
7D00
8300
10100
10100
10100
10100
10100
10100
10100
8300
7D00
0000
0000
0000
0000
0000
ENDCHAR
STARTCHAR 464
ENCODING 464
SWIDTH 1000 1000
DWIDTH 24 0
BBX 24 24 0 0
BITMAP
0000
0000
0000
0000
4400
2800
1000
0000
1000
1000
1000
1000
1000
1000
1000
1000
1000
1000
1000
0000
0000
0000
0000
0000
ENDCHAR
STARTCHAR 466
ENCODING 466
SWIDTH 1000 1000
DWIDTH 24 0
BBX 24 24 0 0
BITMAP
0000
0000
0000
0000
4400
2800
1000
0000
7C00
8200
10100
10100
10100
10100
10100
10100
10100
8200
7C00
0000
0000
0000
0000
0000
ENDCHAR
STARTCHAR 468
ENCODING 468
SWIDTH 1000 1000
DWIDTH 24 0
BBX 24 24 0 0
BITMAP
0000
0000
0000
0000
4200
2400
1800
0000
8100
8100
8100
8100
8100
8100
8100
8100
8300
8D00
7100
0000
0000
0000
0000
0000
ENDCHAR
STARTCHAR 470
ENCODING 470
SWIDTH 1000 1000
DWIDTH 24 0
BBX 24 24 0 0
BITMAP
0000
0000
0000
0000
FF00
0000
6600
6600
0000
8100
8100
8100
8100
8100
8100
8100
8300
8D00
7100
0000
0000
0000
0000
0000
ENDCHAR
STARTCHAR 472
ENCODING 472
SWIDTH 1000 1000
DWIDTH 24 0
BBX 24 24 0 0
BITMAP
0000
0000
0400
0800
1000
0000
6600
6600
0000
8100
8100
8100
8100
8100
8100
8100
8300
8D00
7100
0000
0000
0000
0000
0000
ENDCHAR
STARTCHAR 474
ENCODING 474
SWIDTH 1000 1000
DWIDTH 24 0
BBX 24 24 0 0
BITMAP
0000
0000
4200
2400
1800
0000
6600
6600
0000
8100
8100
8100
8100
8100
8100
8100
8300
8D00
7100
0000
0000
0000
0000
0000
ENDCHAR
STARTCHAR 476
ENCODING 476
SWIDTH 1000 1000
DWIDTH 24 0
BBX 24 24 0 0
BITMAP
0000
0000
2000
1000
0800
0000
6600
6600
0000
8100
8100
8100
8100
8100
8100
8100
8300
8D00
7100
0000
0000
0000
0000
0000
ENDCHAR
STARTCHAR 711
ENCODING 711
SWIDTH 1000 1000
DWIDTH 24 0
BBX 24 24 0 0
BITMAP
0000
20080
20080
10100
10100
8200
8200
4400
4400
2800
2800
1000
0000
0000
0000
0000
0000
0000
0000
0000
0000
0000
0000
0000
ENDCHAR
STARTCHAR 713
ENCODING 713
SWIDTH 1000 1000
DWIDTH 24 0
BBX 24 24 0 0
BITMAP
0000
0000
0000
0000
0000
0000
FF00
0000
0000
0000
0000
0000
0000
0000
0000
0000
0000
0000
0000
0000
0000
0000
0000
0000
ENDCHAR
STARTCHAR 913
ENCODING 913
SWIDTH 1000 1000
DWIDTH 24 0
BBX 24 24 0 0
BITMAP
0000
1000
3000
3800
5800
4C00
4C00
8600
8600
8600
10300
1FF00
10300
20180
20180
20180
400C0
400C0
1F03F0
0000
0000
0000
0000
0000
ENDCHAR
STARTCHAR 914
ENCODING 914
SWIDTH 1000 1000
DWIDTH 24 0
BBX 24 24 0 0
BITMAP
0000
7FE00
18300
18180
18180
18180
18180
18180
18300
1FE00
18300
18180
181C0
180C0
180C0
180C0
181C0
18380
7FF00
0000
0000
0000
0000
0000
ENDCHAR
STARTCHAR 915
ENCODING 915
SWIDTH 1000 1000
DWIDTH 24 0
BBX 24 24 0 0
BITMAP
0000
7FFE0
18060
18020
18020
18000
18000
18000
18000
18000
18000
18000
18000
18000
18000
18000
18000
18000
7E000
0000
0000
0000
0000
0000
ENDCHAR
STARTCHAR 916
ENCODING 916
SWIDTH 1000 1000
DWIDTH 24 0
BBX 24 24 0 0
BITMAP
0000
1800
2C00
2C00
4600
4600
4600
8300
8300
10180
10180
10180
200C0
200C0
40060
40060
40060
80030
FFFF0
0000
0000
0000
0000
0000
ENDCHAR
STARTCHAR 917
ENCODING 917
SWIDTH 1000 1000
DWIDTH 24 0
BBX 24 24 0 0
BITMAP
0000
7FFE0
18060
18020
18020
18000
18100
18100
18300
1FF00
18300
18100
18100
18000
18000
18020
18020
18060
7FFE0
0000
0000
0000
0000
0000
ENDCHAR
STARTCHAR 918
ENCODING 918
SWIDTH 1000 1000
DWIDTH 24 0
BBX 24 24 0 0
BITMAP
0000
3FFC0
300C0
20180
20300
0600
0600
0C00
1800
1800
3000
6000
6000
C000
18000
18020
30020
60060
7FFE0
0000
0000
0000
0000
0000
ENDCHAR
STARTCHAR 919
ENCODING 919
SWIDTH 1000 1000
DWIDTH 24 0
BBX 24 24 0 0
BITMAP
0000
FC3F0
300C0
300C0
300C0
300C0
300C0
300C0
300C0
3FFC0
300C0
300C0
300C0
300C0
300C0
300C0
300C0
300C0
FC3F0
0000
0000
0000
0000
0000
ENDCHAR
STARTCHAR 920
ENCODING 920
SWIDTH 1000 1000
DWIDTH 24 0
BBX 24 24 0 0
BITMAP
0000
3C00
C300
300C0
60060
60060
C0030
C8130
C8130
CFF30
CFF30
C8130
C8130
C0030
60060
60060
300C0
C300
3C00
0000
0000
0000
0000
0000
ENDCHAR
STARTCHAR 921
ENCODING 921
SWIDTH 1000 1000
DWIDTH 24 0
BBX 24 24 0 0
BITMAP
0000
7E00
1800
1800
1800
1800
1800
1800
1800
1800
1800
1800
1800
1800
1800
1800
1800
1800
7E00
0000
0000
0000
0000
0000
ENDCHAR
STARTCHAR 922
ENCODING 922
SWIDTH 1000 1000
DWIDTH 24 0
BBX 24 24 0 0
BITMAP
0000
FC3F0
30080
30100
30200
30400
30800
31000
33800
34C00
38C00
30600
30300
30300
30180
300C0
300C0
30060
FC1F8
0000
0000
0000
0000
0000
ENDCHAR
STARTCHAR 923
ENCODING 923
SWIDTH 1000 1000
DWIDTH 24 0
BBX 24 24 0 0
BITMAP
0000
3000
3000
3800
5800
4C00
4C00
8600
8600
8600
10300
10300
10300
20180
20180
20180
400C0
400C0
1F03F0
0000
0000
0000
0000
0000
ENDCHAR
STARTCHAR 924
ENCODING 924
SWIDTH 1000 1000
DWIDTH 24 0
BBX 24 24 0 0
BITMAP
0000
3E007C
E00E0
B00E0
B00E0
B0160
98160
98160
98260
8C260
8C260
8C460
86460
86460
82860
83860
83060
81060
3E01F8
0000
0000
0000
0000
0000
ENDCHAR
STARTCHAR 925
ENCODING 925
SWIDTH 1000 1000
DWIDTH 24 0
BBX 24 24 0 0
BITMAP
0000
F01F0
38040
38040
2C040
26040
26040
23040
21840
20C40
20C40
20640
20640
20340
201C0
201C0
200C0
200C0
F8040
0000
0000
0000
0000
0000
ENDCHAR
STARTCHAR 926
ENCODING 926
SWIDTH 1000 1000
DWIDTH 24 0
BBX 24 24 0 0
BITMAP
0000
FFFF0
FFFF0
80010
80010
0000
0000
0000
10080
1FF80
1FF80
10080
0000
0000
0000
80010
80010
FFFF0
FFFF0
0000
0000
0000
0000
0000
ENDCHAR
STARTCHAR 927
ENCODING 927
SWIDTH 1000 1000
DWIDTH 24 0
BBX 24 24 0 0
BITMAP
0000
3C00
C300
300C0
60060
60060
C0030
C0030
C0030
C0030
C0030
C0030
C0030
C0030
60060
60060
300C0
C300
3C00
0000
0000
0000
0000
0000
ENDCHAR
STARTCHAR 928
ENCODING 928
SWIDTH 1000 1000
DWIDTH 24 0
BBX 24 24 0 0
BITMAP
0000
FFFF0
300C0
300C0
300C0
300C0
300C0
300C0
300C0
300C0
300C0
300C0
300C0
300C0
300C0
300C0
300C0
300C0
FC3F0
0000
0000
0000
0000
0000
ENDCHAR
STARTCHAR 929
ENCODING 929
SWIDTH 1000 1000
DWIDTH 24 0
BBX 24 24 0 0
BITMAP
0000
7FF00
18180
180C0
180C0
180C0
180C0
180C0
18180
1FF00
18000
18000
18000
18000
18000
18000
18000
18000
7E000
0000
0000
0000
0000
0000
ENDCHAR
STARTCHAR 931
ENCODING 931
SWIDTH 1000 1000
DWIDTH 24 0
BBX 24 24 0 0
BITMAP
0000
FFFE0
E0060
70020
38020
1C000
E000
7000
3800
1C00
1800
3000
6000
C000
18000
30020
60020
FFFE0
FFFE0
0000
0000
0000
0000
0000
ENDCHAR
STARTCHAR 932
ENCODING 932
SWIDTH 1000 1000
DWIDTH 24 0
BBX 24 24 0 0
BITMAP
0000
FFFF0
C1830
81810
81810
81810
1800
1800
1800
1800
1800
1800
1800
1800
1800
1800
1800
1800
7E00
0000
0000
0000
0000
0000
ENDCHAR
STARTCHAR 933
ENCODING 933
SWIDTH 1000 1000
DWIDTH 24 0
BBX 24 24 0 0
BITMAP
0000
0700
E980
19980
19800
1800
1800
1800
1800
1800
1800
1800
1800
1800
1800
1800
1800
1800
7E00
0000
0000
0000
0000
0000
ENDCHAR
STARTCHAR 934
ENCODING 934
SWIDTH 1000 1000
DWIDTH 24 0
BBX 24 24 0 0
BITMAP
0000
7E00
1800
1800
FF00
318C0
61860
C1830
C1830
C1830
C1830
C1830
C1830
61860
318C0
FF00
1800
1800
7E00
0000
0000
0000
0000
0000
ENDCHAR
STARTCHAR 935
ENCODING 935
SWIDTH 1000 1000
DWIDTH 24 0
BBX 24 24 0 0
BITMAP
0000
FC3F0
30080
18100
C200
6200
6400
3400
1800
1800
2C00
2600
4600
4300
8180
8180
100C0
20060
1F81F8
0000
0000
0000
0000
0000
ENDCHAR
STARTCHAR 936
ENCODING 936
SWIDTH 1000 1000
DWIDTH 24 0
BBX 24 24 0 0
BITMAP
0000
7E00
181818
C1830
C1830
61860
61860
61860
61860
61860
318C0
19980
FF00
1800
1800
1800
1800
1800
7E00
0000
0000
0000
0000
0000
ENDCHAR
STARTCHAR 937
ENCODING 937
SWIDTH 1000 1000
DWIDTH 24 0
BBX 24 24 0 0
BITMAP
0000
7E00
18180
60060
60060
C0030
C0030
C0030
C0030
C0030
C0030
60060
60060
18180
E700
2400
42420
7E7E0
7E7E0
0000
0000
0000
0000
0000
ENDCHAR
STARTCHAR 945
ENCODING 945
SWIDTH 1000 1000
DWIDTH 24 0
BBX 24 24 0 0
BITMAP
0000
0000
0000
0000
0000
0000
0000
3980
6580
C380
18300
18300
18300
18300
18300
18300
18500
C940
7180
0000
0000
0000
0000
0000
ENDCHAR
STARTCHAR 946
ENCODING 946
SWIDTH 1000 1000
DWIDTH 24 0
BBX 24 24 0 0
BITMAP
0000
0000
0000
3800
4600
C300
18300
18300
18300
18600
1BC00
18600
18300
18180
18180
18180
18180
1C300
1BC00
18000
18000
18000
18000
18000
ENDCHAR
STARTCHAR 947
ENCODING 947
SWIDTH 1000 1000
DWIDTH 24 0
BBX 24 24 0 0
BITMAP
0000
0000
0000
0000
0000
0000
30180
78180
48300
4300
4200
2600
2C00
1800
1000
1000
1800
1800
1800
0000
0000
0000
0000
0000
ENDCHAR
STARTCHAR 948
ENCODING 948
SWIDTH 1000 1000
DWIDTH 24 0
BBX 24 24 0 0
BITMAP
0000
0000
7C00
C600
C300
6000
3000
3800
CE00
18300
30180
30180
30180
30180
30180
30180
18300
C600
3800
0000
0000
0000
0000
0000
ENDCHAR
STARTCHAR 949
ENCODING 949
SWIDTH 1000 1000
DWIDTH 24 0
BBX 24 24 0 0
BITMAP
0000
0000
0000
0000
0000
0000
0000
3E00
C180
18180
18000
C000
7C00
C000
18000
18000
18040
C180
3E00
0000
0000
0000
0000
0000
ENDCHAR
STARTCHAR 950
ENCODING 950
SWIDTH 1000 1000
DWIDTH 24 0
BBX 24 24 0 0
BITMAP
0000
4000
8000
18000
18300
18700
CC00
7800
6000
C000
18000
18000
30000
30000
30000
30000
30000
18000
FF00
7F80
0180
0180
C300
FE00
ENDCHAR
STARTCHAR 951
ENCODING 951
SWIDTH 1000 1000
DWIDTH 24 0
BBX 24 24 0 0
BITMAP
0000
0000
0000
0000
0000
0000
0000
CE00
1D300
E300
C300
C300
C300
C300
C300
C300
C300
C300
C300
0300
0300
0300
0300
0300
ENDCHAR
STARTCHAR 952
ENCODING 952
SWIDTH 1000 1000
DWIDTH 24 0
BBX 24 24 0 0
BITMAP
0000
0000
3C00
6600
C300
18180
18180
18180
18180
18180
1FF80
18180
18180
18180
18180
18180
C300
6600
3C00
0000
0000
0000
0000
0000
ENDCHAR
STARTCHAR 953
ENCODING 953
SWIDTH 1000 1000
DWIDTH 24 0
BBX 24 24 0 0
BITMAP
0000
0000
0000
0000
0000
0000
0800
7800
1800
1800
1800
1800
1800
1800
1800
1800
1800
1900
0E00
0000
0000
0000
0000
0000
ENDCHAR
STARTCHAR 954
ENCODING 954
SWIDTH 1000 1000
DWIDTH 24 0
BBX 24 24 0 0
BITMAP
0000
0000
0000
0000
0000
0000
2070
1E0B0
6100
6200
6400
7800
7800
6C00
6600
6300
6180
60C0
61F0
0000
0000
0000
0000
0000
ENDCHAR
STARTCHAR 955
ENCODING 955
SWIDTH 1000 1000
DWIDTH 24 0
BBX 24 24 0 0
BITMAP
0000
C000
12000
11000
1000
1000
1800
0800
3800
2C00
6400
6400
C600
C200
18200
18300
30100
30120
600C0
0000
0000
0000
0000
0000
ENDCHAR
STARTCHAR 956
ENCODING 956
SWIDTH 1000 1000
DWIDTH 24 0
BBX 24 24 0 0
BITMAP
0000
0000
0000
0000
0000
0000
0000
18180
18180
18180
18180
18180
18180
18180
18180
18180
1C380
1FD90
139A0
101C0
10000
18000
1C000
8000
ENDCHAR
STARTCHAR 957
ENCODING 957
SWIDTH 1000 1000
DWIDTH 24 0
BBX 24 24 0 0
BITMAP
0000
0000
0000
0000
0000
0000
0000
70180
30180
30080
18100
18100
C200
C200
6400
6400
3800
3800
1000
0000
0000
0000
0000
0000
ENDCHAR
STARTCHAR 958
ENCODING 958
SWIDTH 1000 1000
DWIDTH 24 0
BBX 24 24 0 0
BITMAP
1000
6000
C000
C000
6600
3E00
6000
C000
C000
7E00
8E00
18000
30000
30000
30000
30000
30000
18000
FF00
7F80
0180
0180
C300
FE00
ENDCHAR
STARTCHAR 959
ENCODING 959
SWIDTH 1000 1000
DWIDTH 24 0
BBX 24 24 0 0
BITMAP
0000
0000
0000
0000
0000
0000
0000
3800
C600
18300
30180
30180
30180
30180
30180
30180
18300
C600
3800
0000
0000
0000
0000
0000
ENDCHAR
STARTCHAR 960
ENCODING 960
SWIDTH 1000 1000
DWIDTH 24 0
BBX 24 24 0 0
BITMAP
0000
0000
0000
0000
0000
0000
0000
1FF80
3FF80
24200
44200
4200
4200
4200
4200
4200
14240
3C3C0
18180
0000
0000
0000
0000
0000
ENDCHAR
STARTCHAR 961
ENCODING 961
SWIDTH 1000 1000
DWIDTH 24 0
BBX 24 24 0 0
BITMAP
0000
0000
0000
0000
0000
0000
0000
1C00
2300
6180
4180
C180
C180
C180
C180
C180
C100
E300
DC00
C000
C000
C000
C000
C000
ENDCHAR
STARTCHAR 963
ENCODING 963
SWIDTH 1000 1000
DWIDTH 24 0
BBX 24 24 0 0
BITMAP
0000
0000
0000
0000
0000
0000
0000
3FE0
C7E0
18300
30180
30180
30180
30180
30180
30180
18300
C600
3800
0000
0000
0000
0000
0000
ENDCHAR
STARTCHAR 964
ENCODING 964
SWIDTH 1000 1000
DWIDTH 24 0
BBX 24 24 0 0
BITMAP
0000
0000
0000
0000
0000
0000
0000
FF80
1FF80
21800
1800
1800
1800
1800
1800
1800
1800
1900
0E00
0000
0000
0000
0000
0000
ENDCHAR
STARTCHAR 965
ENCODING 965
SWIDTH 1000 1000
DWIDTH 24 0
BBX 24 24 0 0
BITMAP
0000
0000
0000
0000
0000
0000
0000
30300
48380
18180
18180
18180
18180
18180
18180
18180
18180
C300
3C00
0000
0000
0000
0000
0000
ENDCHAR
STARTCHAR 966
ENCODING 966
SWIDTH 1000 1000
DWIDTH 24 0
BBX 24 24 0 0
BITMAP
0000
0000
1000
1000
1000
1000
1000
7C00
19300
31180
610C0
610C0
610C0
610C0
610C0
610C0
31180
19300
7C00
1000
1000
1000
1000
1000
ENDCHAR
STARTCHAR 967
ENCODING 967
SWIDTH 1000 1000
DWIDTH 24 0
BBX 24 24 0 0
BITMAP
0000
0000
0000
0000
0000
0000
0000
180C0
24180
4300
2300
2600
1600
1C00
1800
1800
3800
6400
6400
C200
C200
18100
30120
600C0
ENDCHAR
STARTCHAR 968
ENCODING 968
SWIDTH 1000 1000
DWIDTH 24 0
BBX 24 24 0 0
BITMAP
0000
0000
0000
0800
0800
0800
0800
30980
589C0
188C0
188C0
188C0
188C0
188C0
188C0
188C0
188C0
C980
3E00
0800
0800
0800
0800
0800
ENDCHAR
STARTCHAR 969
ENCODING 969
SWIDTH 1000 1000
DWIDTH 24 0
BBX 24 24 0 0
BITMAP
0000
0000
0000
0000
0000
0000
0000
1C380
300C0
300C0
60060
60060
61860
61860
61860
61860
61860
324C0
1C380
0000
0000
0000
0000
0000
ENDCHAR
STARTCHAR 1025
ENCODING 1025
SWIDTH 1000 1000
DWIDTH 24 0
BBX 24 24 0 0
BITMAP
8100
1C380
8100
0000
7FFE0
18060
18020
18020
18000
18100
18100
18300
1FF00
18300
18100
18100
18000
18020
18020
18060
7FFE0
0000
0000
0000
ENDCHAR
STARTCHAR 1040
ENCODING 1040
SWIDTH 1000 1000
DWIDTH 24 0
BBX 24 24 0 0
BITMAP
0000
0000
0000
1000
3000
3800
5800
4C00
4C00
8600
8600
8600
10300
1FF00
10300
20180
20180
20180
400C0
400C0
1F03F0
0000
0000
0000
ENDCHAR
STARTCHAR 1041
ENCODING 1041
SWIDTH 1000 1000
DWIDTH 24 0
BBX 24 24 0 0
BITMAP
0000
0000
0000
0000
7FFC0
180C0
18040
18040
18000
18000
18000
18000
1FF00
18180
180C0
180C0
180C0
180C0
180C0
18180
7FF00
0000
0000
0000
ENDCHAR
STARTCHAR 1042
ENCODING 1042
SWIDTH 1000 1000
DWIDTH 24 0
BBX 24 24 0 0
BITMAP
0000
0000
0000
0000
7FE00
18300
18180
18180
18180
18180
18180
18300
1FE00
18380
181C0
180C0
180C0
180C0
181C0
18380
7FE00
0000
0000
0000
ENDCHAR
STARTCHAR 1043
ENCODING 1043
SWIDTH 1000 1000
DWIDTH 24 0
BBX 24 24 0 0
BITMAP
0000
0000
0000
0000
7FFF0
18030
18010
18010
18000
18000
18000
18000
18000
18000
18000
18000
18000
18000
18000
18000
7E000
0000
0000
0000
ENDCHAR
STARTCHAR 1044
ENCODING 1044
SWIDTH 1000 1000
DWIDTH 24 0
BBX 24 24 0 0
BITMAP
0000
0000
0000
0000
3FFE0
8180
8180
8180
8180
10180
10180
10180
10180
10180
20180
20180
20180
20180
40180
80180
1FFFF0
300030
200010
0010
ENDCHAR
STARTCHAR 1045
ENCODING 1045
SWIDTH 1000 1000
DWIDTH 24 0
BBX 24 24 0 0
BITMAP
0000
0000
0000
0000
7FFE0
18060
18020
18020
18000
18100
18100
18300
1FF00
18300
18100
18100
18000
18020
18020
18060
7FFE0
0000
0000
0000
ENDCHAR
STARTCHAR 1046
ENCODING 1046
SWIDTH 1000 1000
DWIDTH 24 0
BBX 24 24 0 0
BITMAP
0000
0000
0000
0000
1C7E38
1A1858
21840
11880
11880
9900
9900
5A00
7E00
DB00
19980
19980
318C0
61860
61860
C1830
3C7E3C
0000
0000
0000
ENDCHAR
STARTCHAR 1047
ENCODING 1047
SWIDTH 1000 1000
DWIDTH 24 0
BBX 24 24 0 0
BITMAP
0000
0000
0000
0000
4F800
70C00
60600
40600
40600
0600
0C00
1800
F000
1800
0C00
0600
80600
80600
C0600
60C00
3F000
0000
0000
0000
ENDCHAR
STARTCHAR 1048
ENCODING 1048
SWIDTH 1000 1000
DWIDTH 24 0
BBX 24 24 0 0
BITMAP
0000
0000
0000
0000
FC3F0
300C0
300C0
301C0
302C0
302C0
304C0
308C0
308C0
310C0
320C0
340C0
340C0
380C0
300C0
300C0
FC3F0
0000
0000
0000
ENDCHAR
STARTCHAR 1049
ENCODING 1049
SWIDTH 1000 1000
DWIDTH 24 0
BBX 24 24 0 0
BITMAP
C300
C300
4200
3C00
F81F0
300C0
300C0
301C0
302C0
302C0
304C0
308C0
308C0
310C0
320C0
340C0
340C0
380C0
300C0
300C0
FC3F0
0000
0000
0000
ENDCHAR
STARTCHAR 1050
ENCODING 1050
SWIDTH 1000 1000
DWIDTH 24 0
BBX 24 24 0 0
BITMAP
0000
0000
0000
0000
FC0E0
30160
30200
30400
30800
31000
32000
36000
3E000
33000
31800
30C00
30600
30300
30180
300C0
FC0F0
0000
0000
0000
ENDCHAR
STARTCHAR 1051
ENCODING 1051
SWIDTH 1000 1000
DWIDTH 24 0
BBX 24 24 0 0
BITMAP
0000
0000
0000
0000
7FFE0
10180
10180
10180
10180
10180
10180
10180
10180
10180
10180
10180
10180
10180
190180
1A0180
C07E0
0000
0000
0000
ENDCHAR
STARTCHAR 1052
ENCODING 1052
SWIDTH 1000 1000
DWIDTH 24 0
BBX 24 24 0 0
BITMAP
0000
0000
0000
0000
3E007C
B00E0
B00E0
B0160
98160
98160
98260
8C260
8C260
8C460
86460
86460
82860
83860
83060
81060
3E01F8
0000
0000
0000
ENDCHAR
STARTCHAR 1053
ENCODING 1053
SWIDTH 1000 1000
DWIDTH 24 0
BBX 24 24 0 0
BITMAP
0000
0000
0000
0000
FC3F0
300C0
300C0
300C0
300C0
300C0
300C0
300C0
3FFC0
300C0
300C0
300C0
300C0
300C0
300C0
300C0
FC3F0
0000
0000
0000
ENDCHAR
STARTCHAR 1054
ENCODING 1054
SWIDTH 1000 1000
DWIDTH 24 0
BBX 24 24 0 0
BITMAP
0000
0000
0000
0000
3800
C600
30180
600C0
40060
C0060
C0060
C0060
C0060
C0060
C0060
C0060
40040
600C0
30180
C600
3800
0000
0000
0000
ENDCHAR
STARTCHAR 1055
ENCODING 1055
SWIDTH 1000 1000
DWIDTH 24 0
BBX 24 24 0 0
BITMAP
0000
0000
0000
0000
FFFF0
300C0
300C0
300C0
300C0
300C0
300C0
300C0
300C0
300C0
300C0
300C0
300C0
300C0
300C0
300C0
FC3F0
0000
0000
0000
ENDCHAR
STARTCHAR 1056
ENCODING 1056
SWIDTH 1000 1000
DWIDTH 24 0
BBX 24 24 0 0
BITMAP
0000
0000
0000
0000
7FF00
18180
180C0
180C0
180C0
180C0
180C0
18180
1FF00
18000
18000
18000
18000
18000
18000
18000
7E000
0000
0000
0000
ENDCHAR
STARTCHAR 1057
ENCODING 1057
SWIDTH 1000 1000
DWIDTH 24 0
BBX 24 24 0 0
BITMAP
0000
0000
0000
0000
3F20
C0E0
18060
30020
30020
60000
60000
60000
60000
60000
60000
60030
30030
30020
18060
C0C0
3F00
0000
0000
0000
ENDCHAR
STARTCHAR 1058
ENCODING 1058
SWIDTH 1000 1000
DWIDTH 24 0
BBX 24 24 0 0
BITMAP
0000
0000
0000
0000
FFFF0
C1830
81810
81810
1800
1800
1800
1800
1800
1800
1800
1800
1800
1800
1800
1800
7E00
0000
0000
0000
ENDCHAR
STARTCHAR 1059
ENCODING 1059
SWIDTH 1000 1000
DWIDTH 24 0
BBX 24 24 0 0
BITMAP
0000
0000
0000
0000
FC1F0
30040
18080
18080
C100
C100
6200
6200
3400
3400
1800
0800
1000
1000
62000
64000
38000
0000
0000
0000
ENDCHAR
STARTCHAR 1060
ENCODING 1060
SWIDTH 1000 1000
DWIDTH 24 0
BBX 24 24 0 0
BITMAP
0000
0000
0000
0000
0000
F81F0
30040
18080
C100
6200
6400
3800
1800
1C00
2600
4600
8300
10180
200C0
40060
1F01F8
0000
0000
0000
ENDCHAR
STARTCHAR 1061
ENCODING 1061
SWIDTH 1000 1000
DWIDTH 24 0
BBX 24 24 0 0
BITMAP
0000
0000
0000
0000
7E00
1800
1800
FF00
318C0
61860
C1830
C1830
C1830
C1830
C1830
61860
318C0
FF00
1800
1800
7E00
0000
0000
0000
ENDCHAR
STARTCHAR 1062
ENCODING 1062
SWIDTH 1000 1000
DWIDTH 24 0
BBX 24 24 0 0
BITMAP
0000
0000
0000
FC3F0
300C0
300C0
300C0
300C0
300C0
300C0
300C0
300C0
300C0
300C0
300C0
300C0
300C0
300C0
300C0
FFFF8
0018
0008
0008
0000
ENDCHAR
STARTCHAR 1063
ENCODING 1063
SWIDTH 1000 1000
DWIDTH 24 0
BBX 24 24 0 0
BITMAP
0000
0000
0000
0000
7C3E0
18180
18180
18180
18180
18180
18180
18380
8580
7980
0180
0180
0180
0180
0180
0180
07E0
0000
0000
0000
ENDCHAR
STARTCHAR 1064
ENCODING 1064
SWIDTH 1000 1000
DWIDTH 24 0
BBX 24 24 0 0
BITMAP
0000
0000
0000
0000
1F3CF8
61860
61860
61860
61860
61860
61860
61860
61860
61860
61860
61860
61860
61860
61860
61860
1FFFF8
0000
0000
0000
ENDCHAR
STARTCHAR 1065
ENCODING 1065
SWIDTH 1000 1000
DWIDTH 24 0
BBX 24 24 0 0
BITMAP
0000
0000
0000
1F3CF8
61860
61860
61860
61860
61860
61860
61860
61860
61860
61860
61860
61860
61860
61860
61860
1FFFFC
000C
0004
0004
0000
ENDCHAR
STARTCHAR 1066
ENCODING 1066
SWIDTH 1000 1000
DWIDTH 24 0
BBX 24 24 0 0
BITMAP
0000
0000
0000
0000
1FFC00
183000
103000
103000
3000
3000
3000
3000
3FE0
3030
3018
3018
3018
3018
3018
3030
FFE0
0000
0000
0000
ENDCHAR
STARTCHAR 1067
ENCODING 1067
SWIDTH 1000 1000
DWIDTH 24 0
BBX 24 24 0 0
BITMAP
0000
0000
0000
0000
3F00FC
C0030
C0030
C0030
C0030
C0030
C0030
C0030
FF830
C0C30
C0630
C0630
C0630
C0630
C0630
C0C30
3FF8FC
0000
0000
0000
ENDCHAR
STARTCHAR 1068
ENCODING 1068
SWIDTH 1000 1000
DWIDTH 24 0
BBX 24 24 0 0
BITMAP
0000
0000
0000
0000
7F000
18000
18000
18000
18000
18000
18000
18000
1FF00
18180
180C0
180C0
180C0
180C0
180C0
18180
7FF00
0000
0000
0000
ENDCHAR
STARTCHAR 1069
ENCODING 1069
SWIDTH 1000 1000
DWIDTH 24 0
BBX 24 24 0 0
BITMAP
0000
0000
0000
0000
4FC00
70300
60180
400C0
400C0
0060
0060
0060
7FE0
0060
0060
0060
800C0
800C0
C0180
70300
1FC00
0000
0000
0000
ENDCHAR
STARTCHAR 1070
ENCODING 1070
SWIDTH 1000 1000
DWIDTH 24 0
BBX 24 24 0 0
BITMAP
0000
0000
0000
0000
3F0780
C1860
C3030
C3030
C6018
C6018
C6018
C6018
FE018
C6018
C6018
C6018
C6018
C3030
C3030
C1860
3F0780
0000
0000
0000
ENDCHAR
STARTCHAR 1071
ENCODING 1071
SWIDTH 1000 1000
DWIDTH 24 0
BBX 24 24 0 0
BITMAP
0000
0000
0000
0000
FFE0
18180
30180
30180
30180
30180
18180
FF80
1980
3180
3180
6180
C180
C180
18180
30180
FC7E0
0000
0000
0000
ENDCHAR
STARTCHAR 1072
ENCODING 1072
SWIDTH 1000 1000
DWIDTH 24 0
BBX 24 24 0 0
BITMAP
0000
0000
0000
0000
0000
0000
0000
0000
0000
0000
7800
C600
C300
8300
0F00
7300
C300
18300
18700
19B40
E380
0000
0000
0000
ENDCHAR
STARTCHAR 1073
ENCODING 1073
SWIDTH 1000 1000
DWIDTH 24 0
BBX 24 24 0 0
BITMAP
0000
0000
0000
0000
0000
0000
0200
1C00
7000
C000
18000
18000
1B800
1C600
18300
18300
18300
18300
18300
C600
3800
0000
0000
0000
ENDCHAR
STARTCHAR 1074
ENCODING 1074
SWIDTH 1000 1000
DWIDTH 24 0
BBX 24 24 0 0
BITMAP
0000
0000
0000
0000
0000
0000
0000
0000
0000
0000
1FE00
C700
C300
C300
C700
FE00
C300
C180
C180
C380
1FF00
0000
0000
0000
ENDCHAR
STARTCHAR 1075
ENCODING 1075
SWIDTH 1000 1000
DWIDTH 24 0
BBX 24 24 0 0
BITMAP
0000
0000
0000
0000
0000
0000
0000
0000
0000
0000
1FF80
C180
C080
C000
C000
C000
C000
C000
C000
C000
1E000
0000
0000
0000
ENDCHAR
STARTCHAR 1076
ENCODING 1076
SWIDTH 1000 1000
DWIDTH 24 0
BBX 24 24 0 0
BITMAP
0000
0000
0000
0000
0000
0000
0000
0000
0000
0000
FF00
4600
4600
4600
8600
8600
8600
10600
10600
10600
3FFC0
600C0
40040
0000
ENDCHAR
STARTCHAR 1077
ENCODING 1077
SWIDTH 1000 1000
DWIDTH 24 0
BBX 24 24 0 0
BITMAP
0000
0000
0000
0000
0000
0000
0000
0000
0000
0000
3E00
6100
C180
C180
FF80
C000
C000
C080
C080
6100
3E00
0000
0000
0000
ENDCHAR
STARTCHAR 1078
ENCODING 1078
SWIDTH 1000 1000
DWIDTH 24 0
BBX 24 24 0 0
BITMAP
0000
0000
0000
0000
0000
0000
0000
0000
0000
0000
73CE0
69960
9900
5A00
5A00
3C00
DB00
19980
19980
318C0
F3CF0
0000
0000
0000
ENDCHAR
STARTCHAR 1079
ENCODING 1079
SWIDTH 1000 1000
DWIDTH 24 0
BBX 24 24 0 0
BITMAP
0000
0000
0000
0000
0000
0000
0000
0000
0000
0000
17C00
1C600
18300
10300
0600
3C00
0600
18300
18300
C600
7C00
0000
0000
0000
ENDCHAR
STARTCHAR 1080
ENCODING 1080
SWIDTH 1000 1000
DWIDTH 24 0
BBX 24 24 0 0
BITMAP
0000
0000
0000
0000
0000
0000
0000
0000
0000
0000
1E780
C300
C700
CB00
CB00
D300
D300
E300
E300
C300
1E780
0000
0000
0000
ENDCHAR
STARTCHAR 1081
ENCODING 1081
SWIDTH 1000 1000
DWIDTH 24 0
BBX 24 24 0 0
BITMAP
0000
0000
0000
0000
0000
6600
4200
2400
1800
0000
1E780
C300
C700
CB00
CB00
D300
D300
E300
E300
C300
1E780
0000
0000
0000
ENDCHAR
STARTCHAR 1082
ENCODING 1082
SWIDTH 1000 1000
DWIDTH 24 0
BBX 24 24 0 0
BITMAP
0000
0000
0000
0000
0000
0000
0000
0000
0000
0000
1E180
C380
C400
C800
F000
F000
D800
CC00
C600
C340
1E180
0000
0000
0000
ENDCHAR
STARTCHAR 1083
ENCODING 1083
SWIDTH 1000 1000
DWIDTH 24 0
BBX 24 24 0 0
BITMAP
0000
0000
0000
0000
0000
0000
0000
0000
0000
0000
FF80
2300
2300
2300
2300
2300
2300
2300
1A300
1A300
C780
0000
0000
0000
ENDCHAR
STARTCHAR 1084
ENCODING 1084
SWIDTH 1000 1000
DWIDTH 24 0
BBX 24 24 0 0
BITMAP
0000
0000
0000
0000
0000
0000
0000
0000
0000
0000
3C0E0
1C1C0
161C0
162C0
162C0
162C0
134C0
134C0
118C0
118C0
391E0
0000
0000
0000
ENDCHAR
STARTCHAR 1085
ENCODING 1085
SWIDTH 1000 1000
DWIDTH 24 0
BBX 24 24 0 0
BITMAP
0000
0000
0000
0000
0000
0000
0000
0000
0000
0000
1E780
C300
C300
C300
C300
FF00
C300
C300
C300
C300
1E780
0000
0000
0000
ENDCHAR
STARTCHAR 1086
ENCODING 1086
SWIDTH 1000 1000
DWIDTH 24 0
BBX 24 24 0 0
BITMAP
0000
0000
0000
0000
0000
0000
0000
0000
0000
0000
3C00
C300
18180
18180
18180
18180
18180
18180
18180
C300
3C00
0000
0000
0000
ENDCHAR
STARTCHAR 1087
ENCODING 1087
SWIDTH 1000 1000
DWIDTH 24 0
BBX 24 24 0 0
BITMAP
0000
0000
0000
0000
0000
0000
0000
0000
0000
0000
1FF80
C300
C300
C300
C300
C300
C300
C300
C300
C300
1E780
0000
0000
0000
ENDCHAR
STARTCHAR 1088
ENCODING 1088
SWIDTH 1000 1000
DWIDTH 24 0
BBX 24 24 0 0
BITMAP
0000
0000
0000
0000
0000
0000
0000
0000
0000
10000
33800
1C600
18300
18300
18300
18300
18300
18300
18300
1C600
1B800
18000
18000
3C000
ENDCHAR
STARTCHAR 1089
ENCODING 1089
SWIDTH 1000 1000
DWIDTH 24 0
BBX 24 24 0 0
BITMAP
0000
0000
0000
0000
0000
0000
0000
0000
0000
0000
3E00
6300
C300
C000
C000
C000
C000
C000
C100
6200
3C00
0000
0000
0000
ENDCHAR
STARTCHAR 1090
ENCODING 1090
SWIDTH 1000 1000
DWIDTH 24 0
BBX 24 24 0 0
BITMAP
0000
0000
0000
0000
0000
0000
0000
0000
0000
0000
1FF80
19980
11880
1800
1800
1800
1800
1800
1800
1800
3C00
0000
0000
0000
ENDCHAR
STARTCHAR 1091
ENCODING 1091
SWIDTH 1000 1000
DWIDTH 24 0
BBX 24 24 0 0
BITMAP
0000
0000
0000
0000
0000
0000
0000
0000
0000
0000
3C380
18100
C100
C200
6200
6400
3400
3800
1800
1000
1000
32000
32000
1C000
ENDCHAR
STARTCHAR 1092
ENCODING 1092
SWIDTH 1000 1000
DWIDTH 24 0
BBX 24 24 0 0
BITMAP
0000
0000
0000
0800
3800
1800
1800
1800
1800
1800
1DB80
33CC0
318C0
318C0
318C0
318C0
318C0
318C0
318C0
33CC0
1DB80
1800
1800
3C00
ENDCHAR
STARTCHAR 1093
ENCODING 1093
SWIDTH 1000 1000
DWIDTH 24 0
BBX 24 24 0 0
BITMAP
0000
0000
0000
0000
0000
0000
0000
0000
0000
0000
3C780
10300
8600
4C00
3800
1800
3800
6400
C200
18100
7C3C0
0000
0000
0000
ENDCHAR
STARTCHAR 1094
ENCODING 1094
SWIDTH 1000 1000
DWIDTH 24 0
BBX 24 24 0 0
BITMAP
0000
0000
0000
0000
0000
0000
0000
0000
0000
0000
1E780
C300
C300
C300
C300
C300
C300
C300
C300
C300
1FFC0
00C0
0040
0000
ENDCHAR
STARTCHAR 1095
ENCODING 1095
SWIDTH 1000 1000
DWIDTH 24 0
BBX 24 24 0 0
BITMAP
0000
0000
0000
0000
0000
0000
0000
0000
0000
0000
1E780
C300
C300
C300
C300
6700
3B00
0300
0300
0300
0780
0000
0000
0000
ENDCHAR
STARTCHAR 1096
ENCODING 1096
SWIDTH 1000 1000
DWIDTH 24 0
BBX 24 24 0 0
BITMAP
0000
0000
0000
0000
0000
0000
0000
0000
0000
0000
7BDE0
318C0
318C0
318C0
318C0
318C0
318C0
318C0
318C0
318C0
7FFE0
0000
0000
0000
ENDCHAR
STARTCHAR 1097
ENCODING 1097
SWIDTH 1000 1000
DWIDTH 24 0
BBX 24 24 0 0
BITMAP
0000
0000
0000
0000
0000
0000
0000
0000
0000
0000
7BDE0
318C0
318C0
318C0
318C0
318C0
318C0
318C0
318C0
318C0
7FFF0
0030
0010
0000
ENDCHAR
STARTCHAR 1098
ENCODING 1098
SWIDTH 1000 1000
DWIDTH 24 0
BBX 24 24 0 0
BITMAP
0000
0000
0000
0000
0000
0000
0000
0000
0000
0000
3F800
33000
23000
3000
3F00
3180
30C0
30C0
30C0
3180
7F00
0000
0000
0000
ENDCHAR
STARTCHAR 1099
ENCODING 1099
SWIDTH 1000 1000
DWIDTH 24 0
BBX 24 24 0 0
BITMAP
0000
0000
0000
0000
0000
0000
0000
0000
0000
0000
783C0
30180
30180
30180
3F180
31980
30D80
30D80
30D80
31980
7F3C0
0000
0000
0000
ENDCHAR
STARTCHAR 1100
ENCODING 1100
SWIDTH 1000 1000
DWIDTH 24 0
BBX 24 24 0 0
BITMAP
0000
0000
0000
0000
0000
0000
0000
0000
0000
0000
1E000
C000
C000
C000
FC00
C600
C300
C300
C300
C600
1FC00
0000
0000
0000
ENDCHAR
STARTCHAR 1101
ENCODING 1101
SWIDTH 1000 1000
DWIDTH 24 0
BBX 24 24 0 0
BITMAP
0000
0000
0000
0000
0000
0000
0000
0000
0000
0000
7800
8600
8300
0300
0300
3F00
0300
0300
C300
C600
7800
0000
0000
0000
ENDCHAR
STARTCHAR 1102
ENCODING 1102
SWIDTH 1000 1000
DWIDTH 24 0
BBX 24 24 0 0
BITMAP
0000
0000
0000
0000
0000
0000
0000
0000
0000
0000
3C700
18880
198C0
198C0
198C0
1F8C0
198C0
198C0
198C0
18880
3C700
0000
0000
0000
ENDCHAR
STARTCHAR 1103
ENCODING 1103
SWIDTH 1000 1000
DWIDTH 24 0
BBX 24 24 0 0
BITMAP
0000
0000
0000
0000
0000
0000
0000
0000
0000
0000
7F80
C300
C300
C300
C300
7F00
1B00
3300
3300
16300
C780
0000
0000
0000
ENDCHAR
STARTCHAR 1105
ENCODING 1105
SWIDTH 1000 1000
DWIDTH 24 0
BBX 24 24 0 0
BITMAP
0000
0000
0000
0000
0000
0000
2200
7700
2200
0000
3E00
6100
C180
C180
FF80
C000
C000
C080
C080
6100
3E00
0000
0000
0000
ENDCHAR
STARTCHAR 8212
ENCODING 8212
SWIDTH 1000 1000
DWIDTH 24 0
BBX 24 24 0 0
BITMAP
0000
0000
0000
0000
0000
0000
0000
0000
0000
0000
0000
FFFF0
0000
0000
0000
0000
0000
0000
0000
0000
0000
0000
0000
0000
ENDCHAR
STARTCHAR 8213
ENCODING 8213
SWIDTH 1000 1000
DWIDTH 24 0
BBX 24 24 0 0
BITMAP
0000
0000
0000
0000
0000
0000
0000
0000
0000
0000
0000
1FFFF8
0000
0000
0000
0000
0000
0000
0000
0000
0000
0000
0000
0000
ENDCHAR
STARTCHAR 8214
ENCODING 8214
SWIDTH 1000 1000
DWIDTH 24 0
BBX 24 24 0 0
BITMAP
0000
0000
0000
4200
4200
4200
4200
4200
4200
4200
4200
4200
4200
4200
4200
4200
4200
4200
4200
4200
4200
0000
0000
0000
ENDCHAR
STARTCHAR 8216
ENCODING 8216
SWIDTH 1000 1000
DWIDTH 24 0
BBX 24 24 0 0
BITMAP
0000
0000
0008
0010
0020
0060
00C0
00E0
00E0
0040
0000
0000
0000
0000
0000
0000
0000
0000
0000
0000
0000
0000
0000
0000
ENDCHAR
STARTCHAR 8217
ENCODING 8217
SWIDTH 1000 1000
DWIDTH 24 0
BBX 24 24 0 0
BITMAP
0000
0000
20000
70000
70000
30000
60000
40000
80000
100000
0000
0000
0000
0000
0000
0000
0000
0000
0000
0000
0000
0000
0000
0000
ENDCHAR
STARTCHAR 8220
ENCODING 8220
SWIDTH 1000 1000
DWIDTH 24 0
BBX 24 24 0 0
BITMAP
0000
0000
0042
0084
0108
0318
0630
0738
0738
0210
0000
0000
0000
0000
0000
0000
0000
0000
0000
0000
0000
0000
0000
0000
ENDCHAR
STARTCHAR 8221
ENCODING 8221
SWIDTH 1000 1000
DWIDTH 24 0
BBX 24 24 0 0
BITMAP
0000
0000
84000
1CE000
1CE000
C6000
18C000
108000
210000
420000
0000
0000
0000
0000
0000
0000
0000
0000
0000
0000
0000
0000
0000
0000
ENDCHAR
STARTCHAR 8230
ENCODING 8230
SWIDTH 1000 1000
DWIDTH 24 0
BBX 24 24 0 0
BITMAP
0000
0000
0000
0000
0000
0000
0000
0000
0000
0000
181818
3C3C3C
3C3C3C
181818
0000
0000
0000
0000
0000
0000
0000
0000
0000
0000
ENDCHAR
STARTCHAR 8240
ENCODING 8240
SWIDTH 1000 1000
DWIDTH 24 0
BBX 24 24 0 0
BITMAP
0000
0080
1C0100
220200
220400
220400
220800
221000
221000
222000
224000
224000
1C9C38
12244
12244
22244
42244
42244
82244
102244
102244
202244
401C38
0000
ENDCHAR
STARTCHAR 8242
ENCODING 8242
SWIDTH 1000 1000
DWIDTH 24 0
BBX 24 24 0 0
BITMAP
0000
0000
70000
70000
60000
60000
40000
C0000
80000
100000
0000
0000
0000
0000
0000
0000
0000
0000
0000
0000
0000
0000
0000
0000
ENDCHAR
STARTCHAR 8243
ENCODING 8243
SWIDTH 1000 1000
DWIDTH 24 0
BBX 24 24 0 0
BITMAP
0000
0000
41000
E3800
C3000
186000
186000
30C000
30C000
618000
410000
0000
0000
0000
0000
0000
0000
0000
0000
0000
0000
0000
0000
0000
ENDCHAR
STARTCHAR 8251
ENCODING 8251
SWIDTH 1000 1000
DWIDTH 24 0
BBX 24 24 0 0
BITMAP
0000
0000
200004
101808
83C10
41820
20040
10080
8100
4200
82410
1C1838
1C1838
82410
4200
8100
10080
20040
41820
83C10
101808
200004
0000
0000
ENDCHAR
STARTCHAR 8451
ENCODING 8451
SWIDTH 1000 1000
DWIDTH 24 0
BBX 24 24 0 0
BITMAP
0000
0000
180000
240FC4
243034
18601C
C00C
C004
18004
18004
18000
18000
18000
18000
18000
18000
18000
18000
C004
C004
6008
3010
0FE0
0000
ENDCHAR
STARTCHAR 8470
ENCODING 8470
SWIDTH 1000 1000
DWIDTH 24 0
BBX 24 24 0 0
BITMAP
0000
0000
3C0C00
C1600
C1600
E1000
E10C0
B1120
B1330
B1330
99330
99330
99330
8D330
8D330
8D330
87330
87120
870C0
683000
683000
3017F8
0000
0000
ENDCHAR
STARTCHAR 8544
ENCODING 8544
SWIDTH 1000 1000
DWIDTH 24 0
BBX 24 24 0 0
BITMAP
0000
0000
7E00
1800
1800
1800
1800
1800
1800
1800
1800
1800
1800
1800
1800
1800
1800
1800
1800
1800
FF00
0000
0000
0000
ENDCHAR
STARTCHAR 8545
ENCODING 8545
SWIDTH 1000 1000
DWIDTH 24 0
BBX 24 24 0 0
BITMAP
0000
0000
7E7E0
18180
18180
18180
18180
18180
18180
18180
18180
18180
18180
18180
18180
18180
18180
18180
18180
18180
FE7F0
0000
0000
0000
ENDCHAR
STARTCHAR 8546
ENCODING 8546
SWIDTH 1000 1000
DWIDTH 24 0
BBX 24 24 0 0
BITMAP
0000
0000
1FBDF8
61860
61860
61860
61860
61860
61860
61860
61860
61860
61860
61860
61860
61860
61860
61860
61860
61860
3FBDFC
0000
0000
0000
ENDCHAR
STARTCHAR 8547
ENCODING 8547
SWIDTH 1000 1000
DWIDTH 24 0
BBX 24 24 0 0
BITMAP
0000
0000
1F7C7C
63010
63010
63010
61820
61820
61820
61820
60C40
60C40
60C40
60C40
60680
60680
60680
60680
60300
60300
1F8300
0000
0000
0000
ENDCHAR
STARTCHAR 8548
ENCODING 8548
SWIDTH 1000 1000
DWIDTH 24 0
BBX 24 24 0 0
BITMAP
0000
0000
1F80F8
60020
60020
30040
30040
30040
18080
18080
C100
C100
C100
6200
6200
3400
3400
3400
1800
1800
1800
0000
0000
0000
ENDCHAR
STARTCHAR 8549
ENCODING 8549
SWIDTH 1000 1000
DWIDTH 24 0
BBX 24 24 0 0
BITMAP
0000
0000
3E1EF8
C0460
C0460
C0460
60860
60860
60860
60860
31060
31060
31060
31060
1A060
1A060
1A060
1A060
C060
C060
C1F8
0000
0000
0000
ENDCHAR
STARTCHAR 8550
ENCODING 8550
SWIDTH 1000 1000
DWIDTH 24 0
BBX 24 24 0 0
BITMAP
0000
0000
7C1F78
180B30
180B30
C0B30
C1330
C1330
C1330
C1330
62330
62330
62330
62330
34330
34330
34330
34330
18330
18330
18FF8
0000
0000
0000
ENDCHAR
STARTCHAR 8551
ENCODING 8551
SWIDTH 1000 1000
DWIDTH 24 0
BBX 24 24 0 0
BITMAP
0000
0000
78FFFC
305998
305998
305998
305998
189998
189998
189998
189998
189998
189998
D1998
D1998
D1998
D1998
D1998
61998
61998
63FFC
0000
0000
0000
ENDCHAR
STARTCHAR 8552
ENCODING 8552
SWIDTH 1000 1000
DWIDTH 24 0
BBX 24 24 0 0
BITMAP
0000
0000
FDE7C
30C10
30C10
30620
30620
30340
30340
30180
30180
30180
301C0
302C0
302C0
30260
30460
30460
30830
30830
FBEFC
0000
0000
0000
ENDCHAR
STARTCHAR 8553
ENCODING 8553
SWIDTH 1000 1000
DWIDTH 24 0
BBX 24 24 0 0
BITMAP
0000
0000
FC1F0
30040
18080
18080
C100
6200
6200
3400
1800
1800
1C00
2600
4300
4300
8180
100C0
100C0
20060
1F81FC
0000
0000
0000
ENDCHAR
STARTCHAR 8554
ENCODING 8554
SWIDTH 1000 1000
DWIDTH 24 0
BBX 24 24 0 0
BITMAP
0000
0000
3F7BF0
C10C0
C10C0
620C0
620C0
340C0
340C0
180C0
180C0
180C0
1C0C0
2C0C0
2C0C0
260C0
460C0
460C0
830C0
830C0
3EFDF0
0000
0000
0000
ENDCHAR
STARTCHAR 8555
ENCODING 8555
SWIDTH 1000 1000
DWIDTH 24 0
BBX 24 24 0 0
BITMAP
0000
0000
3F7FFC
C1330
62330
62330
32330
34330
34330
1C330
18330
C330
1C330
1C330
26330
26330
26330
43330
43330
81B30
3E7FFC
0000
0000
0000
ENDCHAR
STARTCHAR 8592
ENCODING 8592
SWIDTH 1000 1000
DWIDTH 24 0
BBX 24 24 0 0
BITMAP
0000
0000
0000
0000
0000
0000
0000
0000
8000
30000
1E0000
7FFFFE
1E0000
30000
8000
0000
0000
0000
0000
0000
0000
0000
0000
0000
ENDCHAR
STARTCHAR 8593
ENCODING 8593
SWIDTH 1000 1000
DWIDTH 24 0
BBX 24 24 0 0
BITMAP
0000
0000
1000
1000
3800
3800
7C00
FE00
1000
1000
1000
1000
1000
1000
1000
1000
1000
1000
1000
1000
1000
1000
0000
0000
ENDCHAR
STARTCHAR 8594
ENCODING 8594
SWIDTH 1000 1000
DWIDTH 24 0
BBX 24 24 0 0
BITMAP
0000
0000
0000
0000
0000
0000
0000
0000
0100
00C0
0078
7FFFFE
0078
00C0
0100
0000
0000
0000
0000
0000
0000
0000
0000
0000
ENDCHAR
STARTCHAR 8595
ENCODING 8595
SWIDTH 1000 1000
DWIDTH 24 0
BBX 24 24 0 0
BITMAP
0000
0000
1000
1000
1000
1000
1000
1000
1000
1000
1000
1000
1000
1000
1000
1000
FE00
7C00
3800
3800
1000
1000
0000
0000
ENDCHAR
STARTCHAR 8712
ENCODING 8712
SWIDTH 1000 1000
DWIDTH 24 0
BBX 24 24 0 0
BITMAP
0000
0000
0380
0C00
3000
4000
4000
8000
8000
10000
10000
1FF80
10000
10000
10000
8000
8000
4000
4000
3000
0C00
0380
0000
0000
ENDCHAR
STARTCHAR 8719
ENCODING 8719
SWIDTH 1000 1000
DWIDTH 24 0
BBX 24 24 0 0
BITMAP
0000
0000
3FFFFC
60060
60060
60060
60060
60060
60060
60060
60060
60060
60060
60060
60060
60060
60060
60060
60060
60060
60060
3FC3FC
0000
0000
ENDCHAR
STARTCHAR 8721
ENCODING 8721
SWIDTH 1000 1000
DWIDTH 24 0
BBX 24 24 0 0
BITMAP
0000
0000
3FFFFC
30001C
38000C
1C0004
E0004
70004
38004
1C000
E000
7000
2000
4000
8000
10004
20004
40004
8000C
10001C
3FFFFC
3FFFFC
0000
0000
ENDCHAR
STARTCHAR 8730
ENCODING 8730
SWIDTH 1000 1000
DWIDTH 24 0
BBX 24 24 0 0
BITMAP
0000
0000
0002
0002
0004
0004
0008
0008
0010
0010
0020
0020
0040
80040
C0080
160080
230100
18100
C200
6200
3400
1C00
0800
0000
ENDCHAR
STARTCHAR 8733
ENCODING 8733
SWIDTH 1000 1000
DWIDTH 24 0
BBX 24 24 0 0
BITMAP
0000
0000
0000
0000
0000
0000
0000
0000
7C0F8
82104
101200
100C00
100C00
101200
82104
7C0F8
0000
0000
0000
0000
0000
0000
0000
0000
ENDCHAR
STARTCHAR 8734
ENCODING 8734
SWIDTH 1000 1000
DWIDTH 24 0
BBX 24 24 0 0
BITMAP
0000
0000
0000
0000
0000
0000
0000
0000
F81F0
104208
202404
201804
201804
202404
104208
F81F0
0000
0000
0000
0000
0000
0000
0000
0000
ENDCHAR
STARTCHAR 8736
ENCODING 8736
SWIDTH 1000 1000
DWIDTH 24 0
BBX 24 24 0 0
BITMAP
0000
0000
0004
0008
0010
0020
0040
0080
0100
0200
0400
0800
1000
2000
4000
8000
10000
20000
40000
80000
100000
3FFFFC
0000
0000
ENDCHAR
STARTCHAR 8741
ENCODING 8741
SWIDTH 1000 1000
DWIDTH 24 0
BBX 24 24 0 0
BITMAP
0000
0000
0000
2040
2040
2040
4080
4080
4080
8100
8100
8100
10200
10200
10200
20400
20400
20400
40800
40800
40800
0000
0000
0000
ENDCHAR
STARTCHAR 8743
ENCODING 8743
SWIDTH 1000 1000
DWIDTH 24 0
BBX 24 24 0 0
BITMAP
0000
0000
1000
2800
2800
4400
4400
8200
8200
10100
10100
20080
20080
40040
40040
80020
80020
100010
100010
200008
200008
0000
0000
0000
ENDCHAR
STARTCHAR 8744
ENCODING 8744
SWIDTH 1000 1000
DWIDTH 24 0
BBX 24 24 0 0
BITMAP
0000
0000
0000
200008
200008
100010
100010
80020
80020
40040
40040
20080
20080
10100
10100
8200
8200
4400
4400
2800
2800
1000
0000
0000
ENDCHAR
STARTCHAR 8745
ENCODING 8745
SWIDTH 1000 1000
DWIDTH 24 0
BBX 24 24 0 0
BITMAP
0000
0000
7E00
18180
20040
20040
40020
40020
40020
40020
40020
40020
40020
40020
40020
40020
40020
40020
40020
40020
40020
40020
0000
0000
ENDCHAR
STARTCHAR 8746
ENCODING 8746
SWIDTH 1000 1000
DWIDTH 24 0
BBX 24 24 0 0
BITMAP
0000
0000
40020
40020
40020
40020
40020
40020
40020
40020
40020
40020
40020
40020
40020
40020
40020
40020
20040
20040
18180
7E00
0000
0000
ENDCHAR
STARTCHAR 8747
ENCODING 8747
SWIDTH 1000 1000
DWIDTH 24 0
BBX 24 24 0 0
BITMAP
0000
0380
04C0
08C0
0800
0800
0800
0800
0800
0800
0800
0800
0800
0800
0800
0800
0800
0800
0800
0800
18800
19000
E000
0000
ENDCHAR
STARTCHAR 8750
ENCODING 8750
SWIDTH 1000 1000
DWIDTH 24 0
BBX 24 24 0 0
BITMAP
0000
0000
0070
0088
010C
010C
0200
0200
3C00
4600
8900
8900
9100
9100
6200
3C00
4000
4000
308000
308000
110000
E0000
0000
0000
ENDCHAR
STARTCHAR 8756
ENCODING 8756
SWIDTH 1000 1000
DWIDTH 24 0
BBX 24 24 0 0
BITMAP
0000
0000
0000
0000
0000
1800
3C00
3C00
1800
0000
0000
0000
0000
0000
0000
60060
F00F0
F00F0
60060
0000
0000
0000
0000
0000
ENDCHAR
STARTCHAR 8757
ENCODING 8757
SWIDTH 1000 1000
DWIDTH 24 0
BBX 24 24 0 0
BITMAP
0000
0000
0000
0000
0000
60060
F00F0
F00F0
60060
0000
0000
0000
0000
0000
0000
1800
3C00
3C00
1800
0000
0000
0000
0000
0000
ENDCHAR
STARTCHAR 8758
ENCODING 8758
SWIDTH 1000 1000
DWIDTH 24 0
BBX 24 24 0 0
BITMAP
0000
0000
0000
0000
0000
60000
F0000
F0000
60000
0000
0000
0000
0000
0000
0000
60000
F0000
F0000
60000
0000
0000
0000
0000
0000
ENDCHAR
STARTCHAR 8759
ENCODING 8759
SWIDTH 1000 1000
DWIDTH 24 0
BBX 24 24 0 0
BITMAP
0000
0000
0000
0000
60060
F00F0
F00F0
60060
0000
0000
0000
0000
0000
0000
0000
0000
60060
F00F0
F00F0
60060
0000
0000
0000
0000
ENDCHAR
STARTCHAR 8765
ENCODING 8765
SWIDTH 1000 1000
DWIDTH 24 0
BBX 24 24 0 0
BITMAP
0000
0000
0000
0000
0000
0000
0000
0000
E00F0
100308
200404
200804
201004
202004
10C008
F0070
0000
0000
0000
0000
0000
0000
0000
0000
ENDCHAR
STARTCHAR 8776
ENCODING 8776
SWIDTH 1000 1000
DWIDTH 24 0
BBX 24 24 0 0
BITMAP
0000
0000
0000
0000
0000
0000
38000
FE004
303818
400FE0
0380
0000
0000
38000
FE004
303818
400FE0
0380
0000
0000
0000
0000
0000
0000
ENDCHAR
STARTCHAR 8780
ENCODING 8780
SWIDTH 1000 1000
DWIDTH 24 0
BBX 24 24 0 0
BITMAP
0000
0000
0000
0000
E00F0
100308
200404
200804
201004
202004
10C008
F0070
0000
0000
3FFFFC
0000
0000
0000
3FFFFC
0000
0000
0000
0000
0000
ENDCHAR
STARTCHAR 8800
ENCODING 8800
SWIDTH 1000 1000
DWIDTH 24 0
BBX 24 24 0 0
BITMAP
0000
0000
0080
0080
0100
0100
0200
3FFFFC
0400
0400
0800
0800
1000
1000
2000
3FFFFC
4000
4000
8000
8000
10000
10000
0000
0000
ENDCHAR
STARTCHAR 8801
ENCODING 8801
SWIDTH 1000 1000
DWIDTH 24 0
BBX 24 24 0 0
BITMAP
0000
0000
0000
0000
0000
0000
0000
1FFFF8
0000
0000
0000
1FFFF8
0000
0000
0000
1FFFF8
0000
0000
0000
0000
0000
0000
0000
0000
ENDCHAR
STARTCHAR 8804
ENCODING 8804
SWIDTH 1000 1000
DWIDTH 24 0
BBX 24 24 0 0
BITMAP
0000
0000
0000
000C
0070
0380
0C00
7000
38000
C0000
300000
C0000
38000
307000
C0C00
38380
7070
0C0C
0380
0070
000C
0000
0000
0000
ENDCHAR
STARTCHAR 8805
ENCODING 8805
SWIDTH 1000 1000
DWIDTH 24 0
BBX 24 24 0 0
BITMAP
0000
0000
0000
300000
E0000
1C000
3000
0E00
01C0
0030
000C
0030
01C0
0E0C
3030
1C1C0
E0E00
303000
1C000
E0000
300000
0000
0000
0000
ENDCHAR
STARTCHAR 8814
ENCODING 8814
SWIDTH 1000 1000
DWIDTH 24 0
BBX 24 24 0 0
BITMAP
0000
0000
080C
0830
08C0
0B00
0C00
3800
C800
30800
C0800
300800
C0800
30800
C800
3800
0C00
0B00
08C0
0830
080C
0000
0000
0000
ENDCHAR
STARTCHAR 8815
ENCODING 8815
SWIDTH 1000 1000
DWIDTH 24 0
BBX 24 24 0 0
BITMAP
0000
0000
301000
C1000
31000
D000
3000
1C00
1300
10C0
1030
100C
1030
10C0
1300
1C00
3000
D000
31000
C1000
301000
0000
0000
0000
ENDCHAR
STARTCHAR 8857
ENCODING 8857
SWIDTH 1000 1000
DWIDTH 24 0
BBX 24 24 0 0
BITMAP
0000
0000
7E00
18180
60060
80010
80010
100008
100008
200004
201804
203C04
203C04
201804
200004
100008
100008
80010
80010
60060
18180
7E00
0000
0000
ENDCHAR
STARTCHAR 8869
ENCODING 8869
SWIDTH 1000 1000
DWIDTH 24 0
BBX 24 24 0 0
BITMAP
0000
0000
1000
1000
1000
1000
1000
1000
1000
1000
1000
1000
1000
1000
1000
1000
1000
1000
1000
1000
1000
1FFFF8
0000
0000
ENDCHAR
STARTCHAR 8978
ENCODING 8978
SWIDTH 1000 1000
DWIDTH 24 0
BBX 24 24 0 0
BITMAP
0000
0000
0000
0000
0000
0000
7E00
18180
60060
80010
80010
100008
100008
200004
200004
200004
0000
0000
0000
0000
0000
0000
0000
0000
ENDCHAR
STARTCHAR 9312
ENCODING 9312
SWIDTH 1000 1000
DWIDTH 24 0
BBX 24 24 0 0
BITMAP
0000
7E00
18180
60060
80810
101808
107808
201804
201804
401802
401802
401802
401802
401802
401802
201804
201804
107E08
100008
80010
60060
18180
7E00
0000
ENDCHAR
STARTCHAR 9313
ENCODING 9313
SWIDTH 1000 1000
DWIDTH 24 0
BBX 24 24 0 0
BITMAP
0000
7E00
18180
60060
80010
103E08
104308
20C304
20C304
400302
400602
400C02
401802
403002
406102
20C104
20FF04
10FF08
100008
80010
60060
18180
7E00
0000
ENDCHAR
STARTCHAR 9314
ENCODING 9314
SWIDTH 1000 1000
DWIDTH 24 0
BBX 24 24 0 0
BITMAP
0000
7E00
18180
60060
80010
103C08
104208
20C304
20C304
400302
400602
403802
400602
400302
400302
20C304
20C304
104208
103C08
80010
60060
18180
7E00
0000
ENDCHAR
STARTCHAR 9315
ENCODING 9315
SWIDTH 1000 1000
DWIDTH 24 0
BBX 24 24 0 0
BITMAP
0000
7E00
18180
60060
80410
100C08
101C08
202C04
202C04
404C02
408C02
408C02
410C02
43FF82
400C02
200C04
200C04
103F08
100008
80010
60060
18180
7E00
0000
ENDCHAR
STARTCHAR 9316
ENCODING 9316
SWIDTH 1000 1000
DWIDTH 24 0
BBX 24 24 0 0
BITMAP
0000
7E00
18180
60060
80110
107F08
107F08
204004
204004
404002
405C02
406202
404302
400302
400302
20C304
20C304
104208
103C08
80010
60060
18180
7E00
0000
ENDCHAR
STARTCHAR 9317
ENCODING 9317
SWIDTH 1000 1000
DWIDTH 24 0
BBX 24 24 0 0
BITMAP
0000
7E00
18180
60060
80010
103C08
104208
20C304
20C304
40C002
40DC02
40E202
40C302
40C302
40C302
20C304
20C304
104208
103C08
80010
60060
18180
7E00
0000
ENDCHAR
STARTCHAR 9318
ENCODING 9318
SWIDTH 1000 1000
DWIDTH 24 0
BBX 24 24 0 0
BITMAP
0000
7E00
18180
60060
80010
10FF08
10FF08
208204
200404
400402
400802
400802
400802
401802
401802
201804
201804
101808
101808
80010
60060
18180
7E00
0000
ENDCHAR
STARTCHAR 9319
ENCODING 9319
SWIDTH 1000 1000
DWIDTH 24 0
BBX 24 24 0 0
BITMAP
0000
7E00
18180
60060
80010
103C08
104208
20C304
20C304
406202
403402
401802
402C02
404602
40C302
20C304
20C304
104208
103C08
80010
60060
18180
7E00
0000
ENDCHAR
STARTCHAR 9320
ENCODING 9320
SWIDTH 1000 1000
DWIDTH 24 0
BBX 24 24 0 0
BITMAP
0000
7E00
18180
60060
80010
103C08
104208
20C304
20C304
40C302
40C302
40C302
404702
403B02
400302
20C304
20C304
104208
103C08
80010
60060
18180
7E00
0000
ENDCHAR
STARTCHAR 9321
ENCODING 9321
SWIDTH 1000 1000
DWIDTH 24 0
BBX 24 24 0 0
BITMAP
0000
7E00
18180
60060
80010
108708
138888
2198C4
2198C4
4198C2
4198C2
4198C2
4198C2
4198C2
4198C2
2198C4
2198C4
118888
13C708
80010
60060
18180
7E00
0000
ENDCHAR
STARTCHAR 9332
ENCODING 9332
SWIDTH 1000 1000
DWIDTH 24 0
BBX 24 24 0 0
BITMAP
0000
20040
40020
80810
181818
103808
30180C
201804
601806
601806
601806
601806
601806
601806
601806
601806
201804
30180C
101808
187E18
80010
40020
20040
0000
ENDCHAR
STARTCHAR 9333
ENCODING 9333
SWIDTH 1000 1000
DWIDTH 24 0
BBX 24 24 0 0
BITMAP
0000
20040
40020
80010
183C18
104208
30C30C
20C304
600306
600306
600606
600C06
601806
603006
603006
606006
206004
30C10C
10FF08
18FF18
80010
40020
20040
0000
ENDCHAR
STARTCHAR 9334
ENCODING 9334
SWIDTH 1000 1000
DWIDTH 24 0
BBX 24 24 0 0
BITMAP
0000
20040
40020
80010
183C18
104208
30C30C
20C304
600306
600306
600606
603806
600406
600606
600306
600306
20C304
30C30C
104208
183C18
80010
40020
20040
0000
ENDCHAR
STARTCHAR 9335
ENCODING 9335
SWIDTH 1000 1000
DWIDTH 24 0
BBX 24 24 0 0
BITMAP
0000
20040
40020
80410
180C18
101C08
302C0C
202C04
604C06
604C06
608C06
608C06
610C06
610C06
620C06
63FF86
200C04
300C0C
100C08
183F18
80010
40020
20040
0000
ENDCHAR
STARTCHAR 9336
ENCODING 9336
SWIDTH 1000 1000
DWIDTH 24 0
BBX 24 24 0 0
BITMAP
0000
20040
40020
80110
187F18
107F08
30400C
204004
604006
604006
605C06
606206
604306
600306
600306
600306
20C304
30C30C
104208
183C18
80010
40020
20040
0000
ENDCHAR
STARTCHAR 9337
ENCODING 9337
SWIDTH 1000 1000
DWIDTH 24 0
BBX 24 24 0 0
BITMAP
0000
20040
40020
80010
183C18
104208
30C30C
20C304
60C006
60C006
60DC06
60E206
60C306
60C306
60C306
60C306
20C304
30C30C
104208
183C18
80010
40020
20040
0000
ENDCHAR
STARTCHAR 9338
ENCODING 9338
SWIDTH 1000 1000
DWIDTH 24 0
BBX 24 24 0 0
BITMAP
0000
20040
40020
80010
18FF18
10FF08
30820C
200404
600406
600806
600806
601806
601806
601806
601806
601806
201804
30180C
101808
181818
80010
40020
20040
0000
ENDCHAR
STARTCHAR 9339
ENCODING 9339
SWIDTH 1000 1000
DWIDTH 24 0
BBX 24 24 0 0
BITMAP
0000
20040
40020
80010
183C18
104208
30C30C
20C304
60C306
606206
603406
601806
603C06
604206
60C306
60C306
20C304
30C30C
104208
183C18
80010
40020
20040
0000
ENDCHAR
STARTCHAR 9340
ENCODING 9340
SWIDTH 1000 1000
DWIDTH 24 0
BBX 24 24 0 0
BITMAP
0000
20040
40020
80010
183C18
104208
30C30C
20C304
60C306
60C306
60C306
60C306
604706
603B06
600306
600306
20C304
30C30C
104208
183C18
80010
40020
20040
0000
ENDCHAR
STARTCHAR 9341
ENCODING 9341
SWIDTH 1000 1000
DWIDTH 24 0
BBX 24 24 0 0
BITMAP
0000
20040
40020
80010
188718
138888
3198CC
2198C4
6198C6
6198C6
6198C6
6198C6
6198C6
6198C6
6198C6
6198C6
2198C4
3198CC
118888
1BC718
80010
40020
20040
0000
ENDCHAR
STARTCHAR 9342
ENCODING 9342
SWIDTH 1000 1000
DWIDTH 24 0
BBX 24 24 0 0
BITMAP
0000
20040
40020
80010
184118
11C708
30C30C
20C304
60C306
60C306
60C306
60C306
60C306
60C306
60C306
60C306
20C304
30C30C
10C308
19E798
80010
40020
20040
0000
ENDCHAR
STARTCHAR 9343
ENCODING 9343
SWIDTH 1000 1000
DWIDTH 24 0
BBX 24 24 0 0
BITMAP
0000
20040
40020
80010
188718
138888
3198CC
2198C4
6180C6
6180C6
6180C6
618186
618306
618606
618606
618C06
218C04
31984C
119FC8
1BDFD8
80010
40020
20040
0000
ENDCHAR
STARTCHAR 9344
ENCODING 9344
SWIDTH 1000 1000
DWIDTH 24 0
BBX 24 24 0 0
BITMAP
0000
20040
40020
80010
188718
138888
3198CC
2198C4
6180C6
6180C6
618186
618E06
618106
618186
6180C6
6180C6
2198C4
3198CC
118888
1BC718
80010
40020
20040
0000
ENDCHAR
STARTCHAR 9345
ENCODING 9345
SWIDTH 1000 1000
DWIDTH 24 0
BBX 24 24 0 0
BITMAP
0000
20040
40020
80010
188098
138188
31838C
218384
618586
618586
618986
618986
619186
619186
61A186
61BFE6
218184
31818C
118188
1BC7D8
80010
40020
20040
0000
ENDCHAR
STARTCHAR 9346
ENCODING 9346
SWIDTH 1000 1000
DWIDTH 24 0
BBX 24 24 0 0
BITMAP
0000
20040
40020
88050
1B8FD8
118FC8
31880C
218804
618806
618806
618B06
618C86
6188C6
6180C6
6180C6
6180C6
2198C4
3198CC
118888
1BC718
80010
40020
20040
0000
ENDCHAR
STARTCHAR 9347
ENCODING 9347
SWIDTH 1000 1000
DWIDTH 24 0
BBX 24 24 0 0
BITMAP
0000
20040
40020
80010
188398
138448
318C6C
218C64
618C06
618C06
618D86
618E46
618C66
618C66
618C66
618C66
218C64
318C6C
118448
1BC398
80010
40020
20040
0000
ENDCHAR
STARTCHAR 9348
ENCODING 9348
SWIDTH 1000 1000
DWIDTH 24 0
BBX 24 24 0 0
BITMAP
0000
20040
40020
80010
188018
139FC8
319FCC
219044
618086
618086
618106
618106
618206
618206
618606
618606
218604
31860C
118608
1BC618
80010
40020
20040
0000
ENDCHAR
STARTCHAR 9349
ENCODING 9349
SWIDTH 1000 1000
DWIDTH 24 0
BBX 24 24 0 0
BITMAP
0000
20040
40020
80010
188718
138888
3198CC
2198C4
6198C6
618886
618506
618206
618506
618886
6198C6
6198C6
2198C4
3198CC
118888
1BC718
80010
40020
20040
0000
ENDCHAR
STARTCHAR 9350
ENCODING 9350
SWIDTH 1000 1000
DWIDTH 24 0
BBX 24 24 0 0
BITMAP
0000
20040
40020
80010
188718
138888
3198CC
2198C4
6198C6
6198C6
6198C6
6198C6
6189C6
6186C6
6180C6
6180C6
2198C4
3198CC
118888
1BC718
80010
40020
20040
0000
ENDCHAR
STARTCHAR 9351
ENCODING 9351
SWIDTH 1000 1000
DWIDTH 24 0
BBX 24 24 0 0
BITMAP
0000
20040
40020
80010
19C198
122248
33366C
233664
603666
603666
603666
606666
606666
60C666
60C666
618666
218664
33166C
13F248
1BF198
80010
40020
20040
0000
ENDCHAR
STARTCHAR 9352
ENCODING 9352
SWIDTH 1000 1000
DWIDTH 24 0
BBX 24 24 0 0
BITMAP
0000
0000
0000
0800
1800
7800
1800
1800
1800
1800
1800
1800
1800
1800
1800
1800
1800
1800
1820
1870
7E20
0000
0000
0000
ENDCHAR
STARTCHAR 9353
ENCODING 9353
SWIDTH 1000 1000
DWIDTH 24 0
BBX 24 24 0 0
BITMAP
0000
0000
0000
3C00
4200
C300
C300
0300
0300
0300
0600
0C00
0C00
1800
1800
3000
6000
6100
C310
FF38
FF10
0000
0000
0000
ENDCHAR
STARTCHAR 9354
ENCODING 9354
SWIDTH 1000 1000
DWIDTH 24 0
BBX 24 24 0 0
BITMAP
0000
0000
0000
3C00
4200
C300
C300
0300
0300
0200
0C00
3000
0C00
0200
0300
0300
0300
C300
C310
4238
3C10
0000
0000
0000
ENDCHAR
STARTCHAR 9355
ENCODING 9355
SWIDTH 1000 1000
DWIDTH 24 0
BBX 24 24 0 0
BITMAP
0000
0000
0000
0600
0E00
0E00
1600
1600
2600
2600
4600
4600
8600
8600
8600
10600
1FFC0
0600
0610
0638
1F90
0000
0000
0000
ENDCHAR
STARTCHAR 9356
ENCODING 9356
SWIDTH 1000 1000
DWIDTH 24 0
BBX 24 24 0 0
BITMAP
0000
0000
0000
0100
FF00
FF00
8000
8000
8000
8000
BC00
C200
8300
0300
0300
0300
0300
C300
C310
4238
3C10
0000
0000
0000
ENDCHAR
STARTCHAR 9357
ENCODING 9357
SWIDTH 1000 1000
DWIDTH 24 0
BBX 24 24 0 0
BITMAP
0000
0000
0000
3C00
4200
C300
C300
C000
C000
C000
DC00
E200
C300
C300
C300
C300
C300
C300
C310
4238
3C10
0000
0000
0000
ENDCHAR
STARTCHAR 9358
ENCODING 9358
SWIDTH 1000 1000
DWIDTH 24 0
BBX 24 24 0 0
BITMAP
0000
0000
0000
0000
FF80
FF80
C080
8100
0100
0200
0200
0400
0400
0800
0800
1800
1800
1800
1810
1838
1810
0000
0000
0000
ENDCHAR
STARTCHAR 9359
ENCODING 9359
SWIDTH 1000 1000
DWIDTH 24 0
BBX 24 24 0 0
BITMAP
0000
0000
0000
7C00
8200
18300
18300
18300
18300
C600
6C00
1000
6C00
C600
18300
18300
18300
18300
18310
8238
7C10
0000
0000
0000
ENDCHAR
STARTCHAR 9360
ENCODING 9360
SWIDTH 1000 1000
DWIDTH 24 0
BBX 24 24 0 0
BITMAP
0000
0000
0000
3C00
4200
C300
C300
C300
C300
C300
C300
C300
4700
3B00
0300
0300
0300
C300
C310
4238
3C10
0000
0000
0000
ENDCHAR
STARTCHAR 9361
ENCODING 9361
SWIDTH 1000 1000
DWIDTH 24 0
BBX 24 24 0 0
BITMAP
0000
0000
0000
10700
70880
318C0
318C0
318C0
318C0
318C0
318C0
318C0
318C0
318C0
318C0
318C0
318C0
318C0
318C8
3089C
78708
0000
0000
0000
ENDCHAR
STARTCHAR 9362
ENCODING 9362
SWIDTH 1000 1000
DWIDTH 24 0
BBX 24 24 0 0
BITMAP
0000
0000
0000
10100
70700
30300
30300
30300
30300
30300
30300
30300
30300
30300
30300
30300
30300
30300
30308
3031C
78788
0000
0000
0000
ENDCHAR
STARTCHAR 9363
ENCODING 9363
SWIDTH 1000 1000
DWIDTH 24 0
BBX 24 24 0 0
BITMAP
0000
0000
0000
10F00
71080
330C0
330C0
300C0
300C0
30180
30180
30300
30300
30600
30600
30C00
30C00
31800
31848
31FDC
79FC8
0000
0000
0000
ENDCHAR
STARTCHAR 9364
ENCODING 9364
SWIDTH 1000 1000
DWIDTH 24 0
BBX 24 24 0 0
BITMAP
0000
0000
0000
10F00
71080
330C0
330C0
300C0
300C0
300C0
30180
30E00
30180
300C0
300C0
300C0
300C0
330C0
330C8
3109C
78F08
0000
0000
0000
ENDCHAR
STARTCHAR 9365
ENCODING 9365
SWIDTH 1000 1000
DWIDTH 24 0
BBX 24 24 0 0
BITMAP
0000
0000
0000
10080
70180
30380
30380
30580
30580
30980
30980
31180
31180
32180
32180
33FE0
30180
30180
30188
3019C
787C8
0000
0000
0000
ENDCHAR
STARTCHAR 9366
ENCODING 9366
SWIDTH 1000 1000
DWIDTH 24 0
BBX 24 24 0 0
BITMAP
0000
0000
0000
10040
71FC0
31FC0
31000
31000
31000
31000
31700
31880
310C0
300C0
300C0
300C0
300C0
330C0
330C8
3109C
78F08
0000
0000
0000
ENDCHAR
STARTCHAR 9367
ENCODING 9367
SWIDTH 1000 1000
DWIDTH 24 0
BBX 24 24 0 0
BITMAP
0000
0000
0000
10700
70880
318C0
318C0
31800
31800
31800
31B00
31C80
318C0
318C0
318C0
318C0
318C0
318C0
318C8
3089C
78708
0000
0000
0000
ENDCHAR
STARTCHAR 9368
ENCODING 9368
SWIDTH 1000 1000
DWIDTH 24 0
BBX 24 24 0 0
BITMAP
0000
0000
0000
10000
71FE0
31FE0
31020
30040
30080
30080
30100
30100
30300
30300
30300
30300
30300
30300
30308
3031C
78308
0000
0000
0000
ENDCHAR
STARTCHAR 9369
ENCODING 9369
SWIDTH 1000 1000
DWIDTH 24 0
BBX 24 24 0 0
BITMAP
0000
0000
0000
10F00
71080
330C0
330C0
330C0
330C0
31980
30F00
30600
30900
31980
330C0
330C0
330C0
330C0
330C8
3109C
78F08
0000
0000
0000
ENDCHAR
STARTCHAR 9370
ENCODING 9370
SWIDTH 1000 1000
DWIDTH 24 0
BBX 24 24 0 0
BITMAP
0000
0000
0000
10700
70880
318C0
318C0
318C0
318C0
318C0
318C0
318C0
309C0
306C0
300C0
300C0
300C0
318C0
318C8
3089C
78708
0000
0000
0000
ENDCHAR
STARTCHAR 9371
ENCODING 9371
SWIDTH 1000 1000
DWIDTH 24 0
BBX 24 24 0 0
BITMAP
0000
0000
0000
70700
88880
18D8C0
18D8C0
D8C0
D8C0
D8C0
198C0
198C0
318C0
318C0
618C0
618C0
C18C0
C18C0
1858C8
1FC89C
1FC708
0000
0000
0000
ENDCHAR
STARTCHAR 9472
ENCODING 9472
SWIDTH 1000 1000
DWIDTH 24 0
BBX 24 24 0 0
BITMAP
0000
0000
0000
0000
0000
0000
0000
0000
0000
0000
0000
FFFFFF
0000
0000
0000
0000
0000
0000
0000
0000
0000
0000
0000
0000
ENDCHAR
STARTCHAR 9473
ENCODING 9473
SWIDTH 1000 1000
DWIDTH 24 0
BBX 24 24 0 0
BITMAP
0000
0000
0000
0000
0000
0000
0000
0000
0000
0000
0000
FFFFFF
FFFFFF
0000
0000
0000
0000
0000
0000
0000
0000
0000
0000
0000
ENDCHAR
STARTCHAR 9474
ENCODING 9474
SWIDTH 1000 1000
DWIDTH 24 0
BBX 24 24 0 0
BITMAP
1000
1000
1000
1000
1000
1000
1000
1000
1000
1000
1000
1000
1000
1000
1000
1000
1000
1000
1000
1000
1000
1000
1000
1000
ENDCHAR
STARTCHAR 9475
ENCODING 9475
SWIDTH 1000 1000
DWIDTH 24 0
BBX 24 24 0 0
BITMAP
1800
1800
1800
1800
1800
1800
1800
1800
1800
1800
1800
1800
1800
1800
1800
1800
1800
1800
1800
1800
1800
1800
1800
1800
ENDCHAR
STARTCHAR 9476
ENCODING 9476
SWIDTH 1000 1000
DWIDTH 24 0
BBX 24 24 0 0
BITMAP
0000
0000
0000
0000
0000
0000
0000
0000
0000
0000
0000
3C3C3C
0000
0000
0000
0000
0000
0000
0000
0000
0000
0000
0000
0000
ENDCHAR
STARTCHAR 9477
ENCODING 9477
SWIDTH 1000 1000
DWIDTH 24 0
BBX 24 24 0 0
BITMAP
0000
0000
0000
0000
0000
0000
0000
0000
0000
0000
0000
3C3C3C
3C3C3C
0000
0000
0000
0000
0000
0000
0000
0000
0000
0000
0000
ENDCHAR
STARTCHAR 9478
ENCODING 9478
SWIDTH 1000 1000
DWIDTH 24 0
BBX 24 24 0 0
BITMAP
0000
0000
1000
1000
1000
1000
0000
0000
0000
0000
1000
1000
1000
1000
0000
0000
0000
0000
1000
1000
1000
1000
0000
0000
ENDCHAR
STARTCHAR 9479
ENCODING 9479
SWIDTH 1000 1000
DWIDTH 24 0
BBX 24 24 0 0
BITMAP
0000
0000
1800
1800
1800
1800
0000
0000
0000
0000
1800
1800
1800
1800
0000
0000
0000
0000
1800
1800
1800
1800
0000
0000
ENDCHAR
STARTCHAR 9480
ENCODING 9480
SWIDTH 1000 1000
DWIDTH 24 0
BBX 24 24 0 0
BITMAP
0000
0000
0000
0000
0000
0000
0000
0000
0000
0000
0000
71C71C
0000
0000
0000
0000
0000
0000
0000
0000
0000
0000
0000
0000
ENDCHAR
STARTCHAR 9481
ENCODING 9481
SWIDTH 1000 1000
DWIDTH 24 0
BBX 24 24 0 0
BITMAP
0000
0000
0000
0000
0000
0000
0000
0000
0000
0000
0000
71C71C
71C71C
0000
0000
0000
0000
0000
0000
0000
0000
0000
0000
0000
ENDCHAR
STARTCHAR 9482
ENCODING 9482
SWIDTH 1000 1000
DWIDTH 24 0
BBX 24 24 0 0
BITMAP
0000
1000
1000
1000
0000
0000
0000
1000
1000
1000
0000
0000
0000
1000
1000
1000
0000
0000
0000
1000
1000
1000
0000
0000
ENDCHAR
STARTCHAR 9483
ENCODING 9483
SWIDTH 1000 1000
DWIDTH 24 0
BBX 24 24 0 0
BITMAP
0000
1800
1800
1800
0000
0000
0000
1800
1800
1800
0000
0000
0000
1800
1800
1800
0000
0000
0000
1800
1800
1800
0000
0000
ENDCHAR
STARTCHAR 9484
ENCODING 9484
SWIDTH 1000 1000
DWIDTH 24 0
BBX 24 24 0 0
BITMAP
0000
0000
0000
0000
0000
0000
0000
0000
0000
0000
0000
1FFF
1000
1000
1000
1000
1000
1000
1000
1000
1000
1000
1000
1000
ENDCHAR
STARTCHAR 9485
ENCODING 9485
SWIDTH 1000 1000
DWIDTH 24 0
BBX 24 24 0 0
BITMAP
0000
0000
0000
0000
0000
0000
0000
0000
0000
0000
0000
1FFF
1FFF
1000
1000
1000
1000
1000
1000
1000
1000
1000
1000
1000
ENDCHAR
STARTCHAR 9486
ENCODING 9486
SWIDTH 1000 1000
DWIDTH 24 0
BBX 24 24 0 0
BITMAP
0000
0000
0000
0000
0000
0000
0000
0000
0000
0000
0000
1FFF
1800
1800
1800
1800
1800
1800
1800
1800
1800
1800
1800
1800
ENDCHAR
STARTCHAR 9487
ENCODING 9487
SWIDTH 1000 1000
DWIDTH 24 0
BBX 24 24 0 0
BITMAP
0000
0000
0000
0000
0000
0000
0000
0000
0000
0000
0000
1FFF
1FFF
1800
1800
1800
1800
1800
1800
1800
1800
1800
1800
1800
ENDCHAR
STARTCHAR 9488
ENCODING 9488
SWIDTH 1000 1000
DWIDTH 24 0
BBX 24 24 0 0
BITMAP
0000
0000
0000
0000
0000
0000
0000
0000
0000
0000
0000
FFF000
1000
1000
1000
1000
1000
1000
1000
1000
1000
1000
1000
1000
ENDCHAR
STARTCHAR 9489
ENCODING 9489
SWIDTH 1000 1000
DWIDTH 24 0
BBX 24 24 0 0
BITMAP
0000
0000
0000
0000
0000
0000
0000
0000
0000
0000
0000
FFF000
FFF000
1000
1000
1000
1000
1000
1000
1000
1000
1000
1000
1000
ENDCHAR
STARTCHAR 9490
ENCODING 9490
SWIDTH 1000 1000
DWIDTH 24 0
BBX 24 24 0 0
BITMAP
0000
0000
0000
0000
0000
0000
0000
0000
0000
0000
0000
FFF800
1800
1800
1800
1800
1800
1800
1800
1800
1800
1800
1800
1800
ENDCHAR
STARTCHAR 9491
ENCODING 9491
SWIDTH 1000 1000
DWIDTH 24 0
BBX 24 24 0 0
BITMAP
0000
0000
0000
0000
0000
0000
0000
0000
0000
0000
0000
FFF800
FFF800
1800
1800
1800
1800
1800
1800
1800
1800
1800
1800
1800
ENDCHAR
STARTCHAR 9492
ENCODING 9492
SWIDTH 1000 1000
DWIDTH 24 0
BBX 24 24 0 0
BITMAP
1000
1000
1000
1000
1000
1000
1000
1000
1000
1000
1000
1FFF
0000
0000
0000
0000
0000
0000
0000
0000
0000
0000
0000
0000
ENDCHAR
STARTCHAR 9493
ENCODING 9493
SWIDTH 1000 1000
DWIDTH 24 0
BBX 24 24 0 0
BITMAP
1000
1000
1000
1000
1000
1000
1000
1000
1000
1000
1000
1FFF
1FFF
0000
0000
0000
0000
0000
0000
0000
0000
0000
0000
0000
ENDCHAR
STARTCHAR 9494
ENCODING 9494
SWIDTH 1000 1000
DWIDTH 24 0
BBX 24 24 0 0
BITMAP
1800
1800
1800
1800
1800
1800
1800
1800
1800
1800
1800
1FFF
0000
0000
0000
0000
0000
0000
0000
0000
0000
0000
0000
0000
ENDCHAR
STARTCHAR 9495
ENCODING 9495
SWIDTH 1000 1000
DWIDTH 24 0
BBX 24 24 0 0
BITMAP
1800
1800
1800
1800
1800
1800
1800
1800
1800
1800
1800
1FFF
1FFF
0000
0000
0000
0000
0000
0000
0000
0000
0000
0000
0000
ENDCHAR
STARTCHAR 9496
ENCODING 9496
SWIDTH 1000 1000
DWIDTH 24 0
BBX 24 24 0 0
BITMAP
1000
1000
1000
1000
1000
1000
1000
1000
1000
1000
1000
FFF000
0000
0000
0000
0000
0000
0000
0000
0000
0000
0000
0000
0000
ENDCHAR
STARTCHAR 9497
ENCODING 9497
SWIDTH 1000 1000
DWIDTH 24 0
BBX 24 24 0 0
BITMAP
1000
1000
1000
1000
1000
1000
1000
1000
1000
1000
1000
FFF000
FFF000
0000
0000
0000
0000
0000
0000
0000
0000
0000
0000
0000
ENDCHAR
STARTCHAR 9498
ENCODING 9498
SWIDTH 1000 1000
DWIDTH 24 0
BBX 24 24 0 0
BITMAP
1800
1800
1800
1800
1800
1800
1800
1800
1800
1800
1800
FFF800
0000
0000
0000
0000
0000
0000
0000
0000
0000
0000
0000
0000
ENDCHAR
STARTCHAR 9499
ENCODING 9499
SWIDTH 1000 1000
DWIDTH 24 0
BBX 24 24 0 0
BITMAP
1800
1800
1800
1800
1800
1800
1800
1800
1800
1800
1800
FFF800
FFF800
0000
0000
0000
0000
0000
0000
0000
0000
0000
0000
0000
ENDCHAR
STARTCHAR 9500
ENCODING 9500
SWIDTH 1000 1000
DWIDTH 24 0
BBX 24 24 0 0
BITMAP
1000
1000
1000
1000
1000
1000
1000
1000
1000
1000
1000
1FFF
1000
1000
1000
1000
1000
1000
1000
1000
1000
1000
1000
1000
ENDCHAR
STARTCHAR 9501
ENCODING 9501
SWIDTH 1000 1000
DWIDTH 24 0
BBX 24 24 0 0
BITMAP
1000
1000
1000
1000
1000
1000
1000
1000
1000
1000
1000
1FFF
1FFF
1000
1000
1000
1000
1000
1000
1000
1000
1000
1000
1000
ENDCHAR
STARTCHAR 9502
ENCODING 9502
SWIDTH 1000 1000
DWIDTH 24 0
BBX 24 24 0 0
BITMAP
1800
1800
1800
1800
1800
1800
1800
1800
1800
1800
1800
1FFF
1000
1000
1000
1000
1000
1000
1000
1000
1000
1000
1000
1000
ENDCHAR
STARTCHAR 9503
ENCODING 9503
SWIDTH 1000 1000
DWIDTH 24 0
BBX 24 24 0 0
BITMAP
1000
1000
1000
1000
1000
1000
1000
1000
1000
1000
1000
1FFF
1800
1800
1800
1800
1800
1800
1800
1800
1800
1800
1800
1800
ENDCHAR
STARTCHAR 9504
ENCODING 9504
SWIDTH 1000 1000
DWIDTH 24 0
BBX 24 24 0 0
BITMAP
1800
1800
1800
1800
1800
1800
1800
1800
1800
1800
1800
1FFF
1800
1800
1800
1800
1800
1800
1800
1800
1800
1800
1800
1800
ENDCHAR
STARTCHAR 9505
ENCODING 9505
SWIDTH 1000 1000
DWIDTH 24 0
BBX 24 24 0 0
BITMAP
1800
1800
1800
1800
1800
1800
1800
1800
1800
1800
1800
1FFF
1FFF
1000
1000
1000
1000
1000
1000
1000
1000
1000
1000
1000
ENDCHAR
STARTCHAR 9506
ENCODING 9506
SWIDTH 1000 1000
DWIDTH 24 0
BBX 24 24 0 0
BITMAP
1000
1000
1000
1000
1000
1000
1000
1000
1000
1000
1000
1FFF
1FFF
1800
1800
1800
1800
1800
1800
1800
1800
1800
1800
1800
ENDCHAR
STARTCHAR 9507
ENCODING 9507
SWIDTH 1000 1000
DWIDTH 24 0
BBX 24 24 0 0
BITMAP
1800
1800
1800
1800
1800
1800
1800
1800
1800
1800
1800
1FFF
1FFF
1800
1800
1800
1800
1800
1800
1800
1800
1800
1800
1800
ENDCHAR
STARTCHAR 9508
ENCODING 9508
SWIDTH 1000 1000
DWIDTH 24 0
BBX 24 24 0 0
BITMAP
1000
1000
1000
1000
1000
1000
1000
1000
1000
1000
1000
FFF000
1000
1000
1000
1000
1000
1000
1000
1000
1000
1000
1000
1000
ENDCHAR
STARTCHAR 9509
ENCODING 9509
SWIDTH 1000 1000
DWIDTH 24 0
BBX 24 24 0 0
BITMAP
1000
1000
1000
1000
1000
1000
1000
1000
1000
1000
1000
FFF000
FFF000
1000
1000
1000
1000
1000
1000
1000
1000
1000
1000
1000
ENDCHAR
STARTCHAR 9510
ENCODING 9510
SWIDTH 1000 1000
DWIDTH 24 0
BBX 24 24 0 0
BITMAP
1800
1800
1800
1800
1800
1800
1800
1800
1800
1800
1800
FFF800
1000
1000
1000
1000
1000
1000
1000
1000
1000
1000
1000
1000
ENDCHAR
STARTCHAR 9511
ENCODING 9511
SWIDTH 1000 1000
DWIDTH 24 0
BBX 24 24 0 0
BITMAP
1000
1000
1000
1000
1000
1000
1000
1000
1000
1000
1000
FFF800
1800
1800
1800
1800
1800
1800
1800
1800
1800
1800
1800
1800
ENDCHAR
STARTCHAR 9512
ENCODING 9512
SWIDTH 1000 1000
DWIDTH 24 0
BBX 24 24 0 0
BITMAP
1800
1800
1800
1800
1800
1800
1800
1800
1800
1800
1800
FFF800
1800
1800
1800
1800
1800
1800
1800
1800
1800
1800
1800
1800
ENDCHAR
STARTCHAR 9513
ENCODING 9513
SWIDTH 1000 1000
DWIDTH 24 0
BBX 24 24 0 0
BITMAP
1800
1800
1800
1800
1800
1800
1800
1800
1800
1800
1800
FFF800
FFF800
1000
1000
1000
1000
1000
1000
1000
1000
1000
1000
1000
ENDCHAR
STARTCHAR 9514
ENCODING 9514
SWIDTH 1000 1000
DWIDTH 24 0
BBX 24 24 0 0
BITMAP
1000
1000
1000
1000
1000
1000
1000
1000
1000
1000
1000
FFF800
FFF800
1800
1800
1800
1800
1800
1800
1800
1800
1800
1800
1800
ENDCHAR
STARTCHAR 9515
ENCODING 9515
SWIDTH 1000 1000
DWIDTH 24 0
BBX 24 24 0 0
BITMAP
1800
1800
1800
1800
1800
1800
1800
1800
1800
1800
1800
FFF800
FFF800
1800
1800
1800
1800
1800
1800
1800
1800
1800
1800
1800
ENDCHAR
STARTCHAR 9516
ENCODING 9516
SWIDTH 1000 1000
DWIDTH 24 0
BBX 24 24 0 0
BITMAP
0000
0000
0000
0000
0000
0000
0000
0000
0000
0000
0000
FFFFFF
1000
1000
1000
1000
1000
1000
1000
1000
1000
1000
1000
1000
ENDCHAR
STARTCHAR 9517
ENCODING 9517
SWIDTH 1000 1000
DWIDTH 24 0
BBX 24 24 0 0
BITMAP
0000
0000
0000
0000
0000
0000
0000
0000
0000
0000
0000
FFFFFF
FFF000
1000
1000
1000
1000
1000
1000
1000
1000
1000
1000
1000
ENDCHAR
STARTCHAR 9518
ENCODING 9518
SWIDTH 1000 1000
DWIDTH 24 0
BBX 24 24 0 0
BITMAP
0000
0000
0000
0000
0000
0000
0000
0000
0000
0000
0000
FFFFFF
1FFF
1000
1000
1000
1000
1000
1000
1000
1000
1000
1000
1000
ENDCHAR
STARTCHAR 9519
ENCODING 9519
SWIDTH 1000 1000
DWIDTH 24 0
BBX 24 24 0 0
BITMAP
0000
0000
0000
0000
0000
0000
0000
0000
0000
0000
0000
FFFFFF
FFFFFF
1000
1000
1000
1000
1000
1000
1000
1000
1000
1000
1000
ENDCHAR
STARTCHAR 9520
ENCODING 9520
SWIDTH 1000 1000
DWIDTH 24 0
BBX 24 24 0 0
BITMAP
0000
0000
0000
0000
0000
0000
0000
0000
0000
0000
0000
FFFFFF
1800
1800
1800
1800
1800
1800
1800
1800
1800
1800
1800
1800
ENDCHAR
STARTCHAR 9521
ENCODING 9521
SWIDTH 1000 1000
DWIDTH 24 0
BBX 24 24 0 0
BITMAP
0000
0000
0000
0000
0000
0000
0000
0000
0000
0000
0000
FFFFFF
FFF800
1800
1800
1800
1800
1800
1800
1800
1800
1800
1800
1800
ENDCHAR
STARTCHAR 9522
ENCODING 9522
SWIDTH 1000 1000
DWIDTH 24 0
BBX 24 24 0 0
BITMAP
0000
0000
0000
0000
0000
0000
0000
0000
0000
0000
0000
FFFFFF
1FFF
1800
1800
1800
1800
1800
1800
1800
1800
1800
1800
1800
ENDCHAR
STARTCHAR 9523
ENCODING 9523
SWIDTH 1000 1000
DWIDTH 24 0
BBX 24 24 0 0
BITMAP
0000
0000
0000
0000
0000
0000
0000
0000
0000
0000
0000
FFFFFF
FFFFFF
1800
1800
1800
1800
1800
1800
1800
1800
1800
1800
1800
ENDCHAR
STARTCHAR 9524
ENCODING 9524
SWIDTH 1000 1000
DWIDTH 24 0
BBX 24 24 0 0
BITMAP
1000
1000
1000
1000
1000
1000
1000
1000
1000
1000
1000
FFFFFF
0000
0000
0000
0000
0000
0000
0000
0000
0000
0000
0000
0000
ENDCHAR
STARTCHAR 9525
ENCODING 9525
SWIDTH 1000 1000
DWIDTH 24 0
BBX 24 24 0 0
BITMAP
1000
1000
1000
1000
1000
1000
1000
1000
1000
1000
1000
FFFFFF
FFF000
0000
0000
0000
0000
0000
0000
0000
0000
0000
0000
0000
ENDCHAR
STARTCHAR 9526
ENCODING 9526
SWIDTH 1000 1000
DWIDTH 24 0
BBX 24 24 0 0
BITMAP
1000
1000
1000
1000
1000
1000
1000
1000
1000
1000
1000
FFFFFF
1FFF
0000
0000
0000
0000
0000
0000
0000
0000
0000
0000
0000
ENDCHAR
STARTCHAR 9527
ENCODING 9527
SWIDTH 1000 1000
DWIDTH 24 0
BBX 24 24 0 0
BITMAP
1000
1000
1000
1000
1000
1000
1000
1000
1000
1000
1000
FFFFFF
FFFFFF
0000
0000
0000
0000
0000
0000
0000
0000
0000
0000
0000
ENDCHAR
STARTCHAR 9528
ENCODING 9528
SWIDTH 1000 1000
DWIDTH 24 0
BBX 24 24 0 0
BITMAP
1800
1800
1800
1800
1800
1800
1800
1800
1800
1800
1800
FFFFFF
0000
0000
0000
0000
0000
0000
0000
0000
0000
0000
0000
0000
ENDCHAR
STARTCHAR 9529
ENCODING 9529
SWIDTH 1000 1000
DWIDTH 24 0
BBX 24 24 0 0
BITMAP
1800
1800
1800
1800
1800
1800
1800
1800
1800
1800
1800
FFFFFF
FFF800
0000
0000
0000
0000
0000
0000
0000
0000
0000
0000
0000
ENDCHAR
STARTCHAR 9530
ENCODING 9530
SWIDTH 1000 1000
DWIDTH 24 0
BBX 24 24 0 0
BITMAP
1800
1800
1800
1800
1800
1800
1800
1800
1800
1800
1800
FFFFFF
1FFF
0000
0000
0000
0000
0000
0000
0000
0000
0000
0000
0000
ENDCHAR
STARTCHAR 9531
ENCODING 9531
SWIDTH 1000 1000
DWIDTH 24 0
BBX 24 24 0 0
BITMAP
1800
1800
1800
1800
1800
1800
1800
1800
1800
1800
1800
FFFFFF
FFFFFF
0000
0000
0000
0000
0000
0000
0000
0000
0000
0000
0000
ENDCHAR
STARTCHAR 9532
ENCODING 9532
SWIDTH 1000 1000
DWIDTH 24 0
BBX 24 24 0 0
BITMAP
1000
1000
1000
1000
1000
1000
1000
1000
1000
1000
1000
FFFFFF
1000
1000
1000
1000
1000
1000
1000
1000
1000
1000
1000
1000
ENDCHAR
STARTCHAR 9533
ENCODING 9533
SWIDTH 1000 1000
DWIDTH 24 0
BBX 24 24 0 0
BITMAP
1000
1000
1000
1000
1000
1000
1000
1000
1000
1000
1000
FFFFFF
FFF000
1000
1000
1000
1000
1000
1000
1000
1000
1000
1000
1000
ENDCHAR
STARTCHAR 9534
ENCODING 9534
SWIDTH 1000 1000
DWIDTH 24 0
BBX 24 24 0 0
BITMAP
1000
1000
1000
1000
1000
1000
1000
1000
1000
1000
1000
FFFFFF
1FFF
1000
1000
1000
1000
1000
1000
1000
1000
1000
1000
1000
ENDCHAR
STARTCHAR 9535
ENCODING 9535
SWIDTH 1000 1000
DWIDTH 24 0
BBX 24 24 0 0
BITMAP
1000
1000
1000
1000
1000
1000
1000
1000
1000
1000
1000
FFFFFF
FFFFFF
1000
1000
1000
1000
1000
1000
1000
1000
1000
1000
1000
ENDCHAR
STARTCHAR 9536
ENCODING 9536
SWIDTH 1000 1000
DWIDTH 24 0
BBX 24 24 0 0
BITMAP
1800
1800
1800
1800
1800
1800
1800
1800
1800
1800
1800
FFFFFF
1000
1000
1000
1000
1000
1000
1000
1000
1000
1000
1000
1000
ENDCHAR
STARTCHAR 9537
ENCODING 9537
SWIDTH 1000 1000
DWIDTH 24 0
BBX 24 24 0 0
BITMAP
1000
1000
1000
1000
1000
1000
1000
1000
1000
1000
1000
FFFFFF
1800
1800
1800
1800
1800
1800
1800
1800
1800
1800
1800
1800
ENDCHAR
STARTCHAR 9538
ENCODING 9538
SWIDTH 1000 1000
DWIDTH 24 0
BBX 24 24 0 0
BITMAP
1800
1800
1800
1800
1800
1800
1800
1800
1800
1800
1800
FFFFFF
1800
1800
1800
1800
1800
1800
1800
1800
1800
1800
1800
1800
ENDCHAR
STARTCHAR 9539
ENCODING 9539
SWIDTH 1000 1000
DWIDTH 24 0
BBX 24 24 0 0
BITMAP
1800
1800
1800
1800
1800
1800
1800
1800
1800
1800
1800
FFFFFF
FFF000
1000
1000
1000
1000
1000
1000
1000
1000
1000
1000
1000
ENDCHAR
STARTCHAR 9540
ENCODING 9540
SWIDTH 1000 1000
DWIDTH 24 0
BBX 24 24 0 0
BITMAP
1800
1800
1800
1800
1800
1800
1800
1800
1800
1800
1800
FFFFFF
1FFF
1000
1000
1000
1000
1000
1000
1000
1000
1000
1000
1000
ENDCHAR
STARTCHAR 9541
ENCODING 9541
SWIDTH 1000 1000
DWIDTH 24 0
BBX 24 24 0 0
BITMAP
1000
1000
1000
1000
1000
1000
1000
1000
1000
1000
1000
FFFFFF
FFF800
1800
1800
1800
1800
1800
1800
1800
1800
1800
1800
1800
ENDCHAR
STARTCHAR 9542
ENCODING 9542
SWIDTH 1000 1000
DWIDTH 24 0
BBX 24 24 0 0
BITMAP
1000
1000
1000
1000
1000
1000
1000
1000
1000
1000
1000
FFFFFF
1FFF
1800
1800
1800
1800
1800
1800
1800
1800
1800
1800
1800
ENDCHAR
STARTCHAR 9543
ENCODING 9543
SWIDTH 1000 1000
DWIDTH 24 0
BBX 24 24 0 0
BITMAP
1800
1800
1800
1800
1800
1800
1800
1800
1800
1800
1800
FFFFFF
FFFFFF
1000
1000
1000
1000
1000
1000
1000
1000
1000
1000
1000
ENDCHAR
STARTCHAR 9544
ENCODING 9544
SWIDTH 1000 1000
DWIDTH 24 0
BBX 24 24 0 0
BITMAP
1000
1000
1000
1000
1000
1000
1000
1000
1000
1000
1000
FFFFFF
FFFFFF
1800
1800
1800
1800
1800
1800
1800
1800
1800
1800
1800
ENDCHAR
STARTCHAR 9545
ENCODING 9545
SWIDTH 1000 1000
DWIDTH 24 0
BBX 24 24 0 0
BITMAP
1800
1800
1800
1800
1800
1800
1800
1800
1800
1800
1800
FFFFFF
FFF800
1800
1800
1800
1800
1800
1800
1800
1800
1800
1800
1800
ENDCHAR
STARTCHAR 9546
ENCODING 9546
SWIDTH 1000 1000
DWIDTH 24 0
BBX 24 24 0 0
BITMAP
1800
1800
1800
1800
1800
1800
1800
1800
1800
1800
1800
FFFFFF
1FFF
1800
1800
1800
1800
1800
1800
1800
1800
1800
1800
1800
ENDCHAR
STARTCHAR 9547
ENCODING 9547
SWIDTH 1000 1000
DWIDTH 24 0
BBX 24 24 0 0
BITMAP
1800
1800
1800
1800
1800
1800
1800
1800
1800
1800
1800
FFFFFF
FFFFFF
1800
1800
1800
1800
1800
1800
1800
1800
1800
1800
1800
ENDCHAR
STARTCHAR 9632
ENCODING 9632
SWIDTH 1000 1000
DWIDTH 24 0
BBX 24 24 0 0
BITMAP
0000
0000
3FFFFC
3FFFFC
3FFFFC
3FFFFC
3FFFFC
3FFFFC
3FFFFC
3FFFFC
3FFFFC
3FFFFC
3FFFFC
3FFFFC
3FFFFC
3FFFFC
3FFFFC
3FFFFC
3FFFFC
3FFFFC
3FFFFC
3FFFFC
0000
0000
ENDCHAR
STARTCHAR 9633
ENCODING 9633
SWIDTH 1000 1000
DWIDTH 24 0
BBX 24 24 0 0
BITMAP
0000
0000
3FFFFC
200004
200004
200004
200004
200004
200004
200004
200004
200004
200004
200004
200004
200004
200004
200004
200004
200004
200004
3FFFFC
0000
0000
ENDCHAR
STARTCHAR 9650
ENCODING 9650
SWIDTH 1000 1000
DWIDTH 24 0
BBX 24 24 0 0
BITMAP
0000
0000
1800
3C00
3C00
7E00
7E00
FF00
FF00
1FF80
1FF80
3FFC0
3FFC0
7FFE0
7FFE0
FFFF0
FFFF0
1FFFF8
1FFFF8
3FFFFC
3FFFFC
0000
0000
0000
ENDCHAR
STARTCHAR 9651
ENCODING 9651
SWIDTH 1000 1000
DWIDTH 24 0
BBX 24 24 0 0
BITMAP
0000
0000
1800
2400
2400
4200
4200
8100
8100
10080
10080
20040
20040
40020
40020
80010
80010
100008
100008
200004
3FFFFC
0000
0000
0000
ENDCHAR
STARTCHAR 9670
ENCODING 9670
SWIDTH 1000 1000
DWIDTH 24 0
BBX 24 24 0 0
BITMAP
1000
3800
7C00
FE00
1FF00
3FF80
7FFC0
FFFE0
1FFFF0
3FFFF8
7FFFFC
FFFFFE
7FFFFC
3FFFF8
1FFFF0
FFFE0
7FFC0
3FF80
1FF00
FE00
7C00
3800
1000
0000
ENDCHAR
STARTCHAR 9671
ENCODING 9671
SWIDTH 1000 1000
DWIDTH 24 0
BBX 24 24 0 0
BITMAP
1000
2800
4400
8200
10100
20080
40040
80020
100010
200008
400004
800002
400004
200008
100010
80020
40040
20080
10100
8200
4400
2800
1000
0000
ENDCHAR
STARTCHAR 9675
ENCODING 9675
SWIDTH 1000 1000
DWIDTH 24 0
BBX 24 24 0 0
BITMAP
0000
7E00
18180
60060
80010
100008
100008
200004
200004
400002
400002
400002
400002
400002
400002
200004
200004
100008
100008
80010
60060
18180
7E00
0000
ENDCHAR
STARTCHAR 9678
ENCODING 9678
SWIDTH 1000 1000
DWIDTH 24 0
BBX 24 24 0 0
BITMAP
0000
0000
7E00
18180
60060
87E10
98190
120048
120048
240024
240024
240024
240024
240024
240024
120048
120048
98190
87E10
60060
18180
7E00
0000
0000
ENDCHAR
STARTCHAR 9679
ENCODING 9679
SWIDTH 1000 1000
DWIDTH 24 0
BBX 24 24 0 0
BITMAP
0000
0000
7E00
1FF80
7FFE0
FFFF0
FFFF0
1FFFF8
1FFFF8
3FFFFC
3FFFFC
3FFFFC
3FFFFC
3FFFFC
3FFFFC
1FFFF8
1FFFF8
FFFF0
FFFF0
7FFE0
1FF80
7E00
0000
0000
ENDCHAR
STARTCHAR 9733
ENCODING 9733
SWIDTH 1000 1000
DWIDTH 24 0
BBX 24 24 0 0
BITMAP
0000
1000
1000
3800
3800
3800
7C00
7C00
7C00
FFFFFE
7FFFFC
1FFFF0
FFFE0
3FF80
1FF00
3FF80
3FF80
3FF80
7EFC0
783C0
701C0
C0060
80020
0000
ENDCHAR
STARTCHAR 9734
ENCODING 9734
SWIDTH 1000 1000
DWIDTH 24 0
BBX 24 24 0 0
BITMAP
0000
1000
1000
2800
2800
2800
4400
4400
4400
FF83FE
60000C
100010
C0060
20080
10100
20080
20080
21080
46C40
48240
701C0
C0060
80020
0000
ENDCHAR
STARTCHAR 9792
ENCODING 9792
SWIDTH 1000 1000
DWIDTH 24 0
BBX 24 24 0 0
BITMAP
0000
0000
7C00
8200
10100
10100
10100
10100
10100
8200
7C00
1000
1000
1000
1000
FFFE0
1000
1000
1000
1000
1000
1000
1000
0000
ENDCHAR
STARTCHAR 9794
ENCODING 9794
SWIDTH 1000 1000
DWIDTH 24 0
BBX 24 24 0 0
BITMAP
0000
1000
3800
5400
9200
11100
21080
1000
1000
1000
1000
1000
1000
7C00
8200
10100
10100
10100
10100
10100
8200
7C00
0000
0000
ENDCHAR
STARTCHAR 12288
ENCODING 12288
SWIDTH 1000 1000
DWIDTH 24 0
BBX 24 24 0 0
BITMAP
0000
0000
0000
0000
0000
0000
0000
0000
0000
0000
0000
0000
0000
0000
0000
0000
0000
0000
0000
0000
0000
0000
0000
0000
ENDCHAR
STARTCHAR 12289
ENCODING 12289
SWIDTH 1000 1000
DWIDTH 24 0
BBX 24 24 0 0
BITMAP
0000
0000
0000
0000
0000
0000
0000
0000
0000
0000
0000
0000
0000
0000
0000
100000
C0000
70000
38000
18000
18000
0000
0000
0000
ENDCHAR
STARTCHAR 12290
ENCODING 12290
SWIDTH 1000 1000
DWIDTH 24 0
BBX 24 24 0 0
BITMAP
0000
0000
0000
0000
0000
0000
0000
0000
0000
0000
0000
0000
0000
0000
70000
88000
104000
104000
104000
88000
70000
0000
0000
0000
ENDCHAR
STARTCHAR 12291
ENCODING 12291
SWIDTH 1000 1000
DWIDTH 24 0
BBX 24 24 0 0
BITMAP
0000
0000
0000
0000
0000
0000
0000
0000
4100
E380
C300
18600
18600
30C00
30C00
61800
41000
0000
0000
0000
0000
0000
0000
0000
ENDCHAR
STARTCHAR 12293
ENCODING 12293
SWIDTH 1000 1000
DWIDTH 24 0
BBX 24 24 0 0
BITMAP
0000
0000
4000
7000
6000
C000
C060
1FFF0
18060
300C0
600C0
40180
80180
110300
8600
6400
3800
1C00
0E00
0700
0300
0200
0000
0000
ENDCHAR
STARTCHAR 12296
ENCODING 12296
SWIDTH 1000 1000
DWIDTH 24 0
BBX 24 24 0 0
BITMAP
0000
0010
0010
0020
0020
0040
0040
0080
0080
0100
0100
0200
0200
0100
0100
0080
0080
0040
0040
0020
0020
0010
0010
0000
ENDCHAR
STARTCHAR 12297
ENCODING 12297
SWIDTH 1000 1000
DWIDTH 24 0
BBX 24 24 0 0
BITMAP
0000
80000
80000
40000
40000
20000
20000
10000
10000
8000
8000
4000
4000
8000
8000
10000
10000
20000
20000
40000
40000
80000
80000
0000
ENDCHAR
STARTCHAR 12298
ENCODING 12298
SWIDTH 1000 1000
DWIDTH 24 0
BBX 24 24 0 0
BITMAP
0000
0012
0012
0024
0024
0048
0048
0090
0090
0120
0120
0240
0240
0120
0120
0090
0090
0048
0048
0024
0024
0012
0012
0000
ENDCHAR
STARTCHAR 12299
ENCODING 12299
SWIDTH 1000 1000
DWIDTH 24 0
BBX 24 24 0 0
BITMAP
0000
480000
480000
240000
240000
120000
120000
90000
90000
48000
48000
24000
24000
48000
48000
90000
90000
120000
120000
240000
240000
480000
480000
0000
ENDCHAR
STARTCHAR 12300
ENCODING 12300
SWIDTH 1000 1000
DWIDTH 24 0
BBX 24 24 0 0
BITMAP
0000
01FC
0100
0100
0100
0100
0100
0100
0100
0100
0100
0100
0100
0100
0100
0100
0100
0100
0100
0100
0000
0000
0000
0000
ENDCHAR
STARTCHAR 12301
ENCODING 12301
SWIDTH 1000 1000
DWIDTH 24 0
BBX 24 24 0 0
BITMAP
0000
0000
0000
0000
8000
8000
8000
8000
8000
8000
8000
8000
8000
8000
8000
8000
8000
8000
8000
8000
8000
8000
3F8000
0000
ENDCHAR
STARTCHAR 12302
ENCODING 12302
SWIDTH 1000 1000
DWIDTH 24 0
BBX 24 24 0 0
BITMAP
0000
03FC
0204
0204
027C
0240
0240
0240
0240
0240
0240
0240
0240
0240
0240
0240
0240
0240
0240
03C0
0000
0000
0000
0000
ENDCHAR
STARTCHAR 12303
ENCODING 12303
SWIDTH 1000 1000
DWIDTH 24 0
BBX 24 24 0 0
BITMAP
0000
0000
0000
0000
3C000
24000
24000
24000
24000
24000
24000
24000
24000
24000
24000
24000
24000
24000
24000
3E4000
204000
204000
3FC000
0000
ENDCHAR
STARTCHAR 12304
ENCODING 12304
SWIDTH 1000 1000
DWIDTH 24 0
BBX 24 24 0 0
BITMAP
0000
03FC
03F8
03F0
03F0
03F0
03E0
03E0
03E0
03C0
03C0
03C0
03C0
03C0
03C0
03E0
03E0
03E0
03F0
03F0
03F0
03F8
03FC
0000
ENDCHAR
STARTCHAR 12305
ENCODING 12305
SWIDTH 1000 1000
DWIDTH 24 0
BBX 24 24 0 0
BITMAP
0000
3FC000
1FC000
FC000
FC000
FC000
7C000
7C000
7C000
3C000
3C000
3C000
3C000
3C000
3C000
7C000
7C000
7C000
FC000
FC000
FC000
1FC000
3FC000
0000
ENDCHAR
STARTCHAR 12307
ENCODING 12307
SWIDTH 1000 1000
DWIDTH 24 0
BBX 24 24 0 0
BITMAP
0000
0000
3FFFFC
3FFFFC
3FFFFC
3FFFFC
3FFFFC
3FFFFC
3FFFFC
0000
0000
0000
0000
0000
0000
3FFFFC
3FFFFC
3FFFFC
3FFFFC
3FFFFC
3FFFFC
3FFFFC
0000
0000
ENDCHAR
STARTCHAR 12308
ENCODING 12308
SWIDTH 1000 1000
DWIDTH 24 0
BBX 24 24 0 0
BITMAP
0000
0010
0020
0040
0080
0080
0080
0080
0080
0080
0080
0080
0080
0080
0080
0080
0080
0080
0080
0080
0040
0020
0010
0000
ENDCHAR
STARTCHAR 12309
ENCODING 12309
SWIDTH 1000 1000
DWIDTH 24 0
BBX 24 24 0 0
BITMAP
0000
80000
40000
20000
10000
10000
10000
10000
10000
10000
10000
10000
10000
10000
10000
10000
10000
10000
10000
10000
20000
40000
80000
0000
ENDCHAR
STARTCHAR 12310
ENCODING 12310
SWIDTH 1000 1000
DWIDTH 24 0
BBX 24 24 0 0
BITMAP
0000
03FC
0208
0210
0210
0210
0220
0220
0220
0240
0240
0240
0240
0240
0240
0220
0220
0220
0210
0210
0210
0208
03FC
0000
ENDCHAR
STARTCHAR 12311
ENCODING 12311
SWIDTH 1000 1000
DWIDTH 24 0
BBX 24 24 0 0
BITMAP
0000
3FC000
104000
84000
84000
84000
44000
44000
44000
24000
24000
24000
24000
24000
24000
44000
44000
44000
84000
84000
84000
104000
3FC000
0000
ENDCHAR
STARTCHAR 12353
ENCODING 12353
SWIDTH 1000 1000
DWIDTH 24 0
BBX 24 24 0 0
BITMAP
0000
0000
0000
C000
6000
6000
6600
7F00
7E000
36400
6200
7E00
1E300
36580
264C0
468C0
470C0
7E080
36080
2100
0200
0000
0000
0000
ENDCHAR
STARTCHAR 12354
ENCODING 12354
SWIDTH 1000 1000
DWIDTH 24 0
BBX 24 24 0 0
BITMAP
0000
0000
6000
7000
3000
3080
6780
7FF00
36000
6400
6600
6200
FF80
1E6E0
66460
C6C30
C7830
83030
86030
FB060
730C0
0380
0000
0000
ENDCHAR
STARTCHAR 12355
ENCODING 12355
SWIDTH 1000 1000
DWIDTH 24 0
BBX 24 24 0 0
BITMAP
0000
0000
0000
0000
0000
0000
18000
C100
C080
18040
10160
300E0
21040
21000
32000
16000
1C000
C000
0000
0000
0000
0000
0000
0000
ENDCHAR
STARTCHAR 12356
ENCODING 12356
SWIDTH 1000 1000
DWIDTH 24 0
BBX 24 24 0 0
BITMAP
0000
0000
0000
0000
0000
60000
30000
30100
300C0
30060
20030
60030
400F0
40830
41000
63000
26000
36000
1C000
C000
0000
0000
0000
0000
ENDCHAR
STARTCHAR 12357
ENCODING 12357
SWIDTH 1000 1000
DWIDTH 24 0
BBX 24 24 0 0
BITMAP
0000
0000
0000
0000
6000
1000
1800
2000
0000
3C00
3E600
18300
0300
0300
0300
0600
0600
0C00
3000
C000
0000
0000
0000
0000
ENDCHAR
STARTCHAR 12358
ENCODING 12358
SWIDTH 1000 1000
DWIDTH 24 0
BBX 24 24 0 0
BITMAP
0000
0000
0000
C000
3C00
1C00
3000
4000
0000
41E00
3F300
18180
0180
0180
0180
0180
0300
0300
0600
0C00
3000
C000
0000
0000
ENDCHAR
STARTCHAR 12359
ENCODING 12359
SWIDTH 1000 1000
DWIDTH 24 0
BBX 24 24 0 0
BITMAP
0000
0000
0000
4000
3C00
1C00
1000
2000
0E00
3E00
1EC00
C800
1000
2000
4000
F000
C800
18800
30FE0
207E0
0000
0000
0000
0000
ENDCHAR
STARTCHAR 12360
ENCODING 12360
SWIDTH 1000 1000
DWIDTH 24 0
BBX 24 24 0 0
BITMAP
0000
0000
4000
3800
1800
1000
2000
0600
3F00
3E600
1CC00
1000
2000
4000
8000
1F000
18800
30800
60800
60FF0
C07F0
0000
0000
0000
ENDCHAR
STARTCHAR 12361
ENCODING 12361
SWIDTH 1000 1000
DWIDTH 24 0
BBX 24 24 0 0
BITMAP
0000
0000
0000
0000
C000
6180
6060
7830
FC30
7E040
36600
7980
60C0
1E060
26060
66060
768C0
2E700
6000
0000
0000
0000
0000
0000
ENDCHAR
STARTCHAR 12362
ENCODING 12362
SWIDTH 1000 1000
DWIDTH 24 0
BBX 24 24 0 0
BITMAP
0000
0000
0000
10000
C000
C0C0
C030
F018
FF818
7C020
C700
F8C0
C060
C030
3C030
6C030
CD060
ED0C0
5CF80
C000
0000
0000
0000
0000
ENDCHAR
STARTCHAR 12363
ENCODING 12363
SWIDTH 1000 1000
DWIDTH 24 0
BBX 24 24 0 0
BITMAP
0000
0000
0000
0000
7000
3000
3000
3000
60C0
7C30
1FC618
F8618
18678
10418
30C00
20C00
69800
C7800
1C7000
182000
0000
0000
0000
0000
ENDCHAR
STARTCHAR 12364
ENCODING 12364
SWIDTH 1000 1000
DWIDTH 24 0
BBX 24 24 0 0
BITMAP
0000
0000
0000
0038
700C
38E4
3030
3010
60C0
7C30
1FC618
F8618
18678
10418
30C00
20C00
69800
C7800
1C7000
182000
0000
0000
0000
0000
ENDCHAR
STARTCHAR 12365
ENCODING 12365
SWIDTH 1000 1000
DWIDTH 24 0
BBX 24 24 0 0
BITMAP
0000
0000
C000
1E000
6000
3300
3FF80
1D800
0C00
0660
1FF0
7F300
3C180
0180
3FC0
C080
10000
10000
10000
FF00
3F00
0000
0000
0000
ENDCHAR
STARTCHAR 12366
ENCODING 12366
SWIDTH 1000 1000
DWIDTH 24 0
BBX 24 24 0 0
BITMAP
0000
0000
18038
3C00C
C0E4
6630
7FF10
3B000
1800
0CC0
3FE0
FE600
78300
0300
7F80
18100
20000
20000
20000
1FE00
7E00
0000
0000
0000
ENDCHAR
STARTCHAR 12367
ENCODING 12367
SWIDTH 1000 1000
DWIDTH 24 0
BBX 24 24 0 0
BITMAP
0000
0000
0C00
0600
0700
0E00
1C00
1800
3000
6000
4000
C000
8000
C000
6000
3000
1800
1C00
0E00
0700
0300
0000
0000
0000
ENDCHAR
STARTCHAR 12368
ENCODING 12368
SWIDTH 1000 1000
DWIDTH 24 0
BBX 24 24 0 0
BITMAP
0000
0000
1800
0C70
0E18
1C08
38E0
3030
6010
C000
8000
18000
10000
18000
C000
6000
3000
3800
1C00
0E00
0600
0000
0000
0000
ENDCHAR
STARTCHAR 12369
ENCODING 12369
SWIDTH 1000 1000
DWIDTH 24 0
BBX 24 24 0 0
BITMAP
0000
0000
0300
601C0
30180
30180
30180
201F8
61FFC
40F80
40180
40180
48180
48180
50180
50180
70180
30300
30300
0600
0C00
1000
0000
0000
ENDCHAR
STARTCHAR 12370
ENCODING 12370
SWIDTH 1000 1000
DWIDTH 24 0
BBX 24 24 0 0
BITMAP
0000
0038
060C
C0364
60330
70310
60300
603F0
43FF8
41F00
80300
80300
90300
90300
A0300
A0300
E0300
60600
60600
0C00
1800
2000
0000
0000
ENDCHAR
STARTCHAR 12371
ENCODING 12371
SWIDTH 1000 1000
DWIDTH 24 0
BBX 24 24 0 0
BITMAP
0000
0000
0000
0000
4000
3F80
0780
0E00
1000
0000
0000
0000
10000
20000
20000
20000
20000
1C3C0
FFC0
3F00
0000
0000
0000
0000
ENDCHAR
STARTCHAR 12372
ENCODING 12372
SWIDTH 1000 1000
DWIDTH 24 0
BBX 24 24 0 0
BITMAP
0000
0000
0000
000C
8066
7F32
0F10
1C00
2000
0000
0000
0000
20000
40000
40000
40000
40000
38780
1FF80
7E00
0000
0000
0000
0000
ENDCHAR
STARTCHAR 12373
ENCODING 12373
SWIDTH 1000 1000
DWIDTH 24 0
BBX 24 24 0 0
BITMAP
0000
0000
0000
7000
CC00
6300
3300
1F00
1FC00
F600
0300
0180
0FC0
71C0
8000
10000
10000
10000
18000
FF00
7F00
0000
0000
0000
ENDCHAR
STARTCHAR 12374
ENCODING 12374
SWIDTH 1000 1000
DWIDTH 24 0
BBX 24 24 0 0
BITMAP
0000
0000
0000
0070
E018
198C8
8660
C620
7C00
7F000
3DC00
0600
0300
1FF80
20380
40000
40000
40000
40000
3FE00
1FE00
0000
0000
0000
ENDCHAR
STARTCHAR 12375
ENCODING 12375
SWIDTH 1000 1000
DWIDTH 24 0
BBX 24 24 0 0
BITMAP
0000
0000
0000
0000
18000
E000
C000
C000
C000
C000
C000
C000
C000
8000
8020
8060
81C0
8380
FE00
7C00
0000
0000
0000
0000
ENDCHAR
STARTCHAR 12376
ENCODING 12376
SWIDTH 1000 1000
DWIDTH 24 0
BBX 24 24 0 0
BITMAP
0000
0000
0000
0000
30700
18180
1DC80
18600
18200
18000
10000
10000
10000
10000
10020
100C0
10380
10700
FC00
3800
0000
0000
0000
0000
ENDCHAR
STARTCHAR 12377
ENCODING 12377
SWIDTH 1000 1000
DWIDTH 24 0
BBX 24 24 0 0
BITMAP
0000
0000
1800
0E00
0C00
0C00
0DE0
18FFF0
FCC00
60C00
0C00
3C00
4C00
8600
8600
7E00
3C00
0800
1800
3000
6000
8000
0000
0000
ENDCHAR
STARTCHAR 12378
ENCODING 12378
SWIDTH 1000 1000
DWIDTH 24 0
BBX 24 24 0 0
BITMAP
0000
001C
3006
1C72
1818
1808
1BC0
18FFE0
FD800
61800
1800
7800
9800
10C00
10C00
FC00
6800
1000
3000
6000
C000
10000
0000
0000
ENDCHAR
STARTCHAR 12379
ENCODING 12379
SWIDTH 1000 1000
DWIDTH 24 0
BBX 24 24 0 0
BITMAP
0000
0000
0000
0000
0380
181C0
3C180
C180
C3F0
FFF8
1FC180
EC180
CD80
C700
4200
4000
6000
3FC0
0FC0
0000
0000
0000
0000
0000
ENDCHAR
STARTCHAR 12380
ENCODING 12380
SWIDTH 1000 1000
DWIDTH 24 0
BBX 24 24 0 0
BITMAP
0000
0000
0038
000C
0264
0330
18190
3C180
C180
C7E0
FFF0
1FC180
EC180
CD80
C700
C200
4000
4000
6000
3FC0
0FC0
0000
0000
0000
ENDCHAR
STARTCHAR 12381
ENCODING 12381
SWIDTH 1000 1000
DWIDTH 24 0
BBX 24 24 0 0
BITMAP
0000
0000
0E00
21300
3E300
1C700
0C00
1800
2000
C000
101C0
23FE0
7FE00
70800
1000
2000
2000
2000
1800
1F80
0F80
0000
0000
0000
ENDCHAR
STARTCHAR 12382
ENCODING 12382
SWIDTH 1000 1000
DWIDTH 24 0
BBX 24 24 0 0
BITMAP
0000
0000
0000
1C38
4260C
7C6E4
38E30
1810
3000
4000
18000
20380
47FC0
FFC00
E1000
2000
4000
4000
4000
3000
3F00
1F00
0000
0000
ENDCHAR
STARTCHAR 12383
ENCODING 12383
SWIDTH 1000 1000
DWIDTH 24 0
BBX 24 24 0 0
BITMAP
0000
0000
0000
E000
7000
6000
6000
7C00
7F1E0
3C070
C030
180C0
18000
10000
30000
21000
62000
63000
C1FE0
C0FE0
0000
0000
0000
0000
ENDCHAR
STARTCHAR 12384
ENCODING 12384
SWIDTH 1000 1000
DWIDTH 24 0
BBX 24 24 0 0
BITMAP
0000
0000
0038
E00C
7004
60E0
6030
7C10
7F000
3C3C0
C0E0
18060
18180
10000
30000
21000
62000
63000
C1FE0
C0FE0
0000
0000
0000
0000
ENDCHAR
STARTCHAR 12385
ENCODING 12385
SWIDTH 1000 1000
DWIDTH 24 0
BBX 24 24 0 0
BITMAP
0000
0000
18000
E000
C000
DC00
FE00
1FC000
EC000
C000
18000
18000
18F80
1B8C0
1E060
1C060
18060
8060
00C0
0180
0700
1800
0000
0000
ENDCHAR
STARTCHAR 12386
ENCODING 12386
SWIDTH 1000 1000
DWIDTH 24 0
BBX 24 24 0 0
BITMAP
0000
0000
18038
E00C
C0E4
DC30
FE10
1FC000
EC000
C000
18000
18000
18F80
1B8C0
1E060
1C060
18060
8060
00C0
0180
0700
1800
0000
0000
ENDCHAR
STARTCHAR 12387
ENCODING 12387
SWIDTH 1000 1000
DWIDTH 24 0
BBX 24 24 0 0
BITMAP
0000
0000
0000
0000
0000
0000
0000
0F00
7980
7C0C0
30060
0060
0060
0060
00C0
0180
0600
1800
0000
0000
0000
0000
0000
0000
ENDCHAR
STARTCHAR 12388
ENCODING 12388
SWIDTH 1000 1000
DWIDTH 24 0
BBX 24 24 0 0
BITMAP
0000
0000
0000
0000
0000
0000
1F80
F0C0
138060
1E0030
C0030
0030
0030
0030
0060
00C0
0180
0600
1800
0000
0000
0000
0000
0000
ENDCHAR
STARTCHAR 12389
ENCODING 12389
SWIDTH 1000 1000
DWIDTH 24 0
BBX 24 24 0 0
BITMAP
0000
0000
0038
000C
0004
0070
0018
1F88
F0C0
138060
1E0030
C0030
0030
0030
0030
0060
00C0
0180
0600
1800
0000
0000
0000
0000
ENDCHAR
STARTCHAR 12390
ENCODING 12390
SWIDTH 1000 1000
DWIDTH 24 0
BBX 24 24 0 0
BITMAP
0000
0000
0000
0000
0070
07F8
107F00
FC800
61000
1000
2000
2000
2000
2000
3000
1000
1800
0FE0
07E0
0000
0000
0000
0000
0000
ENDCHAR
STARTCHAR 12391
ENCODING 12391
SWIDTH 1000 1000
DWIDTH 24 0
BBX 24 24 0 0
BITMAP
0000
000C
0066
0032
0010
00C0
0FE0
FE00
1F9000
C2000
2000
4000
4000
4000
4000
6000
2000
3000
1FC0
0FC0
0000
0000
0000
0000
ENDCHAR
STARTCHAR 12392
ENCODING 12392
SWIDTH 1000 1000
DWIDTH 24 0
BBX 24 24 0 0
BITMAP
0000
0000
0000
3000
1C00
1800
1800
1800
1800
1860
1BE0
1F80
6000
C000
8000
10000
10000
10000
FFE0
7FE0
0000
0000
0000
0000
ENDCHAR
STARTCHAR 12393
ENCODING 12393
SWIDTH 1000 1000
DWIDTH 24 0
BBX 24 24 0 0
BITMAP
0000
0000
0000
6070
3818
31C8
3060
3020
3000
30C0
37C0
3F00
C000
18000
10000
20000
20000
20000
1FFC0
FFC0
0000
0000
0000
0000
ENDCHAR
STARTCHAR 12394
ENCODING 12394
SWIDTH 1000 1000
DWIDTH 24 0
BBX 24 24 0 0
BITMAP
0000
0000
0000
1C000
C000
C000
D800
FC80
FE060
78070
181E0
10600
30800
20C00
60C00
C0C00
C0C00
7E00
8F80
89C0
7000
0000
0000
0000
ENDCHAR
STARTCHAR 12395
ENCODING 12395
SWIDTH 1000 1000
DWIDTH 24 0
BBX 24 24 0 0
BITMAP
0000
0000
0000
0000
60000
38000
307E0
31870
300E0
60100
60000
40000
44000
44000
48800
49000
69800
68FF8
387F8
18000
0000
0000
0000
0000
ENDCHAR
STARTCHAR 12396
ENCODING 12396
SWIDTH 1000 1000
DWIDTH 24 0
BBX 24 24 0 0
BITMAP
0000
0000
0000
0000
C000
6000
106700
C78C0
C6040
CE060
56060
66060
46060
EC060
AC060
B83E0
118DE0
19C8F0
1E0998
C0618
0000
0000
0000
0000
ENDCHAR
STARTCHAR 12397
ENCODING 12397
SWIDTH 1000 1000
DWIDTH 24 0
BBX 24 24 0 0
BITMAP
0000
0000
0000
30000
1C000
18000
18000
19F00
1FE180
DC080
180C0
180C0
180C0
300C0
700C0
D00C0
D0080
191FE0
1F21B8
B2118
11E00
0000
0000
0000
ENDCHAR
STARTCHAR 12398
ENCODING 12398
SWIDTH 1000 1000
DWIDTH 24 0
BBX 24 24 0 0
BITMAP
0000
0000
0000
0000
0000
3E00
C980
388E0
60860
61830
C1818
C1018
C3018
C2018
C6030
CC030
78060
300C0
0380
0E00
0000
0000
0000
0000
ENDCHAR
STARTCHAR 12399
ENCODING 12399
SWIDTH 1000 1000
DWIDTH 24 0
BBX 24 24 0 0
BITMAP
0000
0000
0000
0600
60380
30300
30310
643E0
63FC0
61B00
40300
40300
40300
48300
50300
50300
71FC0
723E0
32330
31E00
0000
0000
0000
0000
ENDCHAR
STARTCHAR 12400
ENCODING 12400
SWIDTH 1000 1000
DWIDTH 24 0
BBX 24 24 0 0
BITMAP
0000
0000
001C
0C06
C0732
60618
70608
607C0
47F80
43600
C0600
80600
80600
90600
A0600
A0600
E3F80
E47C0
64660
63C00
0000
0000
0000
0000
ENDCHAR
STARTCHAR 12401
ENCODING 12401
SWIDTH 1000 1000
DWIDTH 24 0
BBX 24 24 0 0
BITMAP
0000
0000
0000
0C18
C0624
60624
60618
687C0
47F80
43600
40600
80600
80600
90600
A0600
A0600
E3F80
E47C0
64660
63C00
0000
0000
0000
0000
ENDCHAR
STARTCHAR 12402
ENCODING 12402
SWIDTH 1000 1000
DWIDTH 24 0
BBX 24 24 0 0
BITMAP
0000
0000
0000
0000
C0C0
1E0C0
FC0C0
680E0
100B0
10098
2009C
2018C
60100
60100
60300
60300
60200
30E00
39C00
1F000
0000
800000
0000
0000
ENDCHAR
STARTCHAR 12403
ENCODING 12403
SWIDTH 1000 1000
DWIDTH 24 0
BBX 24 24 0 0
BITMAP
0000
0038
000C
0004
181B0
3C198
1F8188
D01C0
20160
20130
40138
40318
C0200
C0200
C0600
C0600
C0400
61C00
73800
3E000
0000
0000
0000
0000
ENDCHAR
STARTCHAR 12404
ENCODING 12404
SWIDTH 1000 1000
DWIDTH 24 0
BBX 24 24 0 0
BITMAP
0000
0018
0024
0024
18198
3C180
1F8180
D01C0
20160
20130
40138
40318
C0200
C0200
C0600
C0600
C0400
61C00
73800
3E000
0000
0000
0000
0000
ENDCHAR
STARTCHAR 12405
ENCODING 12405
SWIDTH 1000 1000
DWIDTH 24 0
BBX 24 24 0 0
BITMAP
0000
0000
0000
0000
3800
0C00
0C00
1800
2000
4000
6000
3000
1F00
38E0
CC30
210618
360678
3F0618
1CFC00
3800
0000
0000
0000
0000
ENDCHAR
STARTCHAR 12406
ENCODING 12406
SWIDTH 1000 1000
DWIDTH 24 0
BBX 24 24 0 0
BITMAP
0000
0000
00E0
0030
7010
19C0
1860
2020
4000
8000
C000
6000
3E00
71C0
9860
10C30
360CF0
3F0C30
1CF800
7000
0000
0000
0000
0000
ENDCHAR
STARTCHAR 12407
ENCODING 12407
SWIDTH 1000 1000
DWIDTH 24 0
BBX 24 24 0 0
BITMAP
0000
0000
0000
0060
7090
1890
1860
2000
4000
8000
C000
6000
3E00
71C0
9860
10C30
360CF0
3F0C30
1CF800
7000
0000
0000
0000
0000
ENDCHAR
STARTCHAR 12408
ENCODING 12408
SWIDTH 1000 1000
DWIDTH 24 0
BBX 24 24 0 0
BITMAP
0000
0000
0000
0000
0000
0000
0000
18000
3C000
67000
C1C00
3C0F00
1803F0
00FC
001C
0000
0000
0000
0000
0000
0000
0000
0000
0000
ENDCHAR
STARTCHAR 12409
ENCODING 12409
SWIDTH 1000 1000
DWIDTH 24 0
BBX 24 24 0 0
BITMAP
0000
0000
0000
0000
00E0
0030
0390
00C0
18040
3C000
67000
C1C00
3C0F00
1803F0
00FC
001C
0000
0000
0000
0000
0000
0000
0000
0000
ENDCHAR
STARTCHAR 12410
ENCODING 12410
SWIDTH 1000 1000
DWIDTH 24 0
BBX 24 24 0 0
BITMAP
0000
0000
0000
0000
0030
0048
0048
0030
18000
3C000
67000
C1C00
3C0F00
1803F0
00FC
001C
0000
0000
0000
0000
0000
0000
0000
0000
ENDCHAR
STARTCHAR 12411
ENCODING 12411
SWIDTH 1000 1000
DWIDTH 24 0
BBX 24 24 0 0
BITMAP
0000
0000
0000
00C0
23FE0
31F00
30200
60300
603E0
47FF0
43B00
40300
40300
48300
50300
50300
71FE0
32170
32330
31E00
10000
0000
0000
0000
ENDCHAR
STARTCHAR 12412
ENCODING 12412
SWIDTH 1000 1000
DWIDTH 24 0
BBX 24 24 0 0
BITMAP
0000
001C
0006
0032
0198
47FC8
63E00
60400
C0600
C07C0
8FF80
83600
80600
80600
90600
A0600
A0600
E3FC0
642E0
64660
63C00
20000
0000
0000
ENDCHAR
STARTCHAR 12413
ENCODING 12413
SWIDTH 1000 1000
DWIDTH 24 0
BBX 24 24 0 0
BITMAP
0000
0000
0018
0024
0324
47F98
63E00
60400
C0600
C07C0
8FF80
83600
80600
80200
90200
A0200
A0200
E3FC0
642E0
64660
63C00
20000
0000
0000
ENDCHAR
STARTCHAR 12414
ENCODING 12414
SWIDTH 1000 1000
DWIDTH 24 0
BBX 24 24 0 0
BITMAP
0000
0000
1800
0C00
0C00
0C00
20FC0
1FF80
E800
0800
0FE0
7FFC0
3E800
0800
0800
0800
0C00
1FC00
20F00
21F80
23180
1C000
0000
0000
ENDCHAR
STARTCHAR 12415
ENCODING 12415
SWIDTH 1000 1000
DWIDTH 24 0
BBX 24 24 0 0
BITMAP
0000
0000
0000
0000
21000
3FC00
19800
1000
3300
21C0
2180
FD80
34380
C83E0
88330
90618
E0C00
C1800
3000
4000
0000
0000
0000
0000
ENDCHAR
STARTCHAR 12416
ENCODING 12416
SWIDTH 1000 1000
DWIDTH 24 0
BBX 24 24 0 0
BITMAP
0000
0000
0000
18000
C000
CC00
10FC00
1FF800
F80E0
8130
8118
3C178
4C110
CC180
CC180
780C0
100C0
100C0
301C0
1FFC0
FF80
0000
0000
0000
ENDCHAR
STARTCHAR 12417
ENCODING 12417
SWIDTH 1000 1000
DWIDTH 24 0
BBX 24 24 0 0
BITMAP
0000
0000
0000
0C00
0600
30600
18600
19F00
1EDC0
18C60
28830
4D818
4D018
87018
87018
8D818
D8030
70030
60060
00C0
0300
0000
0000
0000
ENDCHAR
STARTCHAR 12418
ENCODING 12418
SWIDTH 1000 1000
DWIDTH 24 0
BBX 24 24 0 0
BITMAP
0000
0000
3000
1800
1C00
1800
11000
F000
7800
7800
1C000
24000
24100
3C080
1F8C0
7C40
4040
40C0
60C0
7180
3F00
1E00
0000
0000
ENDCHAR
STARTCHAR 12419
ENCODING 12419
SWIDTH 1000 1000
DWIDTH 24 0
BBX 24 24 0 0
BITMAP
0000
0000
0000
0000
0000
1C00
C600
13600
18800
C780
5C60
F030
FA230
631E0
18C0
0C00
0600
0600
0300
0300
0000
0000
0000
0000
ENDCHAR
STARTCHAR 12420
ENCODING 12420
SWIDTH 1000 1000
DWIDTH 24 0
BBX 24 24 0 0
BITMAP
0000
0000
0000
0000
1800
0C00
C600
13C00
107E0
9C10
F018
1BC018
F4418
63F0
31E0
1800
1800
0C00
0C00
0600
0600
0000
0000
0000
ENDCHAR
STARTCHAR 12421
ENCODING 12421
SWIDTH 1000 1000
DWIDTH 24 0
BBX 24 24 0 0
BITMAP
0000
0000
0000
0000
0000
1C00
62600
32F80
336C0
62660
64660
4C660
54660
52660
626C0
21C80
0F00
1800
3000
C000
0000
0000
0000
0000
ENDCHAR
STARTCHAR 12422
ENCODING 12422
SWIDTH 1000 1000
DWIDTH 24 0
BBX 24 24 0 0
BITMAP
0000
0000
0000
0C00
C1600
62780
72EE0
63620
44630
CC630
8C630
94630
92630
A2660
62460
61FC0
20F00
1800
3000
6000
18000
0000
0000
0000
ENDCHAR
STARTCHAR 12423
ENCODING 12423
SWIDTH 1000 1000
DWIDTH 24 0
BBX 24 24 0 0
BITMAP
0000
0000
0000
0000
0000
3000
1C00
1800
19C0
1FE0
1800
1800
1800
1800
1800
FC00
11B00
21180
320C0
1C080
0000
0000
0000
0000
ENDCHAR
STARTCHAR 12424
ENCODING 12424
SWIDTH 1000 1000
DWIDTH 24 0
BBX 24 24 0 0
BITMAP
0000
0000
0000
3000
1C00
1C00
1800
1CE0
1FF0
1800
1800
1800
1800
1800
1800
1800
3FF00
41F80
419C0
630C0
3E000
0000
0000
0000
ENDCHAR
STARTCHAR 12425
ENCODING 12425
SWIDTH 1000 1000
DWIDTH 24 0
BBX 24 24 0 0
BITMAP
0000
0000
8000
6000
7000
6000
8000
30000
30000
30000
30000
30000
21F00
27180
240C0
380C0
300C0
100C0
0180
0700
1800
0000
0000
0000
ENDCHAR
STARTCHAR 12426
ENCODING 12426
SWIDTH 1000 1000
DWIDTH 24 0
BBX 24 24 0 0
BITMAP
0000
0000
18000
E000
CE00
D100
A180
A180
C180
C180
C180
C180
C180
4300
0300
0600
0600
0C00
0C00
1800
3000
C000
0000
0000
ENDCHAR
STARTCHAR 12427
ENCODING 12427
SWIDTH 1000 1000
DWIDTH 24 0
BBX 24 24 0 0
BITMAP
0000
0000
0000
0600
1F00
1E600
CC00
1800
1000
2000
4700
D9C0
1E0E0
18060
30060
70060
61C60
22C0
23C0
2700
1C00
0000
0000
0000
ENDCHAR
STARTCHAR 12428
ENCODING 12428
SWIDTH 1000 1000
DWIDTH 24 0
BBX 24 24 0 0
BITMAP
0000
0000
0000
30000
1C000
18000
18700
1D980
1FA180
FC180
18180
38180
38300
30300
70300
D0300
D0304
1D0188
1B01F8
300E0
30000
0000
0000
0000
ENDCHAR
STARTCHAR 12429
ENCODING 12429
SWIDTH 1000 1000
DWIDTH 24 0
BBX 24 24 0 0
BITMAP
0000
0000
0000
0300
11F80
1F700
C400
0800
1800
3700
7F80
60C0
C060
18060
30060
70060
60060
00C0
0180
0F00
3800
0000
0000
0000
ENDCHAR
STARTCHAR 12430
ENCODING 12430
SWIDTH 1000 1000
DWIDTH 24 0
BBX 24 24 0 0
BITMAP
0000
0000
0000
0000
0000
C000
6000
6000
7800
F300
7ECC0
37060
6060
E060
16060
360C0
66080
CE100
6600
4000
0000
0000
0000
0000
ENDCHAR
STARTCHAR 12431
ENCODING 12431
SWIDTH 1000 1000
DWIDTH 24 0
BBX 24 24 0 0
BITMAP
0000
0000
0000
0000
1C000
E000
C000
F000
1E380
FDC60
6E030
C030
1C018
1C018
3C018
2C030
6C030
CC060
19C0C0
8C300
8000
0000
0000
0000
ENDCHAR
STARTCHAR 12432
ENCODING 12432
SWIDTH 1000 1000
DWIDTH 24 0
BBX 24 24 0 0
BITMAP
0000
0000
0000
0000
7000
3F800
1D800
1000
1000
3F80
60C0
1A060
34030
44030
C4030
C8630
C8F30
791E0
711C0
30F80
0000
0000
0000
0000
ENDCHAR
STARTCHAR 12433
ENCODING 12433
SWIDTH 1000 1000
DWIDTH 24 0
BBX 24 24 0 0
BITMAP
0000
0000
0000
0000
13C00
1FC00
D800
1000
7E00
C300
18300
36300
6A600
7C00
8000
10180
787E0
EE830
1C7830
830F0
0030
0000
0000
0000
ENDCHAR
STARTCHAR 12434
ENCODING 12434
SWIDTH 1000 1000
DWIDTH 24 0
BBX 24 24 0 0
BITMAP
0000
0000
2000
3000
3600
3E00
3F800
1E000
C0C0
83E0
1F260
31C60
719C0
61B00
1C00
3800
D800
11800
10000
FF80
7F80
0000
0000
0000
ENDCHAR
STARTCHAR 12435
ENCODING 12435
SWIDTH 1000 1000
DWIDTH 24 0
BBX 24 24 0 0
BITMAP
0000
0000
0000
E000
7000
7000
6000
6000
C000
8000
8000
13800
1CC00
38C00
30C08
60C10
60C20
C0CE0
C0FC0
180700
0000
0000
0000
0000
ENDCHAR
STARTCHAR 12449
ENCODING 12449
SWIDTH 1000 1000
DWIDTH 24 0
BBX 24 24 0 0
BITMAP
0000
0000
0000
0000
0000
0E00
7B00
3E180
18300
0600
3800
1800
1800
1000
3000
2000
6000
4000
8000
10000
0000
0000
0000
0000
ENDCHAR
STARTCHAR 12450
ENCODING 12450
SWIDTH 1000 1000
DWIDTH 24 0
BBX 24 24 0 0
BITMAP
0000
0000
0000
0700
107FC0
FF0E0
700E0
01C0
2300
1C00
1800
1800
1000
3000
3000
6000
4000
C000
18000
10000
20000
0000
0000
0000
ENDCHAR
STARTCHAR 12451
ENCODING 12451
SWIDTH 1000 1000
DWIDTH 24 0
BBX 24 24 0 0
BITMAP
0000
0000
0000
0600
0700
0600
0C00
0C00
1800
3000
7800
D800
11800
21800
1800
1800
1800
1800
1800
1800
0800
0000
0000
0000
ENDCHAR
STARTCHAR 12452
ENCODING 12452
SWIDTH 1000 1000
DWIDTH 24 0
BBX 24 24 0 0
BITMAP
0000
0000
0600
0700
0700
0E00
0C00
1800
3000
7000
D800
19800
31800
61800
81800
1800
1800
1800
1800
1800
1800
0800
0000
0000
ENDCHAR
STARTCHAR 12453
ENCODING 12453
SWIDTH 1000 1000
DWIDTH 24 0
BBX 24 24 0 0
BITMAP
0000
0000
0000
1000
3C00
1800
1980
11FC0
1F980
1C180
18180
18180
0300
0300
0600
0600
0C00
1800
6000
18000
0000
0000
0000
0000
ENDCHAR
STARTCHAR 12454
ENCODING 12454
SWIDTH 1000 1000
DWIDTH 24 0
BBX 24 24 0 0
BITMAP
0000
1000
3800
1C00
1800
1880
21BE0
3FEC0
3E0C0
300C0
300C0
300C0
300C0
0180
0180
0300
0300
0600
0C00
1800
6000
18000
0000
0000
ENDCHAR
STARTCHAR 12455
ENCODING 12455
SWIDTH 1000 1000
DWIDTH 24 0
BBX 24 24 0 0
BITMAP
0000
0000
0000
0000
0000
0000
0000
20700
1FF80
D800
1800
1800
1800
2019E0
1FFFF0
F8010
0000
0000
0000
0000
0000
0000
0000
0000
ENDCHAR
STARTCHAR 12456
ENCODING 12456
SWIDTH 1000 1000
DWIDTH 24 0
BBX 24 24 0 0
BITMAP
0000
0000
0000
0000
0000
0000
40380
3FFC0
1F800
1C00
1C00
1800
1800
1800
203BF8
1FFFFC
F800C
0000
0000
0000
0000
0000
0000
0000
ENDCHAR
STARTCHAR 12457
ENCODING 12457
SWIDTH 1000 1000
DWIDTH 24 0
BBX 24 24 0 0
BITMAP
0000
0000
0000
0000
1800
0E00
0C00
0C00
0DC0
83FE0
7FC00
33C00
6C00
CC00
18C00
20C00
C0C00
7C00
1C00
0800
0000
0000
0000
0000
ENDCHAR
STARTCHAR 12458
ENCODING 12458
SWIDTH 1000 1000
DWIDTH 24 0
BBX 24 24 0 0
BITMAP
0000
0000
0800
1C00
0E00
0C00
0C00
0CE0
103FF0
FFC00
63C00
6C00
6C00
CC00
18C00
30C00
60C00
180C00
7C00
1C00
0800
0000
0000
0000
ENDCHAR
STARTCHAR 12459
ENCODING 12459
SWIDTH 1000 1000
DWIDTH 24 0
BBX 24 24 0 0
BITMAP
0000
0000
0000
0000
1800
0E00
0C00
0C80
40FC0
3FCE0
198C0
18C0
30C0
3180
6180
6180
C300
19300
30E00
C0400
0000
0000
0000
0000
ENDCHAR
STARTCHAR 12460
ENCODING 12460
SWIDTH 1000 1000
DWIDTH 24 0
BBX 24 24 0 0
BITMAP
0000
0000
0038
000C
3004
1C70
1818
1908
81F80
7F9C0
33180
3180
6180
6300
C300
C300
18600
32600
61C00
80800
0000
0000
0000
0000
ENDCHAR
STARTCHAR 12461
ENCODING 12461
SWIDTH 1000 1000
DWIDTH 24 0
BBX 24 24 0 0
BITMAP
0000
0000
0000
1C000
C000
6000
6700
2F80
87C00
7F000
39800
18F0
0DE0
0F00
10FE00
FE600
70300
0300
0180
0180
00C0
00C0
0000
0000
ENDCHAR
STARTCHAR 12462
ENCODING 12462
SWIDTH 1000 1000
DWIDTH 24 0
BBX 24 24 0 0
BITMAP
0000
0000
00E0
0030
38390
180C0
C040
C700
5F00
10F800
FE000
733C0
3780
3C00
10F800
F8C00
60C00
0600
0600
0300
0300
0000
0000
0000
ENDCHAR
STARTCHAR 12463
ENCODING 12463
SWIDTH 1000 1000
DWIDTH 24 0
BBX 24 24 0 0
BITMAP
0000
0000
0000
7000
3800
3000
30C0
7FE0
6EC0
C0C0
C0C0
18180
30180
40300
0300
0600
0C00
1800
3000
6000
18000
60000
0000
0000
ENDCHAR
STARTCHAR 12464
ENCODING 12464
SWIDTH 1000 1000
DWIDTH 24 0
BBX 24 24 0 0
BITMAP
0000
0000
0070
0018
0008
E0E0
7030
6310
FF80
DB00
18300
18300
30600
60600
80C00
0C00
1800
3000
6000
C000
30000
C0000
0000
0000
ENDCHAR
STARTCHAR 12465
ENCODING 12465
SWIDTH 1000 1000
DWIDTH 24 0
BBX 24 24 0 0
BITMAP
0000
0000
0000
3000
3800
3000
6070
67F8
FF80
C180
18300
30300
40300
0600
0600
0C00
0C00
1800
3000
C000
30000
40000
0000
0000
ENDCHAR
STARTCHAR 12466
ENCODING 12466
SWIDTH 1000 1000
DWIDTH 24 0
BBX 24 24 0 0
BITMAP
0000
0000
0038
000C
C064
6030
6010
C0C0
CFE0
1FF00
18300
30600
60600
80600
0C00
0C00
1800
1800
3000
6000
18000
60000
0000
0000
ENDCHAR
STARTCHAR 12467
ENCODING 12467
SWIDTH 1000 1000
DWIDTH 24 0
BBX 24 24 0 0
BITMAP
0000
0000
0000
0000
0000
0000
403C0
3FFE0
1F0C0
00C0
0180
0180
0180
0300
0300
80780
7FFC0
3F000
0000
0000
0000
0000
0000
0000
ENDCHAR
STARTCHAR 12468
ENCODING 12468
SWIDTH 1000 1000
DWIDTH 24 0
BBX 24 24 0 0
BITMAP
0000
0000
0038
000C
0064
0030
0010
207C0
1FFE0
F8C0
00C0
00C0
0180
0180
0300
0300
40780
3FFC0
1F000
0000
0000
0000
0000
0000
ENDCHAR
STARTCHAR 12469
ENCODING 12469
SWIDTH 1000 1000
DWIDTH 24 0
BBX 24 24 0 0
BITMAP
0000
0000
0000
0600
18300
C300
C300
C300
C370
20FFF8
1FF300
EC300
C600
C600
C600
0C00
0C00
1800
3000
6000
18000
0000
0000
0000
ENDCHAR
STARTCHAR 12470
ENCODING 12470
SWIDTH 1000 1000
DWIDTH 24 0
BBX 24 24 0 0
BITMAP
0000
0000
0038
000C
0CE4
30630
18610
18600
18600
186E0
41FFF0
3FE600
1D8600
18C00
18C00
18C00
1800
1800
3000
6000
C000
10000
0000
0000
ENDCHAR
STARTCHAR 12471
ENCODING 12471
SWIDTH 1000 1000
DWIDTH 24 0
BBX 24 24 0 0
BITMAP
0000
0000
0000
C000
7000
3800
1800
1000
0000
0000
6000
3808
1810
1060
00C0
0180
0300
8E00
FC00
7800
2000
0000
0000
0000
ENDCHAR
STARTCHAR 12472
ENCODING 12472
SWIDTH 1000 1000
DWIDTH 24 0
BBX 24 24 0 0
BITMAP
0000
0000
0038
000C
60E4
3830
1C10
0C00
0800
18000
E010
6020
60C0
0180
0300
0600
11C00
1F800
F000
4000
0000
0000
0000
0000
ENDCHAR
STARTCHAR 12473
ENCODING 12473
SWIDTH 1000 1000
DWIDTH 24 0
BBX 24 24 0 0
BITMAP
0000
0000
0000
0000
0000
0180
80FC0
7FB80
3E300
0300
0600
0600
0C00
0C00
1B80
30E0
6070
C030
18020
60000
0000
0000
0000
0000
ENDCHAR
STARTCHAR 12474
ENCODING 12474
SWIDTH 1000 1000
DWIDTH 24 0
BBX 24 24 0 0
BITMAP
0000
0000
0038
000C
00E4
0630
83F10
7EE00
3CC00
0C00
1800
3000
3000
6E00
C380
181C0
300C0
60080
180000
0000
0000
0000
0000
0000
ENDCHAR
STARTCHAR 12475
ENCODING 12475
SWIDTH 1000 1000
DWIDTH 24 0
BBX 24 24 0 0
BITMAP
0000
0000
0000
7000
3800
3000
3000
3000
3030
37F8
FFF38
7B060
30C0
3180
3200
3000
3000
3800
1FF0
0FF0
0000
0000
0000
0000
ENDCHAR
STARTCHAR 12476
ENCODING 12476
SWIDTH 1000 1000
DWIDTH 24 0
BBX 24 24 0 0
BITMAP
0000
0000
0000
0038
000C
E0E4
7030
6010
6000
60C0
106FF0
FFCF0
66180
6300
6400
6000
6000
7000
3FE0
1FE0
0000
0000
0000
0000
ENDCHAR
STARTCHAR 12477
ENCODING 12477
SWIDTH 1000 1000
DWIDTH 24 0
BBX 24 24 0 0
BITMAP
0000
0000
0000
0000
0000
0380
01C0
801C0
60180
30180
38300
18300
10600
0600
0C00
1800
3000
6000
18000
60000
180000
0000
0000
0000
ENDCHAR
STARTCHAR 12478
ENCODING 12478
SWIDTH 1000 1000
DWIDTH 24 0
BBX 24 24 0 0
BITMAP
0000
0000
0038
000C
00E4
0030
0010
0380
01C0
80180
60180
30300
38300
18600
10600
0C00
1800
3000
6000
18000
60000
0000
0000
0000
ENDCHAR
STARTCHAR 12479
ENCODING 12479
SWIDTH 1000 1000
DWIDTH 24 0
BBX 24 24 0 0
BITMAP
0000
0000
0000
7000
3800
3800
3180
7FC0
6D80
C180
8180
1B300
31B00
40700
0780
0D80
1900
3000
6000
18000
60000
0000
0000
0000
ENDCHAR
STARTCHAR 12480
ENCODING 12480
SWIDTH 1000 1000
DWIDTH 24 0
BBX 24 24 0 0
BITMAP
0000
0000
0070
0018
0008
E0E0
7030
6310
FF80
DB00
18300
10300
36600
63600
80E00
0F00
1B00
3200
6000
C000
30000
C0000
0000
0000
ENDCHAR
STARTCHAR 12481
ENCODING 12481
SWIDTH 1000 1000
DWIDTH 24 0
BBX 24 24 0 0
BITMAP
0000
0000
0000
1C00
0E00
1C00
7000
1D800
1800
19F0
7FF8
1FF800
F1800
1800
1800
3000
3000
6000
C000
30000
C0000
0000
0000
0000
ENDCHAR
STARTCHAR 12482
ENCODING 12482
SWIDTH 1000 1000
DWIDTH 24 0
BBX 24 24 0 0
BITMAP
0000
0000
0038
1C0C
0E04
1C70
7018
1D808
1800
19E0
7FF0
1FF800
E1800
1800
1800
3000
3000
6000
C000
30000
C0000
0000
0000
0000
ENDCHAR
STARTCHAR 12483
ENCODING 12483
SWIDTH 1000 1000
DWIDTH 24 0
BBX 24 24 0 0
BITMAP
0000
0000
0000
0000
0000
0000
3000
1980
318E0
190C0
180C0
10180
0300
0600
0C00
1800
3000
C000
30000
0000
0000
0000
0000
0000
ENDCHAR
STARTCHAR 12484
ENCODING 12484
SWIDTH 1000 1000
DWIDTH 24 0
BBX 24 24 0 0
BITMAP
0000
0000
0000
0000
0000
60E0
3870
C1870
71860
310C0
200C0
0180
0180
0300
0600
0C00
1800
6000
18000
60000
0000
0000
0000
0000
ENDCHAR
STARTCHAR 12485
ENCODING 12485
SWIDTH 1000 1000
DWIDTH 24 0
BBX 24 24 0 0
BITMAP
0000
001C
0006
0002
0038
000C
6004
38C0
C1870
71860
310C0
200C0
0180
0180
0300
0600
0C00
1800
6000
18000
0000
0000
0000
0000
ENDCHAR
STARTCHAR 12486
ENCODING 12486
SWIDTH 1000 1000
DWIDTH 24 0
BBX 24 24 0 0
BITMAP
0000
0000
0000
0000
1F80
7FFC0
3E000
0000
03F0
FFF8
1FFC00
F0C00
0C00
1800
1800
3000
3000
6000
C000
18000
30000
C0000
0000
0000
ENDCHAR
STARTCHAR 12487
ENCODING 12487
SWIDTH 1000 1000
DWIDTH 24 0
BBX 24 24 0 0
BITMAP
0000
0000
0070
0018
0008
3E70
7FF18
3C008
0000
07E0
1FFF0
1FF800
E1800
1800
3000
3000
6000
6000
C000
18000
30000
C0000
0000
0000
ENDCHAR
STARTCHAR 12488
ENCODING 12488
SWIDTH 1000 1000
DWIDTH 24 0
BBX 24 24 0 0
BITMAP
0000
0000
0000
7000
3800
3000
3000
3000
3000
3C00
3700
3380
3180
3180
3000
3000
3000
3000
3000
3000
3000
1000
0000
0000
ENDCHAR
STARTCHAR 12489
ENCODING 12489
SWIDTH 1000 1000
DWIDTH 24 0
BBX 24 24 0 0
BITMAP
0000
0000
0000
C1C0
7060
6720
6180
6080
6000
6000
7800
6E00
6700
6300
6300
6000
6000
6000
6000
6000
6000
2000
0000
0000
ENDCHAR
STARTCHAR 12490
ENCODING 12490
SWIDTH 1000 1000
DWIDTH 24 0
BBX 24 24 0 0
BITMAP
0000
0000
0000
3800
1C00
1800
1800
1800
1BF0
1FFFF8
FD800
1800
3000
3000
6000
6000
C000
18000
30000
60000
C0000
100000
0000
0000
ENDCHAR
STARTCHAR 12491
ENCODING 12491
SWIDTH 1000 1000
DWIDTH 24 0
BBX 24 24 0 0
BITMAP
0000
0000
0000
0000
0000
0000
0000
40780
3FFC0
1F800
0000
0000
0000
4007F8
3FFFFC
1FF000
0000
0000
0000
0000
0000
0000
0000
0000
ENDCHAR
STARTCHAR 12492
ENCODING 12492
SWIDTH 1000 1000
DWIDTH 24 0
BBX 24 24 0 0
BITMAP
0000
0000
0000
0000
0000
0300
3F80
7E380
38300
0300
0700
E600
3E00
0F00
1B80
31C0
E0C0
180C0
60000
180000
0000
0000
0000
0000
ENDCHAR
STARTCHAR 12493
ENCODING 12493
SWIDTH 1000 1000
DWIDTH 24 0
BBX 24 24 0 0
BITMAP
0000
0000
3000
1800
0C00
0C00
0000
1E00
4F700
3CC00
10C00
1E00
3B80
79C0
D880
19800
31800
C1800
301800
1800
3800
1000
0000
0000
ENDCHAR
STARTCHAR 12494
ENCODING 12494
SWIDTH 1000 1000
DWIDTH 24 0
BBX 24 24 0 0
BITMAP
0000
0000
0000
0000
0000
0700
0380
0380
0700
0600
0E00
0C00
1C00
1800
3000
6000
C000
18000
30000
C0000
0000
0000
0000
0000
ENDCHAR
STARTCHAR 12495
ENCODING 12495
SWIDTH 1000 1000
DWIDTH 24 0
BBX 24 24 0 0
BITMAP
0000
0000
0000
0000
0000
0000
0000
1C000
E600
6180
C0C0
C060
18070
30030
60030
C0020
300000
0000
0000
0000
0000
0000
0000
0000
ENDCHAR
STARTCHAR 12496
ENCODING 12496
SWIDTH 1000 1000
DWIDTH 24 0
BBX 24 24 0 0
BITMAP
0000
0000
0000
0038
000C
00E4
0030
1C010
E600
6180
C0C0
C060
18070
30030
60030
C0020
300000
0000
0000
0000
0000
0000
0000
0000
ENDCHAR
STARTCHAR 12497
ENCODING 12497
SWIDTH 1000 1000
DWIDTH 24 0
BBX 24 24 0 0
BITMAP
0000
0000
0000
0018
0024
0024
0018
1C000
E600
6180
C0C0
C060
18070
30030
60030
C0020
300000
0000
0000
0000
0000
0000
0000
0000
ENDCHAR
STARTCHAR 12498
ENCODING 12498
SWIDTH 1000 1000
DWIDTH 24 0
BBX 24 24 0 0
BITMAP
0000
0000
0000
0000
1C000
E000
C000
C000
C380
CFC0
FC00
C000
C000
C000
C000
C000
E000
7FE0
3FE0
0000
0000
0000
0000
0000
ENDCHAR
STARTCHAR 12499
ENCODING 12499
SWIDTH 1000 1000
DWIDTH 24 0
BBX 24 24 0 0
BITMAP
0000
0000
00E0
0030
0390
380C0
1C040
18000
18700
19F00
1F800
18000
18000
18000
18000
1C000
FFC0
7FC0
0000
0000
0000
0000
0000
0000
ENDCHAR
STARTCHAR 12500
ENCODING 12500
SWIDTH 1000 1000
DWIDTH 24 0
BBX 24 24 0 0
BITMAP
0000
0000
0000
0060
0090
38090
1C060
18000
18700
19F00
1F800
18000
18000
18000
18000
1C000
FFC0
7FC0
0000
0000
0000
0000
0000
0000
ENDCHAR
STARTCHAR 12501
ENCODING 12501
SWIDTH 1000 1000
DWIDTH 24 0
BBX 24 24 0 0
BITMAP
0000
0000
0000
0000
0000
03E0
87F70
FFC60
380C0
00C0
0180
0180
0300
0300
0600
0C00
1800
3000
C000
30000
40000
0000
0000
0000
ENDCHAR
STARTCHAR 12502
ENCODING 12502
SWIDTH 1000 1000
DWIDTH 24 0
BBX 24 24 0 0
BITMAP
0000
001C
0006
0032
0018
0008
07C0
10FEE0
FF8C0
70180
0180
0300
0300
0600
0600
0C00
1800
3000
6000
18000
60000
0000
0000
0000
ENDCHAR
STARTCHAR 12503
ENCODING 12503
SWIDTH 1000 1000
DWIDTH 24 0
BBX 24 24 0 0
BITMAP
0000
0018
0024
0024
0018
0000
07C0
8FEE0
FF8C0
70180
0180
0300
0300
0600
0600
0C00
1800
3000
6000
18000
60000
0000
0000
0000
ENDCHAR
STARTCHAR 12504
ENCODING 12504
SWIDTH 1000 1000
DWIDTH 24 0
BBX 24 24 0 0
BITMAP
0000
0000
0000
0000
0000
0000
0000
18000
3C000
67000
C1C00
3C0F00
1803F0
00FC
001C
0000
0000
0000
0000
0000
0000
0000
0000
0000
ENDCHAR
STARTCHAR 12505
ENCODING 12505
SWIDTH 1000 1000
DWIDTH 24 0
BBX 24 24 0 0
BITMAP
0000
0000
0000
0000
00E0
0030
0390
00C0
18040
3C000
67000
C1C00
3C0F00
1803F0
00FC
001C
0000
0000
0000
0000
0000
0000
0000
0000
ENDCHAR
STARTCHAR 12506
ENCODING 12506
SWIDTH 1000 1000
DWIDTH 24 0
BBX 24 24 0 0
BITMAP
0000
0000
0000
0000
0030
0048
0048
0030
18000
3C000
67000
C1C00
3C0F00
1803F0
00FC
001C
0000
0000
0000
0000
0000
0000
0000
0000
ENDCHAR
STARTCHAR 12507
ENCODING 12507
SWIDTH 1000 1000
DWIDTH 24 0
BBX 24 24 0 0
BITMAP
0000
0000
0000
0000
3800
1C00
1800
1800
1019C0
FFFE0
79800
1800
1800
21980
218E0
61870
E1830
1C9830
187820
3000
2000
0000
0000
0000
ENDCHAR
STARTCHAR 12508
ENCODING 12508
SWIDTH 1000 1000
DWIDTH 24 0
BBX 24 24 0 0
BITMAP
0000
0000
0038
000C
7004
3870
3018
3008
1033C0
FFFE0
7B000
3000
3000
43300
431C0
C30E0
1C3060
193060
F000
6000
4000
0000
0000
0000
ENDCHAR
STARTCHAR 12509
ENCODING 12509
SWIDTH 1000 1000
DWIDTH 24 0
BBX 24 24 0 0
BITMAP
0000
0000
0000
0030
7048
3848
3030
3000
103380
FFFC0
73000
3000
3000
43300
431C0
C30E0
1C3060
393060
F000
6000
4000
0000
0000
0000
ENDCHAR
STARTCHAR 12510
ENCODING 12510
SWIDTH 1000 1000
DWIDTH 24 0
BBX 24 24 0 0
BITMAP
0000
0000
0000
0000
0000
0000
0000
07E0
10FE70
FF878
700E0
01C0
0300
E600
3800
1C00
0E00
0E00
0600
0400
0000
0000
0000
0000
ENDCHAR
STARTCHAR 12511
ENCODING 12511
SWIDTH 1000 1000
DWIDTH 24 0
BBX 24 24 0 0
BITMAP
0000
0000
0000
7000
1E00
0700
0300
0200
1C000
7800
1C00
0E00
0600
0400
0000
1C000
7800
1C00
0E00
0700
0300
0300
0000
0000
ENDCHAR
STARTCHAR 12512
ENCODING 12512
SWIDTH 1000 1000
DWIDTH 24 0
BBX 24 24 0 0
BITMAP
0000
0000
0000
0000
0000
3000
1800
1C00
3000
3000
6000
6100
C0C0
C060
18070
30FF0
FFF38
7F018
20010
0000
0000
0000
0000
0000
ENDCHAR
STARTCHAR 12513
ENCODING 12513
SWIDTH 1000 1000
DWIDTH 24 0
BBX 24 24 0 0
BITMAP
0000
0000
0000
0700
0380
0180
0180
0180
0300
E300
3B00
0E00
0F00
0D80
19C0
30C0
6080
C000
30000
C0000
0000
0000
0000
0000
ENDCHAR
STARTCHAR 12514
ENCODING 12514
SWIDTH 1000 1000
DWIDTH 24 0
BBX 24 24 0 0
BITMAP
0000
0000
0000
0000
0000
0780
47FC0
3F000
1B000
3000
31F0
37F8
20FE00
1FB000
F3000
3000
3000
3800
1FF0
0FF0
0000
0000
0000
0000
ENDCHAR
STARTCHAR 12515
ENCODING 12515
SWIDTH 1000 1000
DWIDTH 24 0
BBX 24 24 0 0
BITMAP
0000
0000
0000
0000
0000
38000
1C000
C180
67C0
7CE0
8E080
7B100
31000
1800
0800
0C00
0400
0600
0300
0200
0000
0000
0000
0000
ENDCHAR
STARTCHAR 12516
ENCODING 12516
SWIDTH 1000 1000
DWIDTH 24 0
BBX 24 24 0 0
BITMAP
0000
0000
0000
0000
38000
1C000
C000
C0E0
67F0
7C38
10E060
FB080
61000
1800
0800
0C00
0400
0600
0200
0300
0180
0100
0000
0000
ENDCHAR
STARTCHAR 12517
ENCODING 12517
SWIDTH 1000 1000
DWIDTH 24 0
BBX 24 24 0 0
BITMAP
0000
0000
0000
0000
0000
0000
0000
0000
20600
1FF00
C300
0600
0600
0C00
100DC0
FFFE0
78020
0000
0000
0000
0000
0000
0000
0000
ENDCHAR
STARTCHAR 12518
ENCODING 12518
SWIDTH 1000 1000
DWIDTH 24 0
BBX 24 24 0 0
BITMAP
0000
0000
0000
0000
0000
0000
0000
20300
1FF80
E380
0300
0300
0600
0600
0C00
20FFF0
1FFFF8
F0008
40000
0000
0000
0000
0000
0000
ENDCHAR
STARTCHAR 12519
ENCODING 12519
SWIDTH 1000 1000
DWIDTH 24 0
BBX 24 24 0 0
BITMAP
0000
0000
0000
0000
0000
0000
0000
0780
1FFC0
E180
0180
0F80
1FF80
E300
0300
0F00
1F780
E000
0000
0000
0000
0000
0000
0000
ENDCHAR
STARTCHAR 12520
ENCODING 12520
SWIDTH 1000 1000
DWIDTH 24 0
BBX 24 24 0 0
BITMAP
0000
0000
0000
0000
0000
0080
40FC0
3FEE0
1F0C0
00C0
40FC0
3FFC0
1F0C0
0180
0180
40FC0
3FFE0
1F000
0000
0000
0000
0000
0000
0000
ENDCHAR
STARTCHAR 12521
ENCODING 12521
SWIDTH 1000 1000
DWIDTH 24 0
BBX 24 24 0 0
BITMAP
0000
0000
0000
0700
1FF80
F000
0000
00C0
1FE0
7FEE0
3E0C0
100C0
0180
0180
0300
0300
0600
0C00
1800
3000
C000
30000
0000
0000
ENDCHAR
STARTCHAR 12522
ENCODING 12522
SWIDTH 1000 1000
DWIDTH 24 0
BBX 24 24 0 0
BITMAP
0000
0000
0600
0380
18300
E300
C300
C300
C300
C300
C300
C300
C300
C200
0600
0600
0400
0C00
1800
3000
6000
18000
0000
0000
ENDCHAR
STARTCHAR 12523
ENCODING 12523
SWIDTH 1000 1000
DWIDTH 24 0
BBX 24 24 0 0
BITMAP
0000
0000
0000
0000
0E00
18700
E600
E600
C600
C600
18600
18602
18604
30618
30630
606E0
C07C0
180F00
200600
0000
0000
0000
0000
0000
ENDCHAR
STARTCHAR 12524
ENCODING 12524
SWIDTH 1000 1000
DWIDTH 24 0
BBX 24 24 0 0
BITMAP
0000
0000
0000
8000
1C000
E000
E000
C000
C000
C000
C000
C008
C030
C0E0
C1C0
C700
DE00
F800
1E000
C000
0000
0000
0000
0000
ENDCHAR
STARTCHAR 12525
ENCODING 12525
SWIDTH 1000 1000
DWIDTH 24 0
BBX 24 24 0 0
BITMAP
0000
0000
0000
0000
0000
0000
03C0
67FE0
3F8E0
300C0
300C0
30180
30180
30180
30300
3FF80
3FFC0
10000
0000
0000
0000
0000
0000
0000
ENDCHAR
STARTCHAR 12526
ENCODING 12526
SWIDTH 1000 1000
DWIDTH 24 0
BBX 24 24 0 0
BITMAP
0000
0000
0000
0000
0000
0300
31F80
1F1C0
18180
18180
18180
8300
0300
0600
0600
0C00
1800
2000
C000
0000
0000
0000
0000
0000
ENDCHAR
STARTCHAR 12527
ENCODING 12527
SWIDTH 1000 1000
DWIDTH 24 0
BBX 24 24 0 0
BITMAP
0000
0000
0000
0000
07C0
67FE0
3F0E0
300C0
300C0
300C0
30180
30180
30300
0300
0600
0600
0C00
1800
3000
6000
18000
0000
0000
0000
ENDCHAR
STARTCHAR 12528
ENCODING 12528
SWIDTH 1000 1000
DWIDTH 24 0
BBX 24 24 0 0
BITMAP
0000
0000
1C00
0E00
0C00
0C00
20D80
1FFC0
18C00
18C00
18C00
8DE0
9FF0
23FC00
1F8C00
C0C00
0C00
0C00
0C00
0C00
0C00
0400
0000
0000
ENDCHAR
STARTCHAR 12529
ENCODING 12529
SWIDTH 1000 1000
DWIDTH 24 0
BBX 24 24 0 0
BITMAP
0000
0000
0000
0000
0000
0000
0F80
3F9C0
1C3C0
0300
3C00
1800
1800
1800
1800
7FF8
3FF87C
1F0000
0000
0000
0000
0000
0000
0000
ENDCHAR
STARTCHAR 12530
ENCODING 12530
SWIDTH 1000 1000
DWIDTH 24 0
BBX 24 24 0 0
BITMAP
0000
0000
0000
0000
0040
0FF0
7FF60
3C060
0060
0060
3FC0
7FFC0
380C0
0180
0180
0300
0300
0600
0C00
1800
3000
C000
0000
0000
ENDCHAR
STARTCHAR 12531
ENCODING 12531
SWIDTH 1000 1000
DWIDTH 24 0
BBX 24 24 0 0
BITMAP
0000
0000
0000
0000
18000
E000
7000
3008
3030
0060
00C0
0180
0300
0E00
1C00
47000
7E000
3C000
10000
0000
0000
0000
0000
0000
ENDCHAR
STARTCHAR 12532
ENCODING 12532
SWIDTH 1000 1000
DWIDTH 24 0
BBX 24 24 0 0
BITMAP
0000
0000
2070
7818
30C8
3060
3320
47F80
7E180
60180
60180
60300
60300
20300
0600
0600
0C00
1800
3000
6000
C000
30000
0000
0000
ENDCHAR
STARTCHAR 12533
ENCODING 12533
SWIDTH 1000 1000
DWIDTH 24 0
BBX 24 24 0 0
BITMAP
0000
0000
0000
0000
0000
3800
1C00
1800
1980
3FC0
3F9C0
19980
3180
3180
6180
C300
19F00
20600
40400
0000
0000
0000
0000
0000
ENDCHAR
STARTCHAR 12534
ENCODING 12534
SWIDTH 1000 1000
DWIDTH 24 0
BBX 24 24 0 0
BITMAP
0000
0000
0000
0000
3000
3800
3000
60C0
67E0
FF00
8300
10300
20600
0600
0C00
0C00
1800
3000
C000
18000
20000
0000
0000
0000
ENDCHAR
STARTCHAR 12539
ENCODING 12539
SWIDTH 1000 1000
DWIDTH 24 0
BBX 24 24 0 0
BITMAP
0000
0000
0000
0000
0000
0000
0000
0000
0000
0000
1800
3C00
3C00
1800
0000
0000
0000
0000
0000
0000
0000
0000
0000
0000
ENDCHAR
STARTCHAR 12549
ENCODING 12549
SWIDTH 1000 1000
DWIDTH 24 0
BBX 24 24 0 0
BITMAP
0000
0000
0000
10000
1C000
18000
30000
30040
7FFF0
20060
0060
0060
0060
0060
00C0
00C0
00C0
00C0
0D80
0700
0200
0000
0000
0000
ENDCHAR
STARTCHAR 12550
ENCODING 12550
SWIDTH 1000 1000
DWIDTH 24 0
BBX 24 24 0 0
BITMAP
0000
0000
0000
4000
7000
6000
C000
C080
1FFE0
80C0
00C0
00C0
1180
0D80
0700
0300
0780
0CC0
18C0
6040
18000
0000
0000
0000
ENDCHAR
STARTCHAR 12551
ENCODING 12551
SWIDTH 1000 1000
DWIDTH 24 0
BBX 24 24 0 0
BITMAP
0000
0000
0000
0000
0000
40040
7FFF0
60060
60060
60060
60060
60060
60060
60060
60060
60060
60060
60060
40040
0000
0000
0000
0000
0000
ENDCHAR
STARTCHAR 12552
ENCODING 12552
SWIDTH 1000 1000
DWIDTH 24 0
BBX 24 24 0 0
BITMAP
0000
0000
0000
0000
0000
7FFC0
30000
30000
30000
30000
30000
30000
30000
30000
30000
30000
38000
1FFF0
FFF0
0000
0000
0000
0000
0000
ENDCHAR
STARTCHAR 12553
ENCODING 12553
SWIDTH 1000 1000
DWIDTH 24 0
BBX 24 24 0 0
BITMAP
0000
0000
0000
8000
E000
C000
18000
18080
3FFE0
120C0
38C0
30C0
60C0
60C0
C0C0
C0C0
180C0
180C0
30D80
40700
80200
0000
0000
0000
ENDCHAR
STARTCHAR 12554
ENCODING 12554
SWIDTH 1000 1000
DWIDTH 24 0
BBX 24 24 0 0
BITMAP
0000
0000
0000
1000
1C00
1800
1800
1800
FFFF0
3000
3000
6000
6000
C200
C180
180C0
30FE0
7F060
38060
0040
0000
0000
0000
0000
ENDCHAR
STARTCHAR 12555
ENCODING 12555
SWIDTH 1000 1000
DWIDTH 24 0
BBX 24 24 0 0
BITMAP
0000
0000
0000
0000
0400
FF00
F0600
0600
0C00
0C00
1880
3FE0
10C0
00C0
00C0
00C0
00C0
0180
0D80
0700
0200
0000
0000
0000
ENDCHAR
STARTCHAR 12556
ENCODING 12556
SWIDTH 1000 1000
DWIDTH 24 0
BBX 24 24 0 0
BITMAP
0000
0000
0000
0400
0700
8600
C600
8400
18C00
10C40
10BF0
3FC60
11860
1860
3060
30C0
60C0
C0C0
18D80
20700
0200
0000
0000
0000
ENDCHAR
STARTCHAR 12557
ENCODING 12557
SWIDTH 1000 1000
DWIDTH 24 0
BBX 24 24 0 0
BITMAP
0000
0000
0000
4100
6180
4100
C300
8200
8200
10400
10400
20800
20800
10400
8200
C300
6180
30C0
30C0
1040
0000
0000
0000
0000
ENDCHAR
STARTCHAR 12558
ENCODING 12558
SWIDTH 1000 1000
DWIDTH 24 0
BBX 24 24 0 0
BITMAP
0000
0000
0000
0000
01C0
1FFFE0
8000
C000
C000
18000
18200
3FF80
10300
0300
0300
0300
0300
0600
3600
1C00
0800
0000
0000
0000
ENDCHAR
STARTCHAR 12559
ENCODING 12559
SWIDTH 1000 1000
DWIDTH 24 0
BBX 24 24 0 0
BITMAP
0000
0000
0000
0000
01F0
3F00
3E000
C000
C000
C000
C000
C000
C000
C000
8000
18000
18000
30000
60000
C0000
100000
0000
0000
0000
ENDCHAR
STARTCHAR 12560
ENCODING 12560
SWIDTH 1000 1000
DWIDTH 24 0
BBX 24 24 0 0
BITMAP
0000
0000
0000
0000
0200
0380
8300
E300
C300
C300
C300
18300
18300
18700
19B00
3E300
10300
0300
0300
0300
0200
0000
0000
0000
ENDCHAR
STARTCHAR 12561
ENCODING 12561
SWIDTH 1000 1000
DWIDTH 24 0
BBX 24 24 0 0
BITMAP
0000
0000
0000
0000
0400
0600
0C00
0800
1000
2000
2000
4000
4000
3000
1800
0C00
0600
0300
0300
0100
0000
0000
0000
0000
ENDCHAR
STARTCHAR 12562
ENCODING 12562
SWIDTH 1000 1000
DWIDTH 24 0
BBX 24 24 0 0
BITMAP
0000
0000
0000
0000
0060
FFFF0
1800
1800
1800
1800
1800
1800
1800
1800
1800
1800
1800
1800
1800
1800
1000
0000
0000
0000
ENDCHAR
STARTCHAR 12563
ENCODING 12563
SWIDTH 1000 1000
DWIDTH 24 0
BBX 24 24 0 0
BITMAP
0000
0000
0000
3000
1C00
1800
C18C0
71870
61860
61860
61860
61860
61860
FFFE0
41840
1800
1800
1800
1800
1FFFF8
0000
0000
0000
0000
ENDCHAR
STARTCHAR 12564
ENCODING 12564
SWIDTH 1000 1000
DWIDTH 24 0
BBX 24 24 0 0
BITMAP
0000
0000
0000
0400
0700
0C00
1800
3200
6380
C600
30C00
41800
3800
D800
31800
41800
1800
1800
1800
1800
1000
0000
0000
0000
ENDCHAR
STARTCHAR 12565
ENCODING 12565
SWIDTH 1000 1000
DWIDTH 24 0
BBX 24 24 0 0
BITMAP
0000
0000
0000
0080
1FFE0
00C0
00C0
00C0
100C0
1FFC0
18000
18000
18000
18000
18000
30000
30000
20000
60000
C0000
100000
0000
0000
0000
ENDCHAR
STARTCHAR 12566
ENCODING 12566
SWIDTH 1000 1000
DWIDTH 24 0
BBX 24 24 0 0
BITMAP
0000
0000
0000
0000
20100
3FFC0
30180
30180
30180
32180
33180
31980
31180
30180
30180
30180
30180
3FF80
30180
20100
0000
0000
0000
0000
ENDCHAR
STARTCHAR 12567
ENCODING 12567
SWIDTH 1000 1000
DWIDTH 24 0
BBX 24 24 0 0
BITMAP
0000
0000
0000
0100
7FFC0
C180
C180
C180
C180
C180
C180
DB00
CE00
C400
C000
C000
C000
C000
C000
C000
8000
0000
0000
0000
ENDCHAR
STARTCHAR 12568
ENCODING 12568
SWIDTH 1000 1000
DWIDTH 24 0
BBX 24 24 0 0
BITMAP
0000
0000
0000
1000
1C00
1800
1800
FFFF8
3000
3000
6040
FFF0
4060
0060
0060
00C0
00C0
0180
0180
0300
0200
0000
0000
0000
ENDCHAR
STARTCHAR 12569
ENCODING 12569
SWIDTH 1000 1000
DWIDTH 24 0
BBX 24 24 0 0
BITMAP
0000
0000
0000
0000
2000
3800
3000
3000
6000
6000
C000
C000
18000
18200
30180
600C0
C1FE0
1FE060
E0060
0040
0000
0000
0000
0000
ENDCHAR
STARTCHAR 12570
ENCODING 12570
SWIDTH 1000 1000
DWIDTH 24 0
BBX 24 24 0 0
BITMAP
0000
0000
0000
0080
400E0
300C0
18180
E100
6300
2600
1800
1800
1800
1800
1800
1800
1800
1800
1800
1800
1000
0000
0000
0000
ENDCHAR
STARTCHAR 12571
ENCODING 12571
SWIDTH 1000 1000
DWIDTH 24 0
BBX 24 24 0 0
BITMAP
0000
0000
0000
0000
00E0
7FFF0
1800
1800
1800
1800
F800
10000
20000
20000
20000
20000
20000
20000
10180
FE00
0000
0000
0000
0000
ENDCHAR
STARTCHAR 12572
ENCODING 12572
SWIDTH 1000 1000
DWIDTH 24 0
BBX 24 24 0 0
BITMAP
0000
0000
0000
3000
1C00
1800
1800
1800
1FFFF8
1800
1800
0800
F800
10000
20000
20000
20000
20000
100C0
FF00
0000
0000
0000
0000
ENDCHAR
STARTCHAR 12573
ENCODING 12573
SWIDTH 1000 1000
DWIDTH 24 0
BBX 24 24 0 0
BITMAP
0000
0000
0000
60600
38380
30300
30300
30300
303F0
37F00
1F8600
30600
30600
30C00
31800
32000
38000
1FFE0
FFE0
0000
0000
0000
0000
0000
ENDCHAR
STARTCHAR 12574
ENCODING 12574
SWIDTH 1000 1000
DWIDTH 24 0
BBX 24 24 0 0
BITMAP
0000
0000
0000
0000
0000
1FF0
FE800
10C00
18C00
18C00
30C20
30FF8
7FC30
21830
1830
1860
3060
3060
60C0
C0C0
30180
0000
0000
0000
ENDCHAR
STARTCHAR 12575
ENCODING 12575
SWIDTH 1000 1000
DWIDTH 24 0
BBX 24 24 0 0
BITMAP
0000
0000
0000
2000
7F800
3000
3000
3000
3000
3000
3000
3000
1800
1800
1800
1800
0C00
0600
03E0
0180
0000
0000
0000
0000
ENDCHAR
STARTCHAR 12576
ENCODING 12576
SWIDTH 1000 1000
DWIDTH 24 0
BBX 24 24 0 0
BITMAP
0000
0000
0000
2000
3800
3000
3000
6000
4200
C380
18300
30600
7FC00
21800
3000
6000
C100
30080
7FFC0
380C0
0040
0000
0000
0000
ENDCHAR
STARTCHAR 12577
ENCODING 12577
SWIDTH 1000 1000
DWIDTH 24 0
BBX 24 24 0 0
BITMAP
0000
0000
0000
0080
3FFE0
00C0
00C0
00C0
00C0
C180
3180
0D80
0700
0380
07C0
0CE0
1860
3020
C000
30000
C0000
0000
0000
0000
ENDCHAR
STARTCHAR 12578
ENCODING 12578
SWIDTH 1000 1000
DWIDTH 24 0
BBX 24 24 0 0
BITMAP
0000
0000
0000
0100
7FFC0
0180
10180
1C300
18300
18640
3FFF0
10060
0060
0060
00C0
00C0
00C0
0180
0180
0300
0200
0000
0000
0000
ENDCHAR
STARTCHAR 12579
ENCODING 12579
SWIDTH 1000 1000
DWIDTH 24 0
BBX 24 24 0 0
BITMAP
0000
0000
0000
60000
38000
30000
30000
30000
60000
60000
60000
60040
FFFF0
40060
0060
0060
00C0
00C0
00C0
0180
0180
0000
0000
0000
ENDCHAR
STARTCHAR 12580
ENCODING 12580
SWIDTH 1000 1000
DWIDTH 24 0
BBX 24 24 0 0
BITMAP
0000
0000
0000
2000
3800
3000
3000
3FF0
FF600
6600
6600
6600
6600
C600
C600
C600
18600
18700
303F8
601F8
180000
0000
0000
0000
ENDCHAR
STARTCHAR 12581
ENCODING 12581
SWIDTH 1000 1000
DWIDTH 24 0
BBX 24 24 0 0
BITMAP
0000
0000
0000
0000
4000
7000
6000
6000
6000
C000
C000
C000
18000
18000
30000
20000
60000
800E0
1FFFF0
E0000
0000
0000
0000
0000
ENDCHAR
STARTCHAR 12582
ENCODING 12582
SWIDTH 1000 1000
DWIDTH 24 0
BBX 24 24 0 0
BITMAP
0000
0000
0000
18C00
C700
C600
C600
C600
C600
C600
C600
C600
C600
18610
18610
30610
30618
607F8
803F0
100000
0000
0000
0000
0000
ENDCHAR
STARTCHAR 12583
ENCODING 12583
SWIDTH 1000 1000
DWIDTH 24 0
BBX 24 24 0 0
BITMAP
0000
0000
0000
3000
1C00
1800
1800
1800
1800
1800
1800
1800
1800
1800
1800
1800
1800
1800
1800
1800
1000
0000
0000
0000
ENDCHAR
STARTCHAR 12584
ENCODING 12584
SWIDTH 1000 1000
DWIDTH 24 0
BBX 24 24 0 0
BITMAP
0000
0000
0000
0000
0100
01C0
0180
0180
0300
30300
C600
3600
1C00
0E00
1F00
3380
6180
C080
30000
C0000
0000
0000
0000
0000
ENDCHAR
STARTCHAR 12585
ENCODING 12585
SWIDTH 1000 1000
DWIDTH 24 0
BBX 24 24 0 0
BITMAP
0000
0000
0000
0000
0000
0040
20070
38060
30060
30060
30060
30060
30060
70060
60060
61FE0
FE060
40040
0000
0000
0000
0000
0000
0000
ENDCHAR
STARTCHAR 12832
ENCODING 12832
SWIDTH 1000 1000
DWIDTH 24 0
BBX 24 24 0 0
BITMAP
0000
20040
40020
80010
180018
100008
30000C
200004
600006
600006
6000C6
67FFE6
600006
600006
600006
600006
200004
30000C
100008
180018
80010
40020
20040
0000
ENDCHAR
STARTCHAR 12833
ENCODING 12833
SWIDTH 1000 1000
DWIDTH 24 0
BBX 24 24 0 0
BITMAP
0000
20040
40020
80010
180018
100008
30018C
23FFC4
600006
600006
600006
600006
600006
600006
600006
6000C6
27FFE4
30000C
100008
180018
80010
40020
20040
0000
ENDCHAR
STARTCHAR 12834
ENCODING 12834
SWIDTH 1000 1000
DWIDTH 24 0
BBX 24 24 0 0
BITMAP
0000
20040
40020
80010
180018
100188
33FFCC
200004
600006
600006
600306
61FF86
600006
600006
600006
600006
2000C4
37FFEC
100008
180018
80010
40020
20040
0000
ENDCHAR
STARTCHAR 12835
ENCODING 12835
SWIDTH 1000 1000
DWIDTH 24 0
BBX 24 24 0 0
BITMAP
0000
20040
40020
80010
180018
100008
37FFEC
262464
662466
662466
662466
662466
664466
664566
668366
670066
260064
37FFEC
160068
180018
80010
40020
20040
0000
ENDCHAR
STARTCHAR 12836
ENCODING 12836
SWIDTH 1000 1000
DWIDTH 24 0
BBX 24 24 0 0
BITMAP
0000
20040
40020
80010
180198
13FFC8
30300C
203004
603006
603006
606306
61FF86
606306
606306
606306
60C306
20C304
30C34C
17FFE8
180018
80010
40020
20040
0000
ENDCHAR
STARTCHAR 12837
ENCODING 12837
SWIDTH 1000 1000
DWIDTH 24 0
BBX 24 24 0 0
BITMAP
0000
20040
40020
80010
183018
101808
30180C
201004
600066
6FFFF6
600006
608006
60E406
60C306
618186
6100C6
2300C4
3200CC
140088
180018
80010
40020
20040
0000
ENDCHAR
STARTCHAR 12838
ENCODING 12838
SWIDTH 1000 1000
DWIDTH 24 0
BBX 24 24 0 0
BITMAP
0000
20040
40020
80010
182018
103808
30300C
203004
603006
603046
6033E6
60FC06
6F3006
603006
603046
603046
203064
303FEC
101FC8
180018
80010
40020
20040
0000
ENDCHAR
STARTCHAR 12839
ENCODING 12839
SWIDTH 1000 1000
DWIDTH 24 0
BBX 24 24 0 0
BITMAP
0000
20040
40020
80010
180018
100C08
30040C
204404
607406
606606
60C206
60C306
608306
618186
6101C6
6200F6
240044
30000C
100008
180018
80010
40020
20040
0000
ENDCHAR
STARTCHAR 12840
ENCODING 12840
SWIDTH 1000 1000
DWIDTH 24 0
BBX 24 24 0 0
BITMAP
0000
20040
40020
84010
187018
106008
30600C
206604
63FF06
606606
606606
606606
606626
60C626
60C626
618636
2107F4
3203EC
140008
180018
80010
40020
20040
0000
ENDCHAR
STARTCHAR 12841
ENCODING 12841
SWIDTH 1000 1000
DWIDTH 24 0
BBX 24 24 0 0
BITMAP
0000
20040
40020
80010
181018
101C08
30180C
201804
601806
601806
601866
6FFFF6
601806
601806
601806
601806
201804
30180C
101808
181018
80010
40020
20040
0000
ENDCHAR
STARTCHAR 19968
ENCODING 19968
SWIDTH 1000 1000
DWIDTH 24 0
BBX 24 24 0 0
BITMAP
0000
0000
0000
0000
0000
0000
0000
0000
0000
0008
001C
7FFFFE
0000
0000
0000
0000
0000
0000
0000
0000
0000
0000
0000
0000
ENDCHAR
STARTCHAR 19969
ENCODING 19969
SWIDTH 1000 1000
DWIDTH 24 0
BBX 24 24 0 0
BITMAP
0000
0008
001C
7FFFFE
1800
1800
1800
1800
1800
1800
1800
1800
1800
1800
1800
1800
1800
1800
1800
1800
1F800
7000
2000
0000
ENDCHAR
STARTCHAR 19971
ENCODING 19971
SWIDTH 1000 1000
DWIDTH 24 0
BBX 24 24 0 0
BITMAP
0000
4000
7000
6000
6000
6000
6000
600C
601E
61E0
7E00
7E000
786000
6000
6000
6008
6008
6008
600C
600E
7FFC
3FF8
0000
0000
ENDCHAR
STARTCHAR 19975
ENCODING 19975
SWIDTH 1000 1000
DWIDTH 24 0
BBX 24 24 0 0
BITMAP
0000
0008
001C
3FFFFE
6000
6000
6000
6000
6060
7FF0
6060
6060
6060
C060
C060
C060
18060
18060
30060
600E0
C1FC0
100380
600100
0000
ENDCHAR
STARTCHAR 19976
ENCODING 19976
SWIDTH 1000 1000
DWIDTH 24 0
BBX 24 24 0 0
BITMAP
0800
0E00
0C00
0C00
0C00
0C0C
7FFFFE
0C00
40C00
40C00
40C00
20C00
20C00
10800
19800
D800
7000
7000
DC00
18700
703FE
1800F8
600010
0000
ENDCHAR
STARTCHAR 19977
ENCODING 19977
SWIDTH 1000 1000
DWIDTH 24 0
BBX 24 24 0 0
BITMAP
0000
0010
0038
3FFFFC
0000
0000
0000
0000
0000
0020
0070
1FFFF8
0000
0000
0000
0000
0000
0000
0008
001C
7FFFFE
0000
0000
0000
ENDCHAR
STARTCHAR 19978
ENCODING 19978
SWIDTH 1000 1000
DWIDTH 24 0
BBX 24 24 0 0
BITMAP
2000
3800
3000
3000
3000
3000
3000
3020
3070
3FF8
3000
3000
3000
3000
3000
3000
3000
3000
3000
3000
3008
301C
7FFFFE
0000
ENDCHAR
STARTCHAR 19979
ENCODING 19979
SWIDTH 1000 1000
DWIDTH 24 0
BBX 24 24 0 0
BITMAP
0000
0008
001C
7FFFFE
3000
3000
3000
3000
3000
3700
31C0
30E0
3060
3020
3000
3000
3000
3000
3000
3000
3000
3000
3000
2000
ENDCHAR
STARTCHAR 19980
ENCODING 19980
SWIDTH 1000 1000
DWIDTH 24 0
BBX 24 24 0 0
BITMAP
0000
0000
000C
7FFFFE
18180
18180
18180
18180
18180
18180
18180
18180
18180
18180
18180
18180
18180
30180
30180
60180
C0180
180180
200180
400100
ENDCHAR
STARTCHAR 19981
ENCODING 19981
SWIDTH 1000 1000
DWIDTH 24 0
BBX 24 24 0 0
BITMAP
0000
0008
001C
7FFFFE
1C00
1800
1800
3000
7C00
7B00
D980
198E0
19870
31838
6181C
C180E
181806
601804
1800
1800
1800
1800
1800
1000
ENDCHAR
STARTCHAR 19982
ENCODING 19982
SWIDTH 1000 1000
DWIDTH 24 0
BBX 24 24 0 0
BITMAP
20000
38000
30000
30010
30038
3FFFC
30000
30000
30000
30030
7FFF8
20030
0030
0030
0630
3FFF30
0030
0030
0030
0030
0070
0FE0
01C0
0080
ENDCHAR
STARTCHAR 19984
ENCODING 19984
SWIDTH 1000 1000
DWIDTH 24 0
BBX 24 24 0 0
BITMAP
0000
0008
001C
7FFFFE
1800
1800
81820
E1870
C1FF8
C1800
C1800
C1800
C1818
1FFFFC
80018
0018
0018
0018
0030
0030
0070
07E0
01C0
0080
ENDCHAR
STARTCHAR 19985
ENCODING 19985
SWIDTH 1000 1000
DWIDTH 24 0
BBX 24 24 0 0
BITMAP
0000
0000
0060
1FFFF0
3060
3060
3060
3060
3060
3060
3060
FFFE0
6060
6060
6060
6060
6060
6060
6060
6060
606C
7FFFFE
0000
0000
ENDCHAR
STARTCHAR 19987
ENCODING 19987
SWIDTH 1000 1000
DWIDTH 24 0
BBX 24 24 0 0
BITMAP
2000
3800
3000
3000
3060
1FFFF0
6000
6000
600C
7FFFFE
C000
C000
18030
3FFF8
10060
00C0
0180
18300
7600
1C00
0F00
0780
0180
0080
ENDCHAR
STARTCHAR 19988
ENCODING 19988
SWIDTH 1000 1000
DWIDTH 24 0
BBX 24 24 0 0
BITMAP
0000
200C0
3FFE0
300C0
300C0
300C0
300C0
300C0
3FFC0
300C0
300C0
300C0
300C0
300C0
3FFC0
300C0
300C0
300C0
300C0
300C0
300CC
7FFFFE
0000
0000
ENDCHAR
STARTCHAR 19989
ENCODING 19989
SWIDTH 1000 1000
DWIDTH 24 0
BBX 24 24 0 0
BITMAP
0000
0010
0038
3FFFFC
0C00
0C00
1800
1800
3C00
3900
78C0
D860
19838
3181C
6180C
181804
601800
1800
1800
1808
181C
7FFFFE
0000
0000
ENDCHAR
STARTCHAR 19990
ENCODING 19990
SWIDTH 1000 1000
DWIDTH 24 0
BBX 24 24 0 0
BITMAP
2080
38E0
830C0
E30C0
C30C0
C30C0
C30C8
C30DC
7FFFFE
C30C0
C30C0
C30C0
C30C0
C30C0
C30C0
C30C0
C3FC0
C30C0
C2080
C0010
C0038
1FFFFC
80000
0000
ENDCHAR
STARTCHAR 19992
ENCODING 19992
SWIDTH 1000 1000
DWIDTH 24 0
BBX 24 24 0 0
BITMAP
0000
0040
01E0
40FF0
7FE00
60000
60000
60000
60000
60010
60038
7FFFC
60600
60600
60600
60600
60600
60600
60600
60608
6061C
7FFFFE
0000
0000
ENDCHAR
STARTCHAR 19993
ENCODING 19993
SWIDTH 1000 1000
DWIDTH 24 0
BBX 24 24 0 0
BITMAP
0000
0008
001C
7FFFFE
1800
1800
1800
101818
1FFFFC
181818
181818
181818
181818
183618
183318
186198
18C0D8
190098
1A0018
180018
180018
1801F8
180070
100020
ENDCHAR
STARTCHAR 19994
ENCODING 19994
SWIDTH 1000 1000
DWIDTH 24 0
BBX 24 24 0 0
BITMAP
8200
E380
C300
C300
C300
C300
C310
20C31C
10C318
8C330
CC330
CC320
6C360
6C340
6C340
6C380
6C300
4C300
C300
C308
C31C
7FFFFE
0000
0000
ENDCHAR
STARTCHAR 19995
ENCODING 19995
SWIDTH 1000 1000
DWIDTH 24 0
BBX 24 24 0 0
BITMAP
0000
20200
38380
30300
30300
30300
30300
30300
30300
38380
6C280
66680
62640
C2C60
C0C60
181830
101838
20301E
404008
18000
000C
7FFFFE
0000
0000
ENDCHAR
STARTCHAR 19996
ENCODING 19996
SWIDTH 1000 1000
DWIDTH 24 0
BBX 24 24 0 0
BITMAP
2000
3800
3000
6008
601C
7FFFFE
C000
19000
31C00
21800
61800
C1830
1FFFF8
81800
21980
398C0
31860
61830
61818
8181C
10180C
61F808
7000
2000
ENDCHAR
STARTCHAR 19997
ENCODING 19997
SWIDTH 1000 1000
DWIDTH 24 0
BBX 24 24 0 0
BITMAP
0000
20080
380E0
301C0
60180
62180
C3B10
C7318
18661C
10C430
7FCFF0
318660
300C0
20180
60300
C0600
180400
3FEFF8
1E0780
0000
0008
001C
7FFFFE
0000
ENDCHAR
STARTCHAR 19998
ENCODING 19998
SWIDTH 1000 1000
DWIDTH 24 0
BBX 24 24 0 0
BITMAP
0000
0060
FFFF0
00E0
0180
1600
19C08
3FDA1C
19A30
19A60
19980
31900
31980
61880
618C0
C1860
101838
20181E
40F808
3020
0070
3FFFF8
0000
0000
ENDCHAR
STARTCHAR 20002
ENCODING 20002
SWIDTH 1000 1000
DWIDTH 24 0
BBX 24 24 0 0
BITMAP
0000
0040
07E0
3FF0
1FF800
1800
1800
1860
FFFF0
1800
1800
1808
181C
7FFFFE
2000
3800
6000
C100
180C0
30020
60010
1FFFF8
70018
0018
ENDCHAR
STARTCHAR 20004
ENCODING 20004
SWIDTH 1000 1000
DWIDTH 24 0
BBX 24 24 0 0
BITMAP
0000
000C
7FFFFE
C300
C300
C300
10C318
1FFFFC
18C318
18C318
18C318
18C318
19A318
19B318
191698
1A16D8
1A0C58
1C0858
181018
182018
180018
1801F8
180070
100020
ENDCHAR
STARTCHAR 20005
ENCODING 20005
SWIDTH 1000 1000
DWIDTH 24 0
BBX 24 24 0 0
BITMAP
0000
0018
3FFFFC
6600
86620
46638
66660
36640
26680
10660C
1FFFFE
180000
180000
180000
180000
180000
180000
180000
180000
180000
100000
300000
200000
400000
ENDCHAR
STARTCHAR 20007
ENCODING 20007
SWIDTH 1000 1000
DWIDTH 24 0
BBX 24 24 0 0
BITMAP
1000
1C00
1800
1830
1FFFF8
1880
618E0
318C0
19980
11A00
180C
7FFFFE
62000
62020
61078
611C0
60B00
60E00
60600
66380
781E0
E007E
40010
0000
ENDCHAR
STARTCHAR 20008
ENCODING 20008
SWIDTH 1000 1000
DWIDTH 24 0
BBX 24 24 0 0
BITMAP
0000
1000
1C00
1800
1800
1800
1800
1800
1800
1800
1800
1800
1800
1800
1800
1800
1800
1800
1800
1800
1800
1800
1000
0000
ENDCHAR
STARTCHAR 20010
ENCODING 20010
SWIDTH 1000 1000
DWIDTH 24 0
BBX 24 24 0 0
BITMAP
1000
1C00
3800
3400
6400
C200
18300
31180
21CC0
41870
8183E
301818
401800
1800
1800
1800
1800
1800
1800
1800
1800
1800
1800
1000
ENDCHAR
STARTCHAR 20011
ENCODING 20011
SWIDTH 1000 1000
DWIDTH 24 0
BBX 24 24 0 0
BITMAP
0000
C0040
700F0
380C0
1C180
8200
1000
1C00
1800
1800
1800
1800
1800
1800
1800
1800
1800
1800
1800
1800
1800
1800
1000
0000
ENDCHAR
STARTCHAR 20012
ENCODING 20012
SWIDTH 1000 1000
DWIDTH 24 0
BBX 24 24 0 0
BITMAP
1000
1C00
1800
81800
41800
61800
31800
19800
1D800
D800
9800
1800
1800
3800
5800
19800
71800
3C1800
181800
1800
1800
1800
1800
1000
ENDCHAR
STARTCHAR 20013
ENCODING 20013
SWIDTH 1000 1000
DWIDTH 24 0
BBX 24 24 0 0
BITMAP
1000
1C00
1800
1800
1800
101818
1FFFFC
181818
181818
181818
181818
181818
181818
1FFFF8
181818
101810
1800
1800
1800
1800
1800
1800
1800
1000
ENDCHAR
STARTCHAR 20016
ENCODING 20016
SWIDTH 1000 1000
DWIDTH 24 0
BBX 24 24 0 0
BITMAP
1000
1C00
1800
1810
1838
3FFFFC
1800
1800
1800
1860
1FFFF0
1800
1800
1800
1808
181C
7FFFFE
1800
1800
1800
1800
1800
1800
1000
ENDCHAR
STARTCHAR 20018
ENCODING 20018
SWIDTH 1000 1000
DWIDTH 24 0
BBX 24 24 0 0
BITMAP
1000
1C00
1800
81830
FFFF8
C1830
C1830
C1830
FFFF0
81820
1800
101818
1FFFFC
181818
181818
181818
181818
1FFFF8
181818
101810
1800
1800
1800
1000
ENDCHAR
STARTCHAR 20020
ENCODING 20020
SWIDTH 1000 1000
DWIDTH 24 0
BBX 24 24 0 0
BITMAP
20400
38700
30600
30C00
230C0C
3B0FFE
331A00
333100
332180
3340C0
338080
33200C
333FFE
33318C
33318C
33318C
33318C
33318C
33318C
23318C
33FFC
3300C
32008
20000
ENDCHAR
STARTCHAR 20022
ENCODING 20022
SWIDTH 1000 1000
DWIDTH 24 0
BBX 24 24 0 0
BITMAP
0000
0000
0000
0000
0000
0000
8000
6000
3800
1C00
0E00
0600
0400
0000
0000
0000
0000
0000
0000
0000
0000
0000
0000
0000
ENDCHAR
STARTCHAR 20024
ENCODING 20024
SWIDTH 1000 1000
DWIDTH 24 0
BBX 24 24 0 0
BITMAP
4000
7000
6000
6000
6000
6180
3FFFC0
6180
6180
4180
8C180
4C180
3C180
18180
1E180
33184
33184
61184
40186
801FE
1000FC
200000
400000
0000
ENDCHAR
STARTCHAR 20025
ENCODING 20025
SWIDTH 1000 1000
DWIDTH 24 0
BBX 24 24 0 0
BITMAP
0000
20060
3FFF0
30060
32060
31060
31860
30C60
30C60
30860
3006C
7FFFFE
30060
30060
30060
30060
30060
30060
20060
60060
C0060
1807E0
1001C0
200080
ENDCHAR
STARTCHAR 20026
ENCODING 20026
SWIDTH 1000 1000
DWIDTH 24 0
BBX 24 24 0 0
BITMAP
1000
1C00
C1800
61800
31800
39800
11800
1818
3FFFFC
3018
3018
3018
6418
6618
6318
C198
C130
18030
30030
60030
C0070
1807E0
2001C0
400080
ENDCHAR
STARTCHAR 20027
ENCODING 20027
SWIDTH 1000 1000
DWIDTH 24 0
BBX 24 24 0 0
BITMAP
6000
3800
1C00
0C00
0810
0038
1FFFFC
1800
1800
1800
1800
1800
1830
1FFFF8
1800
1800
1800
1800
1800
1808
181C
7FFFFE
0000
0000
ENDCHAR
STARTCHAR 20029
ENCODING 20029
SWIDTH 1000 1000
DWIDTH 24 0
BBX 24 24 0 0
BITMAP
0000
0000
000C
7FFFFE
0000
0000
106418
1FF7FC
186618
186618
186618
1A6698
1A6698
1B66D8
1B66D8
196658
196658
186618
186618
186618
1BE618
18C6F8
188630
100420
ENDCHAR
STARTCHAR 20030
ENCODING 20030
SWIDTH 1000 1000
DWIDTH 24 0
BBX 24 24 0 0
BITMAP
4040
C2070
63060
318C0
31880
21100
010C
7FFFFE
38200
31100
61CC0
C1870
18193E
33FF88
401800
1800
1830
1FFFF8
1800
1800
1800
1800
1800
1000
ENDCHAR
STARTCHAR 20031
ENCODING 20031
SWIDTH 1000 1000
DWIDTH 24 0
BBX 24 24 0 0
BITMAP
0000
4000
7000
6000
6000
6000
6000
6000
6000
6000
6000
6000
6000
6000
6000
C000
C000
8000
18000
30000
60000
40000
80000
100000
ENDCHAR
STARTCHAR 20035
ENCODING 20035
SWIDTH 1000 1000
DWIDTH 24 0
BBX 24 24 0 0
BITMAP
0000
0060
1FFFF0
C060
C0C0
C0C0
C180
C180
C18C
C3FE
C10C
1800C
1800C
1800C
1800C
30018
30018
60018
C0018
80038
1007F0
2000E0
400040
0000
ENDCHAR
STARTCHAR 20037
ENCODING 20037
SWIDTH 1000 1000
DWIDTH 24 0
BBX 24 24 0 0
BITMAP
8000
E000
C000
18000
18300
3FF80
30700
60600
60C00
C0C00
180E00
101A00
201A00
3300
3100
6180
C080
180C0
30060
60070
C003C
30001E
400008
0000
ENDCHAR
STARTCHAR 20039
ENCODING 20039
SWIDTH 1000 1000
DWIDTH 24 0
BBX 24 24 0 0
BITMAP
0040
00E0
0FF0
7E00
FF000
3000
3000
3000
3008
301C
31FE
FE00
7F3000
3000
3000
3000
3004
3004
3004
3004
3006
3FFE
1FFC
0000
ENDCHAR
STARTCHAR 20040
ENCODING 20040
SWIDTH 1000 1000
DWIDTH 24 0
BBX 24 24 0 0
BITMAP
0000
0800
0E00
1C00
3800
3000
6000
C100
181C0
30380
60300
C0600
100C00
201800
403080
6040
C060
10030
20018
FFFFC
7F81C
6000C
0008
0000
ENDCHAR
STARTCHAR 20041
ENCODING 20041
SWIDTH 1000 1000
DWIDTH 24 0
BBX 24 24 0 0
BITMAP
0000
6000
3040
21870
21C60
20CC0
208C0
300C0
10180
18180
8300
C300
4600
6600
3C00
1800
3C00
6700
C3C0
380F0
6007E
180018
600008
0000
ENDCHAR
STARTCHAR 20043
ENCODING 20043
SWIDTH 1000 1000
DWIDTH 24 0
BBX 24 24 0 0
BITMAP
0000
6000
3000
1800
1800
1030
3FFFF8
00E0
01C0
0380
0700
0E00
1C00
3800
6000
C000
18000
20000
60000
1B0000
71FFFE
207FF8
0000
0000
ENDCHAR
STARTCHAR 20044
ENCODING 20044
SWIDTH 1000 1000
DWIDTH 24 0
BBX 24 24 0 0
BITMAP
2000
3800
3000
420C0
7FFE0
600C0
600C0
600C0
600C0
63F80
60700
60000
60018
FFFFC
40018
0018
0198
7FFFD8
0018
0018
0038
0FF0
00E0
0040
ENDCHAR
STARTCHAR 20045
ENCODING 20045
SWIDTH 1000 1000
DWIDTH 24 0
BBX 24 24 0 0
BITMAP
8000
E000
C008
1801C
1FFFE
33000
33000
63000
C3000
83018
103FFC
203000
403000
3000
3008
301C
3FFE
3000
3000
3000
3000
3000
3000
2000
ENDCHAR
STARTCHAR 20046
ENCODING 20046
SWIDTH 1000 1000
DWIDTH 24 0
BBX 24 24 0 0
BITMAP
0020
07F0
7FF8
1FF800
1820
1838
41870
21860
318C0
19980
19900
11A0C
7FFFFE
1800
1800
1800
1800
1800
1800
1800
1800
1F800
7000
2000
ENDCHAR
STARTCHAR 20047
ENCODING 20047
SWIDTH 1000 1000
DWIDTH 24 0
BBX 24 24 0 0
BITMAP
0000
0040
07E0
FFF0
3F8000
6000
3000
1800
1860
1FFFF0
01C0
0380
0600
0C00
3000
C000
18000
60000
1E0000
718000
20FFFE
7FF8
0000
0000
ENDCHAR
STARTCHAR 20048
ENCODING 20048
SWIDTH 1000 1000
DWIDTH 24 0
BBX 24 24 0 0
BITMAP
0020
401F0
60FF8
7FE00
60000
60800
60E00
C0C00
C0C00
C0C08
C0C1C
1FFFFE
80C00
10C00
1CC80
38C60
30C30
60C18
C0C1C
180C0E
200C04
40FC00
3800
1000
ENDCHAR
STARTCHAR 20050
ENCODING 20050
SWIDTH 1000 1000
DWIDTH 24 0
BBX 24 24 0 0
BITMAP
0000
01E0
20FF0
3FE00
30000
30000
30020
30070
3FFF8
30600
30600
30600
30600
30608
3061C
7FFFFE
0000
4000
F000
1C000
30000
C0000
300000
0000
ENDCHAR
STARTCHAR 20051
ENCODING 20051
SWIDTH 1000 1000
DWIDTH 24 0
BBX 24 24 0 0
BITMAP
0000
00E0
20FF0
3FF00
30000
30000
30020
30070
3FFF8
30600
30600
30600
30600
30608
3061C
7FFFFE
0000
0400
0380
00E0
0070
0038
0018
0000
ENDCHAR
STARTCHAR 20052
ENCODING 20052
SWIDTH 1000 1000
DWIDTH 24 0
BBX 24 24 0 0
BITMAP
0000
03E0
3FF0
1FFC00
3000
3000
600C
7FFFFE
C200
18100
18180
300C0
48270
8E3BE
30C318
40C300
C300
18300
18300
18300
30300
60300
80300
100200
ENDCHAR
STARTCHAR 20054
ENCODING 20054
SWIDTH 1000 1000
DWIDTH 24 0
BBX 24 24 0 0
BITMAP
0000
03E0
3FF0
1FFE00
1800
180C
7FFFFE
1800
11900
1D9C0
19990
3F999C
199B0
199C0
19984
19984
F9984
7999FE
2118FC
1800
1800
1800
1800
1000
ENDCHAR
STARTCHAR 20056
ENCODING 20056
SWIDTH 1000 1000
DWIDTH 24 0
BBX 24 24 0 0
BITMAP
03C0
3FE0
1FFE00
1800
180C
7FFFFE
11900
1D9C8
1999C
3F99B0
199C0
19980
7B980
3D7DFE
105AFC
D900
19900
318C0
61860
C1838
30181E
401808
1800
1000
ENDCHAR
STARTCHAR 20057
ENCODING 20057
SWIDTH 1000 1000
DWIDTH 24 0
BBX 24 24 0 0
BITMAP
0000
0000
0180
3FFFC0
03E0
0700
0E00
1C00
3800
7000
E000
1C000
38000
70000
E0008
C0008
180008
180008
300008
38001C
1FFFFC
FFFF8
0000
0000
ENDCHAR
STARTCHAR 20060
ENCODING 20060
SWIDTH 1000 1000
DWIDTH 24 0
BBX 24 24 0 0
BITMAP
0000
20000
38000
30000
300C0
300E0
301C0
306C0
338C0
3C0C0
300C0
F00C0
7300C0
300C0
300C0
301C0
30F84
30304
30204
30004
3000E
3FFFE
1FFFC
0000
ENDCHAR
STARTCHAR 20061
ENCODING 20061
SWIDTH 1000 1000
DWIDTH 24 0
BBX 24 24 0 0
BITMAP
8000
E000
C000
C000
C000
C300
FF80
3FC300
C300
C300
C300
C300
C300
C300
18300
18304
10304
30304
60304
C0306
1803FE
3001FC
400000
0000
ENDCHAR
STARTCHAR 20062
ENCODING 20062
SWIDTH 1000 1000
DWIDTH 24 0
BBX 24 24 0 0
BITMAP
4000
7000
E000
C010
18038
3FFFC
30000
60000
C0000
180200
27FF00
400C00
1800
3000
6000
C000
18004
30004
30004
60004
60006
3FFFE
1FFFC
0000
ENDCHAR
STARTCHAR 20063
ENCODING 20063
SWIDTH 1000 1000
DWIDTH 24 0
BBX 24 24 0 0
BITMAP
1000
1C00
1800
1800
41860
71870
619E0
61E60
67860
79860
1E1860
661860
61860
61860
61860
61BC0
61884
61804
61004
60004
60006
7FFFE
3FFFC
0000
ENDCHAR
STARTCHAR 20064
ENCODING 20064
SWIDTH 1000 1000
DWIDTH 24 0
BBX 24 24 0 0
BITMAP
0000
0000
0030
3FFFF8
0030
10030
8030
C030
C030
6030
6030
41B0
0E30
7030
1C030
F8060
7E0060
300060
100060
00E0
7FC0
0780
0300
0000
ENDCHAR
STARTCHAR 20065
ENCODING 20065
SWIDTH 1000 1000
DWIDTH 24 0
BBX 24 24 0 0
BITMAP
1000
1800
3C00
3000
6040
C060
180F0
201C0
FFF00
70600
0C00
3820
E038
10070
7FFE0
3C0C0
0180
0300
0600
1C00
7000
1C000
E0000
300000
ENDCHAR
STARTCHAR 20070
ENCODING 20070
SWIDTH 1000 1000
DWIDTH 24 0
BBX 24 24 0 0
BITMAP
2000
3860
3038
301C
300C
3064
1FFFF0
3060
3060
3060
3060
306C
7FFFFE
300C
300C
300C
3018
3018
3038
33F0
30E0
3040
3000
2000
ENDCHAR
STARTCHAR 20073
ENCODING 20073
SWIDTH 1000 1000
DWIDTH 24 0
BBX 24 24 0 0
BITMAP
20100
381C0
30180
30180
30180
31980
3FD80
30180
30180
30180
30180
233180
3FF980
303180
303180
303180
303184
303184
303184
303184
3FF186
3031FE
2020FC
0000
ENDCHAR
STARTCHAR 20080
ENCODING 20080
SWIDTH 1000 1000
DWIDTH 24 0
BBX 24 24 0 0
BITMAP
0000
0018
1FFFFC
0018
0818
30E30
18C20
1CC00
188C00
E0C00
60C00
30C00
20C08
0C1C
7FFFFE
1800
3C00
3300
60C0
C070
30038
C001C
30000C
400004
ENDCHAR
STARTCHAR 20081
ENCODING 20081
SWIDTH 1000 1000
DWIDTH 24 0
BBX 24 24 0 0
BITMAP
0100
71C0
3F980
3F8180
30180
30180
30180
31980
7FFD80
30180
30180
30180
233180
3FF980
303180
303180
303180
303184
303184
303184
3FF186
3031FE
2020FC
0000
ENDCHAR
STARTCHAR 20083
ENCODING 20083
SWIDTH 1000 1000
DWIDTH 24 0
BBX 24 24 0 0
BITMAP
0900
7DC0
7FD80
780180
20980
211D80
119980
193180
84980
7FFF80
1980
12180
1C180
18180
19D80
3E180
7F8180
3D8184
218184
18184
18186
1F81FE
700FC
20000
ENDCHAR
STARTCHAR 20094
ENCODING 20094
SWIDTH 1000 1000
DWIDTH 24 0
BBX 24 24 0 0
BITMAP
20100
381C0
30180
33180
7FFB0C
303FE
232600
3FF400
303800
303060
3FF7F0
303060
3030C0
3FF0C0
232180
30180
33184
7FFB04
30304
30604
30606
307FE
303FC
20000
ENDCHAR
STARTCHAR 20102
ENCODING 20102
SWIDTH 1000 1000
DWIDTH 24 0
BBX 24 24 0 0
BITMAP
0000
0018
3FFFFC
0030
00E0
0180
0600
1800
1C00
1800
1800
1800
1800
1800
1800
1800
1800
1800
1800
1800
1800
1F800
7000
2000
ENDCHAR
STARTCHAR 20104
ENCODING 20104
SWIDTH 1000 1000
DWIDTH 24 0
BBX 24 24 0 0
BITMAP
0000
00C0
7FFE0
01C0
8300
6400
3800
1C00
180C
7FFFFE
180C
1818
1820
1800
1800
1800
1800
1800
1800
1800
1800
1F800
7000
2000
ENDCHAR
STARTCHAR 20105
ENCODING 20105
SWIDTH 1000 1000
DWIDTH 24 0
BBX 24 24 0 0
BITMAP
8000
E000
C180
1FFC0
18300
30600
60860
FFFF0
101860
201860
1864
7FFFFE
1860
1860
1860
1860
FFFE0
1860
1840
1800
1800
1F800
7000
2000
ENDCHAR
STARTCHAR 20107
ENCODING 20107
SWIDTH 1000 1000
DWIDTH 24 0
BBX 24 24 0 0
BITMAP
1000
1C00
180C
7FFFFE
1800
41860
7FFF0
61860
61860
7FFE0
41840
1830
1FFFF8
1830
1834
7FFFFE
1830
1830
1FFFF0
1820
1800
1F800
7000
2000
ENDCHAR
STARTCHAR 20108
ENCODING 20108
SWIDTH 1000 1000
DWIDTH 24 0
BBX 24 24 0 0
BITMAP
0000
0000
0000
0010
0038
1FFFFC
0000
0000
0000
0000
0000
0000
0000
0000
0000
0000
0000
0008
001C
7FFFFE
0000
0000
0000
0000
ENDCHAR
STARTCHAR 20109
ENCODING 20109
SWIDTH 1000 1000
DWIDTH 24 0
BBX 24 24 0 0
BITMAP
0000
0040
00E0
FFFF0
0000
0000
0000
0008
001C
7FFFFE
1800
1800
1800
1800
1800
1800
1800
1800
1800
1800
1800
1F800
7000
2000
ENDCHAR
STARTCHAR 20110
ENCODING 20110
SWIDTH 1000 1000
DWIDTH 24 0
BBX 24 24 0 0
BITMAP
0000
0020
0070
1FFFF8
1800
1800
1800
1800
1808
181C
7FFFFE
1800
1800
1800
1800
1800
1800
1800
1800
1800
1800
1F800
7000
2000
ENDCHAR
STARTCHAR 20111
ENCODING 20111
SWIDTH 1000 1000
DWIDTH 24 0
BBX 24 24 0 0
BITMAP
0000
0060
FFFF0
0000
0000
0000
000C
7FFFFE
E000
C000
18000
18060
3FFF0
10060
0060
0060
0060
0060
00E0
00C0
3F80
0700
0200
0000
ENDCHAR
STARTCHAR 20113
ENCODING 20113
SWIDTH 1000 1000
DWIDTH 24 0
BBX 24 24 0 0
BITMAP
0000
0000
0060
FFFF0
0000
0000
0000
0000
000C
7FFFFE
2000
3800
6000
6000
C100
18080
300C0
60060
C0030
3FFFF8
1F8018
80010
0000
0000
ENDCHAR
STARTCHAR 20114
ENCODING 20114
SWIDTH 1000 1000
DWIDTH 24 0
BBX 24 24 0 0
BITMAP
0000
0000
0018
3FFFFC
1C000
18000
18000
18180
1FFC0
18180
30180
30180
30180
30180
30300
7FF00
20300
0300
0300
0308
031C
7FFFFE
0000
0000
ENDCHAR
STARTCHAR 20115
ENCODING 20115
SWIDTH 1000 1000
DWIDTH 24 0
BBX 24 24 0 0
BITMAP
0000
0030
1FFFF8
0000
0000
0000
0000
000C
7FFFFE
C180
C180
C180
C180
C180
C180
C180
18180
18180
30180
30180
60180
C0180
100180
200100
ENDCHAR
STARTCHAR 20116
ENCODING 20116
SWIDTH 1000 1000
DWIDTH 24 0
BBX 24 24 0 0
BITMAP
0000
0018
3FFFFC
6000
6000
6000
6000
6000
6000
6000
60C0
FFFE0
C0C0
C0C0
C0C0
C0C0
C0C0
C0C0
C0C0
C0C0
C0CC
7FFFFE
0000
0000
ENDCHAR
STARTCHAR 20117
ENCODING 20117
SWIDTH 1000 1000
DWIDTH 24 0
BBX 24 24 0 0
BITMAP
8100
E1C0
C180
C180
C180
C198
3FFFFC
C180
C180
C180
C180
C180
C18C
7FFFFE
18180
18180
18180
30180
30180
60180
C0180
180180
200180
400100
ENDCHAR
STARTCHAR 20120
ENCODING 20120
SWIDTH 1000 1000
DWIDTH 24 0
BBX 24 24 0 0
BITMAP
0000
0010
0038
3FFFFC
0000
0000
40060
7FFF0
60060
60060
60060
60060
7FFE0
60060
60060
60060
60060
7FFE0
40040
0008
001C
7FFFFE
0000
0000
ENDCHAR
STARTCHAR 20122
ENCODING 20122
SWIDTH 1000 1000
DWIDTH 24 0
BBX 24 24 0 0
BITMAP
0000
0000
0018
3FFFFC
6600
6600
6600
106610
8661C
86618
C6630
46630
66660
66640
666C0
66680
46700
6600
6600
6600
6600
7FFFFE
0000
0000
ENDCHAR
STARTCHAR 20123
ENCODING 20123
SWIDTH 1000 1000
DWIDTH 24 0
BBX 24 24 0 0
BITMAP
0400
10700
1C600
118610
1D861C
198638
19A660
19F6C4
198704
198604
198604
198604
1BF606
1F87FE
7C03FC
300000
00C0
FFFE0
0000
0000
000C
7FFFFE
0000
0000
ENDCHAR
STARTCHAR 20127
ENCODING 20127
SWIDTH 1000 1000
DWIDTH 24 0
BBX 24 24 0 0
BITMAP
0000
0030
FFFF8
0030
00C0
1300
1C00
119808
1FDBFC
199818
199A18
199918
1998B0
199870
199830
1F9870
1118D8
198C
FA04
3000
200C
7FFFFE
0000
0000
ENDCHAR
STARTCHAR 20128
ENCODING 20128
SWIDTH 1000 1000
DWIDTH 24 0
BBX 24 24 0 0
BITMAP
0000
0000
4000
3000
3800
1C00
0C08
081C
7FFFFE
0000
0000
0000
0000
0000
0000
0000
0000
0000
0000
0000
0000
0000
0000
0000
ENDCHAR
STARTCHAR 20129
ENCODING 20129
SWIDTH 1000 1000
DWIDTH 24 0
BBX 24 24 0 0
BITMAP
0000
3000
1800
1C00
0C08
081C
7FFFFE
60000
60000
60000
60000
60000
60000
60000
60000
60000
60000
60000
60010
60038
FFFFC
40000
0000
0000
ENDCHAR
STARTCHAR 20130
ENCODING 20130
SWIDTH 1000 1000
DWIDTH 24 0
BBX 24 24 0 0
BITMAP
6000
3000
3800
1808
101C
7FFFFE
0000
0000
10300
1FF80
18300
18300
18300
18300
18300
18300
18304
30304
30304
60304
C0306
3003FE
4001FC
0000
ENDCHAR
STARTCHAR 20132
ENCODING 20132
SWIDTH 1000 1000
DWIDTH 24 0
BBX 24 24 0 0
BITMAP
6000
3000
3800
1808
101C
7FFFFE
18200
1C180
30060
60238
C839C
18830C
208600
404600
4C00
2C00
3800
3800
6C00
C700
383E0
C00FE
700018
0000
ENDCHAR
STARTCHAR 20133
ENCODING 20133
SWIDTH 1000 1000
DWIDTH 24 0
BBX 24 24 0 0
BITMAP
3000
1800
1C08
081C
7FFFFE
4000
E000
18200
30380
20700
FFE00
78C40
1870
30E0
61C0
18300
60600
180D00
18C0
6060
18038
60018
180008
0000
ENDCHAR
STARTCHAR 20134
ENCODING 20134
SWIDTH 1000 1000
DWIDTH 24 0
BBX 24 24 0 0
BITMAP
2000
1000
1800
0C08
081C
7FFFFE
C300
C300
C300
8C300
EC380
CC360
18C330
18C318
10C318
20C30C
20C30C
418308
18300
30300
61F00
180600
600400
0000
ENDCHAR
STARTCHAR 20135
ENCODING 20135
SWIDTH 1000 1000
DWIDTH 24 0
BBX 24 24 0 0
BITMAP
3000
1800
0C08
081C
3FFFFE
10100
8180
C300
6200
8420C
FFFFE
C0000
C0000
C0000
C0000
C0000
C0000
C0000
80000
180000
300000
200000
400000
0000
ENDCHAR
STARTCHAR 20136
ENCODING 20136
SWIDTH 1000 1000
DWIDTH 24 0
BBX 24 24 0 0
BITMAP
2000
3000
1808
101C
7FFFFE
0000
40060
7FFF0
60060
60060
7FFE0
40040
0020
3FFFF0
0078
1180
1E00
1800
1800
1800
1800
1F800
7000
2000
ENDCHAR
STARTCHAR 20137
ENCODING 20137
SWIDTH 1000 1000
DWIDTH 24 0
BBX 24 24 0 0
BITMAP
3000
1800
0C08
081C
7FFFFE
0000
0000
80030
FFFF8
C1830
C1830
C1830
C1830
C1830
FFFF0
C1830
C1830
C1830
C1830
C1830
FFFF0
C0030
80020
0000
ENDCHAR
STARTCHAR 20139
ENCODING 20139
SWIDTH 1000 1000
DWIDTH 24 0
BBX 24 24 0 0
BITMAP
3000
1800
100C
7FFFFE
0000
400C0
7FFE0
600C0
600C0
7FFC0
40080
0020
FFFF0
00C0
1300
1C0C
7FFFFE
1800
1800
1800
1800
F800
3000
2000
ENDCHAR
STARTCHAR 20140
ENCODING 20140
SWIDTH 1000 1000
DWIDTH 24 0
BBX 24 24 0 0
BITMAP
3000
1800
1808
081C
7FFFFE
0000
40040
7FFF0
60060
60060
60060
60060
60060
7FFC0
41840
11800
1D980
318E0
61830
C1818
18181C
21F808
407000
2000
ENDCHAR
STARTCHAR 20141
ENCODING 20141
SWIDTH 1000 1000
DWIDTH 24 0
BBX 24 24 0 0
BITMAP
3000
1800
1018
3FFFFC
0000
200C0
3FFE0
300C0
300C0
3FFC0
300C0
20000C
3FFFFE
60000C
600048
4FFFE0
1800
1800
1800
1800
1800
1F800
7000
2000
ENDCHAR
STARTCHAR 20142
ENCODING 20142
SWIDTH 1000 1000
DWIDTH 24 0
BBX 24 24 0 0
BITMAP
3000
1C10
1838
3FFFFC
0000
200C0
3FFE0
300C0
300C0
3FFC0
20080
10000C
1FFFFE
100008
308310
60FFA0
C300
C304
C304
C304
18306
303FE
C01FC
700000
ENDCHAR
STARTCHAR 20146
ENCODING 20146
SWIDTH 1000 1000
DWIDTH 24 0
BBX 24 24 0 0
BITMAP
3000
1800
1800
1030
1FFFF8
0100
18180
C300
6200
440C
7FFFFE
1800
1800
1830
1FFFF8
1800
21B00
398C0
61870
C1838
30181C
41F808
7000
2000
ENDCHAR
STARTCHAR 20147
ENCODING 20147
SWIDTH 1000 1000
DWIDTH 24 0
BBX 24 24 0 0
BITMAP
3000
1800
1018
3FFFFC
0000
3FFC0
300C0
300C0
3FFC0
20080
20000C
3FFFFE
60010C
600F90
41F800
1E3020
31F8
FF00
3F3004
3004
3004
3FFE
1FFC
0000
ENDCHAR
STARTCHAR 20149
ENCODING 20149
SWIDTH 1000 1000
DWIDTH 24 0
BBX 24 24 0 0
BITMAP
3000
1800
080C
7FFFFE
20400
38700
34660
3FFFF0
30660
3D660
7F0E64
231B64
3313E
FD01E
23C40
7070
C8C0
38500
78600
1D8380
7198E0
1E07E
3C030
10000
ENDCHAR
STARTCHAR 20154
ENCODING 20154
SWIDTH 1000 1000
DWIDTH 24 0
BBX 24 24 0 0
BITMAP
0000
1000
1C00
1800
1800
1800
3800
3800
3400
3400
6400
6200
C200
C300
18100
18180
300C0
60060
40070
8003C
10001F
200008
400000
0000
ENDCHAR
STARTCHAR 20155
ENCODING 20155
SWIDTH 1000 1000
DWIDTH 24 0
BBX 24 24 0 0
BITMAP
20000
38000
30000
30000
60000
60000
60000
E0000
F0000
1E0000
160000
260000
260000
460000
60000
60000
60000
60000
60000
60000
60000
60000
60000
40000
ENDCHAR
STARTCHAR 20159
ENCODING 20159
SWIDTH 1000 1000
DWIDTH 24 0
BBX 24 24 0 0
BITMAP
20000
38000
30000
30030
67FF8
600E0
E00C0
C01C0
F0180
1E0300
1E0700
360600
260C00
460C00
61800
61804
63004
63004
66004
66004
66006
63FFE
61FFC
40000
ENDCHAR
STARTCHAR 20160
ENCODING 20160
SWIDTH 1000 1000
DWIDTH 24 0
BBX 24 24 0 0
BITMAP
10200
1C380
18300
30300
30300
60300
60300
F0308
E031C
1EFFFE
160300
260300
460300
60300
60300
60300
60300
60300
60300
60300
60300
60300
60300
40200
ENDCHAR
STARTCHAR 20161
ENCODING 20161
SWIDTH 1000 1000
DWIDTH 24 0
BBX 24 24 0 0
BITMAP
10000
1C000
18000
30000
30018
37FFC
60000
70000
E0000
E0000
1E0000
360000
260000
460000
60000
60000
60000
60000
60000
6000C
6FFFE
60000
60000
40000
ENDCHAR
STARTCHAR 20162
ENCODING 20162
SWIDTH 1000 1000
DWIDTH 24 0
BBX 24 24 0 0
BITMAP
20800
38E00
30C00
30C00
60C00
60C00
C0C18
CFFFC
1E0C18
1C0C18
2C0C18
2C0C18
4C0C18
C1818
C1818
C1818
C1818
C3018
C3018
C6030
C4030
C83F0
D00E0
A0040
ENDCHAR
STARTCHAR 20163
ENCODING 20163
SWIDTH 1000 1000
DWIDTH 24 0
BBX 24 24 0 0
BITMAP
20000
38000
30008
3001C
67FFE
600C0
E00C0
F00C0
1E00C0
1600C0
2600C0
2600C0
4600C0
600C0
600C0
600C0
600C0
600C0
600C0
600C0
600C0
61FC0
60380
40100
ENDCHAR
STARTCHAR 20164
ENCODING 20164
SWIDTH 1000 1000
DWIDTH 24 0
BBX 24 24 0 0
BITMAP
0000
0008
8001C
FFFFE
C0000
C0800
C0E00
C0C00
C0C00
C0C00
C0C00
C0C00
C0C00
C1A00
C1A00
C1900
C3100
C3180
1860C0
186060
10C038
21801E
220008
4C0000
ENDCHAR
STARTCHAR 20165
ENCODING 20165
SWIDTH 1000 1000
DWIDTH 24 0
BBX 24 24 0 0
BITMAP
20000
38000
30018
33FFC
60018
60018
61018
E1018
F0818
1E0830
160830
360830
260460
460460
606C0
60380
60380
60380
606C0
60C70
61838
6301E
64008
48000
ENDCHAR
STARTCHAR 20166
ENCODING 20166
SWIDTH 1000 1000
DWIDTH 24 0
BBX 24 24 0 0
BITMAP
10200
1C380
18300
18300
30300
30300
60300
60300
F8380
B0360
1B0330
130318
23030C
43030E
30306
30304
30300
30300
30300
30300
30300
30300
30300
20200
ENDCHAR
STARTCHAR 20167
ENCODING 20167
SWIDTH 1000 1000
DWIDTH 24 0
BBX 24 24 0 0
BITMAP
20800
38E00
30C00
60C00
60C00
C0C00
C0C60
CFFF0
1C0C60
1C0C60
2C0C60
2C0C60
4C0C60
C0C60
C0C60
C0C60
C0C60
C1864
C1864
C3064
C2064
C407E
C803C
90000
ENDCHAR
STARTCHAR 20169
ENCODING 20169
SWIDTH 1000 1000
DWIDTH 24 0
BBX 24 24 0 0
BITMAP
20000
38000
32060
63FF0
63060
63060
C3060
E3060
1C3060
1C3060
2C3060
2C3060
4C3060
C3060
C3060
C3060
C3064
C6064
C6064
CC066
C807E
D003C
E0000
80000
ENDCHAR
STARTCHAR 20170
ENCODING 20170
SWIDTH 1000 1000
DWIDTH 24 0
BBX 24 24 0 0
BITMAP
1000
1C00
3800
3400
6400
C200
18300
30180
630E0
C1878
381C1E
600C08
800800
0060
FFFF0
00C0
00C0
0180
0180
0300
0600
0600
0C00
1800
ENDCHAR
STARTCHAR 20171
ENCODING 20171
SWIDTH 1000 1000
DWIDTH 24 0
BBX 24 24 0 0
BITMAP
1000
1C00
1800
3800
3400
6200
C300
18180
300E0
4003E
190118
61C1C0
18180
18180
18180
18180
18180
30180
30180
60180
40180
80180
100180
0100
ENDCHAR
STARTCHAR 20173
ENCODING 20173
SWIDTH 1000 1000
DWIDTH 24 0
BBX 24 24 0 0
BITMAP
20000
38000
30030
27FF8
61830
61830
C1860
C1860
1E1860
1C18CC
2C19FE
2C188C
4C180C
C180C
C180C
C180C
C300C
C300C
C200C
C600C
C401C
C81F8
D0070
80020
ENDCHAR
STARTCHAR 20174
ENCODING 20174
SWIDTH 1000 1000
DWIDTH 24 0
BBX 24 24 0 0
BITMAP
0000
40200
70380
60300
60300
60300
60300
60300
60300
60300
70300
68380
6C680
66640
66640
C2C60
C0C60
C1830
181830
10301C
20E00E
418008
60000
0000
ENDCHAR
STARTCHAR 20177
ENCODING 20177
SWIDTH 1000 1000
DWIDTH 24 0
BBX 24 24 0 0
BITMAP
1000
1C00
1800
3400
3600
6200
C180
181C0
300E0
60078
9003F
11C088
618180
183C0
18E00
1B000
1C000
18020
18020
18020
18030
1FFF0
FFE0
0000
ENDCHAR
STARTCHAR 20179
ENCODING 20179
SWIDTH 1000 1000
DWIDTH 24 0
BBX 24 24 0 0
BITMAP
1000
1C00
3800
7400
E400
C200
18300
30180
600F0
FFF7E
130318
230300
30300
30300
30300
33F00
30E20
30420
30020
30030
3FFF0
1FFE0
0000
0000
ENDCHAR
STARTCHAR 20180
ENCODING 20180
SWIDTH 1000 1000
DWIDTH 24 0
BBX 24 24 0 0
BITMAP
20000
38000
30018
67FFC
60018
C0030
C0240
180380
180300
3C0300
2C0300
4C030C
8DFFFE
C0300
C0300
C0300
C0300
C0300
C0300
C0300
C0300
C3F00
C0E00
80400
ENDCHAR
STARTCHAR 20181
ENCODING 20181
SWIDTH 1000 1000
DWIDTH 24 0
BBX 24 24 0 0
BITMAP
20200
38380
30300
30300
60300
60300
C0308
E031C
1FFFFE
160300
260300
260300
460300
60300
60300
60300
60300
60300
60310
60338
6FFFC
60000
40000
0000
ENDCHAR
STARTCHAR 20182
ENCODING 20182
SWIDTH 1000 1000
DWIDTH 24 0
BBX 24 24 0 0
BITMAP
40200
70380
60300
60300
C4300
C7318
C633C
C63D8
1E6718
1C7B18
2DE318
4C6318
C6318
C6318
C6318
C63F8
C6330
C6304
C6204
C6004
C6006
C7FFE
C3FFC
80000
ENDCHAR
STARTCHAR 20183
ENCODING 20183
SWIDTH 1000 1000
DWIDTH 24 0
BBX 24 24 0 0
BITMAP
20100
381C0
30180
60180
60180
40188
C019C
DFFFE
1E0180
1C4180
2C4180
2C4180
4C2180
C2180
C1100
C1300
C0B00
C0600
C0700
C0F80
C18F0
C307E
8C018
30000
ENDCHAR
STARTCHAR 20184
ENCODING 20184
SWIDTH 1000 1000
DWIDTH 24 0
BBX 24 24 0 0
BITMAP
20040
38070
30060
30060
60060
60060
C006C
F7FFE
1E0060
160060
262060
261060
461860
60C60
60C60
60860
60060
60060
60060
60060
60060
607E0
601C0
40080
ENDCHAR
STARTCHAR 20185
ENCODING 20185
SWIDTH 1000 1000
DWIDTH 24 0
BBX 24 24 0 0
BITMAP
20200
38380
70300
60300
60300
E0300
C4310
1E731C
1C6318
3C6318
2C6318
4C6318
C6318
C6318
C6318
C6318
C6318
C6318
C6318
C6318
CFFF8
C4018
C0010
80000
ENDCHAR
STARTCHAR 20189
ENCODING 20189
SWIDTH 1000 1000
DWIDTH 24 0
BBX 24 24 0 0
BITMAP
1000
1C00
3800
3400
6600
C300
18180
300E0
60078
C003E
100010
6000C0
FFFE0
1800
1800
1800
1800
1800
1800
1800
1818
3FFFFC
0000
0000
ENDCHAR
STARTCHAR 20190
ENCODING 20190
SWIDTH 1000 1000
DWIDTH 24 0
BBX 24 24 0 0
BITMAP
20000
38000
30000
3000C
67FFE
6060C
C060C
C060C
1E060C
1C260C
2C260C
2C260C
4C660C
C460C
CC60C
C860C
C0C0C
C0C0C
C180C
C300C
C401C
C81F8
D0070
80020
ENDCHAR
STARTCHAR 20191
ENCODING 20191
SWIDTH 1000 1000
DWIDTH 24 0
BBX 24 24 0 0
BITMAP
20000
38018
300FC
607C0
67B00
60300
E0300
F0300
1E0308
16031C
36FFFE
260300
460300
60300
60300
60300
60300
60300
60300
60300
60300
60300
40300
0200
ENDCHAR
STARTCHAR 20193
ENCODING 20193
SWIDTH 1000 1000
DWIDTH 24 0
BBX 24 24 0 0
BITMAP
20800
38E00
30C00
30C00
6180C
61FFE
E3000
F2000
1E4000
1680C0
263FE0
260180
460300
60600
60600
60C00
60C04
61804
61804
63004
63006
63FFE
61FFC
40000
ENDCHAR
STARTCHAR 20195
ENCODING 20195
SWIDTH 1000 1000
DWIDTH 24 0
BBX 24 24 0 0
BITMAP
40800
70E00
60CC0
60C60
60C30
C0C20
C0C0C
E0FFE
1CFC00
1C0C00
2C0C00
2C0600
4C0600
8C0600
C0600
C0300
C0300
C0184
C0184
C00C4
C0074
C003E
8000E
0000
ENDCHAR
STARTCHAR 20196
ENCODING 20196
SWIDTH 1000 1000
DWIDTH 24 0
BBX 24 24 0 0
BITMAP
2000
3800
3000
6800
6400
C200
18300
30180
630C0
C1860
100C38
20081E
4000C8
FFFE0
00C0
0180
0300
0600
1C800
7000
3C00
0C00
0700
0200
ENDCHAR
STARTCHAR 20197
ENCODING 20197
SWIDTH 1000 1000
DWIDTH 24 0
BBX 24 24 0 0
BITMAP
0000
0040
100070
1C8060
184060
186060
183060
183860
181860
181060
180060
180060
1800C0
1810C0
1820C0
1840C0
1981A0
1E0330
1C0618
380C0C
10300C
C008
30000
0000
ENDCHAR
STARTCHAR 20200
ENCODING 20200
SWIDTH 1000 1000
DWIDTH 24 0
BBX 24 24 0 0
BITMAP
10000
1C000
18000
18018
37FFC
30000
60000
60000
F0000
1E0000
160018
263FFC
460000
60000
60000
60000
60000
60000
60000
6000C
6FFFE
60000
60000
40000
ENDCHAR
STARTCHAR 20202
ENCODING 20202
SWIDTH 1000 1000
DWIDTH 24 0
BBX 24 24 0 0
BITMAP
20000
38800
30C20
64638
64730
C4330
C2220
C2060
1E2060
1C1040
2C10C0
2C18C0
4C0880
C0D80
C0500
C0700
C0700
C0D80
C08C0
C1060
C2038
CC01E
D0008
80000
ENDCHAR
STARTCHAR 20203
ENCODING 20203
SWIDTH 1000 1000
DWIDTH 24 0
BBX 24 24 0 0
BITMAP
20100
381C0
30380
60300
60600
60600
C0C00
E1840
1C1070
1C20E0
2C40C0
2C8180
4D0180
C0300
C0600
C0420
C0C10
C1818
C300C
C40FC
CFF06
C6006
C0004
80000
ENDCHAR
STARTCHAR 20204
ENCODING 20204
SWIDTH 1000 1000
DWIDTH 24 0
BBX 24 24 0 0
BITMAP
40000
74000
62018
637FC
E2018
C8018
CE018
1EC018
1CC018
3CC018
2CC018
6CC018
4CC018
8CC018
CC018
CC018
CC018
CC018
CC018
CC018
CC018
CC1F8
C8070
80020
ENDCHAR
STARTCHAR 20208
ENCODING 20208
SWIDTH 1000 1000
DWIDTH 24 0
BBX 24 24 0 0
BITMAP
20000
38300
30F80
6590C
661FE
6618C
C618C
C618C
1C618C
1C618C
3C618C
2C618C
4C618C
C638C
C6D8C
C798C
C718C
CE1FC
C4198
C0190
C0180
C0180
80180
0100
ENDCHAR
STARTCHAR 20210
ENCODING 20210
SWIDTH 1000 1000
DWIDTH 24 0
BBX 24 24 0 0
BITMAP
20200
38380
30300
30300
60300
60300
C430C
C7FFE
1E630C
16630C
26630C
46630C
6630C
6630C
67FFC
6630C
64308
60300
60300
60300
60300
60300
40300
0200
ENDCHAR
STARTCHAR 20211
ENCODING 20211
SWIDTH 1000 1000
DWIDTH 24 0
BBX 24 24 0 0
BITMAP
40100
741C0
67180
66180
C6180
C6180
C6190
18619C
1E61B0
1C69C0
2C7D80
2C6180
4C6180
C6180
C6180
C6180
C6184
C6184
C6584
C6984
C7186
CE1FE
C40FC
80000
ENDCHAR
STARTCHAR 20213
ENCODING 20213
SWIDTH 1000 1000
DWIDTH 24 0
BBX 24 24 0 0
BITMAP
41000
71C00
61800
61800
63018
C3FFC
C6300
186300
1EC300
1C8300
2D0300
2C030C
4DFFFE
C0300
C0300
C0300
C0300
C0300
C0300
C0300
C0300
C0300
C0300
80200
ENDCHAR
STARTCHAR 20214
ENCODING 20214
SWIDTH 1000 1000
DWIDTH 24 0
BBX 24 24 0 0
BITMAP
20100
301C0
3A180
33980
63180
63180
63180
F6198
E7FFC
1E4180
168180
360180
26018C
46FFFE
60180
60180
60180
60180
60180
60180
60180
60180
60180
40100
ENDCHAR
STARTCHAR 20215
ENCODING 20215
SWIDTH 1000 1000
DWIDTH 24 0
BBX 24 24 0 0
BITMAP
20400
38700
30600
30D00
61900
61880
C30C0
E6060
1CC038
1CA09E
2D38E8
2E30C0
4C30C0
C30C0
C30C0
C30C0
C30C0
C30C0
C60C0
C60C0
CC0C0
C80C0
D00C0
A0080
ENDCHAR
STARTCHAR 20219
ENCODING 20219
SWIDTH 1000 1000
DWIDTH 24 0
BBX 24 24 0 0
BITMAP
20000
38010
30078
607FC
67F00
C0300
C0300
C0300
1E0300
1C0300
2C030C
2DFFFE
4C0300
C0300
C0300
C0300
C0300
C0300
C0300
C0300
C0318
CFFFC
C0000
80000
ENDCHAR
STARTCHAR 20221
ENCODING 20221
SWIDTH 1000 1000
DWIDTH 24 0
BBX 24 24 0 0
BITMAP
20080
390C0
31C80
61880
63080
C3040
C3040
E2060
1C6030
1CC01E
2C8068
2D7FF0
4D1860
C1860
C1860
C1860
C1860
C3060
C3060
C6060
C40E0
C8FC0
D0380
A0100
ENDCHAR
STARTCHAR 20223
ENCODING 20223
SWIDTH 1000 1000
DWIDTH 24 0
BBX 24 24 0 0
BITMAP
20000
38600
30300
60380
60100
C000C
DFFFE
C0C00
1E0C00
1C0C30
2C0FF8
2C0C30
4C0C30
C0C30
C0C30
C1830
C1830
C1830
C3030
C3030
C6070
CC7E0
D01C0
A0080
ENDCHAR
STARTCHAR 20225
ENCODING 20225
SWIDTH 1000 1000
DWIDTH 24 0
BBX 24 24 0 0
BITMAP
1000
1800
3800
3400
6200
C200
18180
300C0
61060
C1C3C
18181F
601808
821800
398C0
31FE0
31800
31800
31800
31800
31800
3180C
7FFFFE
0000
0000
ENDCHAR
STARTCHAR 20233
ENCODING 20233
SWIDTH 1000 1000
DWIDTH 24 0
BBX 24 24 0 0
BITMAP
40000
70C00
60600
60300
C020C
DFFFE
C0000
1E0000
1C20C0
1C3FE0
2C30C0
2C30C0
4C30C0
C30C0
C30C0
C30C0
C30C4
C60C4
C60C4
C40C6
CC0FE
C807C
90000
20000
ENDCHAR
STARTCHAR 20234
ENCODING 20234
SWIDTH 1000 1000
DWIDTH 24 0
BBX 24 24 0 0
BITMAP
40000
70000
60030
6FFF8
C0C30
C0C30
C0C30
1C0C36
1DFFFE
1C0C30
2C0C30
2C0C30
4C0C30
C0C30
CFFF0
C0C30
C1820
C1800
C1800
C3000
C2000
C4000
C8000
90000
ENDCHAR
STARTCHAR 20237
ENCODING 20237
SWIDTH 1000 1000
DWIDTH 24 0
BBX 24 24 0 0
BITMAP
40000
70000
60018
6FFFC
C0600
C0600
C0600
1E0600
1C0C00
3C0C30
2CFFF8
4C0C30
C0C30
C0C30
C0C30
C1830
C1830
C1830
C1830
C1830
C1834
DFFFE
C0000
80000
ENDCHAR
STARTCHAR 20238
ENCODING 20238
SWIDTH 1000 1000
DWIDTH 24 0
BBX 24 24 0 0
BITMAP
40400
70700
60600
60600
C060C
DFFFE
C0600
180600
1E0600
1C0630
2CFFF8
2C2030
4C2060
C1060
C10C0
C0880
C0D80
C0700
C0700
C0D80
C18F0
C607E
D8010
A0000
ENDCHAR
STARTCHAR 20239
ENCODING 20239
SWIDTH 1000 1000
DWIDTH 24 0
BBX 24 24 0 0
BITMAP
20400
38700
30600
60660
60630
60618
C0610
C0604
1EFFFE
1C0600
2C0600
2C0600
4C0D00
C0D00
C0C80
C0C80
C18C0
C1840
C3060
C2060
C4030
C801E
D0008
A0000
ENDCHAR
STARTCHAR 20240
ENCODING 20240
SWIDTH 1000 1000
DWIDTH 24 0
BBX 24 24 0 0
BITMAP
20800
38E80
30C40
30C60
60C30
60C20
C0C0C
E0C3E
1C0FC0
1DFC00
2C0C10
4C0C3C
C0C30
C0C60
C0C60
C06C0
C0780
C0304
C0F84
C1984
C60E4
D807C
C001E
80006
ENDCHAR
STARTCHAR 20241
ENCODING 20241
SWIDTH 1000 1000
DWIDTH 24 0
BBX 24 24 0 0
BITMAP
40400
70700
60600
60600
60600
C060C
DFFFE
1C0F00
1C0F00
3C1E80
2C1E80
4C36C0
C3640
C6660
C4620
CC630
C8618
D061E
E0608
C0600
C0600
C0600
C0600
80400
ENDCHAR
STARTCHAR 20247
ENCODING 20247
SWIDTH 1000 1000
DWIDTH 24 0
BBX 24 24 0 0
BITMAP
1000
1C00
3800
3400
6600
C300
18180
300E0
60278
E039E
138308
630300
30300
30300
28300
66380
67680
43440
C2C60
181830
103018
20601E
418008
20000
ENDCHAR
STARTCHAR 20248
ENCODING 20248
SWIDTH 1000 1000
DWIDTH 24 0
BBX 24 24 0 0
BITMAP
20800
38E00
30C80
30CC0
60C60
60C30
C0C20
C0C0C
1EFFFE
1C0D80
2C0D80
4C0D80
C1980
C1980
C1980
C1980
C1180
C3184
C2184
C6184
C4186
C81FE
D00FC
A0000
ENDCHAR
STARTCHAR 20249
ENCODING 20249
SWIDTH 1000 1000
DWIDTH 24 0
BBX 24 24 0 0
BITMAP
40400
70700
60600
60600
60600
C0610
C461C
C4630
1E6660
1C66C0
2CE700
2CCD00
4C8D00
C0C80
C0C80
C0C80
C18C0
C1860
C3060
C3030
C6038
C801E
D0008
A0000
ENDCHAR
STARTCHAR 20250
ENCODING 20250
SWIDTH 1000 1000
DWIDTH 24 0
BBX 24 24 0 0
BITMAP
1000
1C00
3800
7400
6200
C300
181C0
300F0
6037E
19FFB0
600000
0000
0018
3FFFFC
2000
3800
7000
6000
C180
180E0
20070
FFFF0
78030
0020
ENDCHAR
STARTCHAR 20251
ENCODING 20251
SWIDTH 1000 1000
DWIDTH 24 0
BBX 24 24 0 0
BITMAP
40000
70000
6400C
67FFE
C6000
C6020
C6038
1E6830
1C6430
2C6260
2C6160
4C60C0
C60C0
C61E0
C6130
C6330
C6218
C6418
C6810
C6000
C600C
CFFFE
C4000
80000
ENDCHAR
STARTCHAR 20254
ENCODING 20254
SWIDTH 1000 1000
DWIDTH 24 0
BBX 24 24 0 0
BITMAP
1000
1C00
3800
7400
6200
C300
191C0
31CF0
6183E
181818
241840
431870
198C0
19980
11908
1A1C
3FFFFE
1800
1800
1800
1800
1800
1800
1000
ENDCHAR
STARTCHAR 20255
ENCODING 20255
SWIDTH 1000 1000
DWIDTH 24 0
BBX 24 24 0 0
BITMAP
40400
70700
60600
60618
DFFFC
C0600
C0600
180630
1EFFF8
3C0600
2C0600
4C060C
DFFFE
C060C
C060C
C060C
C060C
C061C
C06F8
C0670
C0620
C0600
C0600
80400
ENDCHAR
STARTCHAR 20256
ENCODING 20256
SWIDTH 1000 1000
DWIDTH 24 0
BBX 24 24 0 0
BITMAP
40200
70380
60300
60300
C0618
CFFFC
C0C00
E0C00
1C0C00
1C180C
2DFFFE
2C1800
4C1000
C3010
C7FF8
C2030
C0060
C00C0
C3180
C0D00
C0780
C01C0
C00E0
80040
ENDCHAR
STARTCHAR 20258
ENCODING 20258
SWIDTH 1000 1000
DWIDTH 24 0
BBX 24 24 0 0
BITMAP
40000
70000
6000C
6FFFE
C0060
C2060
C3860
1E3060
1C3060
2C3066
2C7FFF
4C23E0
C0360
C0660
C0660
C0C60
C1860
C3060
C6060
C8060
D0060
C07E0
C01C0
80080
ENDCHAR
STARTCHAR 20260
ENCODING 20260
SWIDTH 1000 1000
DWIDTH 24 0
BBX 24 24 0 0
BITMAP
41000
71C00
61800
61800
C300C
C3FFE
C6000
C4400
1E8700
1C8600
2D0618
2C7FFC
4C0618
C0618
C0618
C0618
C0418
C0C18
C0C18
C1818
C3038
C63F0
C80E0
90040
ENDCHAR
STARTCHAR 20261
ENCODING 20261
SWIDTH 1000 1000
DWIDTH 24 0
BBX 24 24 0 0
BITMAP
21000
39C00
31810
31838
31830
61860
618C0
61900
F1A00
E1C00
16180C
17FFFE
261900
461900
61880
61880
618C0
61860
61870
618B8
61B1E
61E08
63800
41000
ENDCHAR
STARTCHAR 20262
ENCODING 20262
SWIDTH 1000 1000
DWIDTH 24 0
BBX 24 24 0 0
BITMAP
20400
38700
30600
30D00
60900
61880
C18C0
83060
E6030
1C401E
2C9008
2D1C20
4E1870
C18C0
C1B80
C1C00
C1800
C1808
C1808
C1808
C180C
C1FFC
C0FF8
80000
ENDCHAR
STARTCHAR 20263
ENCODING 20263
SWIDTH 1000 1000
DWIDTH 24 0
BBX 24 24 0 0
BITMAP
20200
38380
30300
60700
60C80
C0CC0
C1860
1C3038
1E601E
2CE0C8
2D3FE0
4C30C0
8C30C0
C30C0
C30C0
C30C0
C37C0
C3188
C3108
C3008
C300C
C3FFC
C1FF8
80000
ENDCHAR
STARTCHAR 20266
ENCODING 20266
SWIDTH 1000 1000
DWIDTH 24 0
BBX 24 24 0 0
BITMAP
20200
38380
30300
34300
66300
63300
62300
7020C
EFFFE
E060C
1E060C
16060C
26068C
4606CC
6046C
60C4C
60C0C
6080C
6180C
61818
63038
621F0
64070
48020
ENDCHAR
STARTCHAR 20267
ENCODING 20267
SWIDTH 1000 1000
DWIDTH 24 0
BBX 24 24 0 0
BITMAP
20200
38300
30180
30180
60100
6200C
E3FFE
E601C
1F6018
164010
260020
260000
460000
60000
60000
60000
60000
60000
60008
6001C
6FFFE
60000
60000
40000
ENDCHAR
STARTCHAR 20271
ENCODING 20271
SWIDTH 1000 1000
DWIDTH 24 0
BBX 24 24 0 0
BITMAP
40000
70200
60380
60600
60400
C4808
C7FFC
C6018
1E6018
1C6018
2C6018
2C6018
4C6018
C7FF8
C6018
C6018
C6018
C6018
C6018
C6018
C7FF8
C6018
C4010
80000
ENDCHAR
STARTCHAR 20272
ENCODING 20272
SWIDTH 1000 1000
DWIDTH 24 0
BBX 24 24 0 0
BITMAP
40200
70380
60300
60300
C0308
C031C
DFFFE
C0300
1E0300
1C0300
2C0300
2C4318
4C7FFC
8C6018
C6018
C6018
C6018
C6018
C6018
C6018
C7FF8
C6018
C4010
80000
ENDCHAR
STARTCHAR 20274
ENCODING 20274
SWIDTH 1000 1000
DWIDTH 24 0
BBX 24 24 0 0
BITMAP
20000
38000
34018
37FFC
66018
66018
C6018
C6018
1E7FF8
1C6400
3C6710
2C661C
4C6630
C6660
C66C0
C6700
C6604
C6604
C4604
CC604
C8606
D07FE
C03FC
80000
ENDCHAR
STARTCHAR 20276
ENCODING 20276
SWIDTH 1000 1000
DWIDTH 24 0
BBX 24 24 0 0
BITMAP
40400
70700
60620
68630
C4638
C6660
C3640
1C2680
1E0618
3DFFFC
2C0600
4C0600
C0600
C060C
DFFFE
C0600
C0600
C0600
C0600
C0600
C0600
C0600
C0600
80400
ENDCHAR
STARTCHAR 20278
ENCODING 20278
SWIDTH 1000 1000
DWIDTH 24 0
BBX 24 24 0 0
BITMAP
20400
38700
30E00
60D00
61980
C1080
C3040
86060
1E4438
1C861E
2D0308
2C0200
4C0030
CFFF8
C0070
C0060
C00C0
C2180
C1A00
C0E00
C0700
C0380
C0180
80080
ENDCHAR
STARTCHAR 20280
ENCODING 20280
SWIDTH 1000 1000
DWIDTH 24 0
BBX 24 24 0 0
BITMAP
20200
38380
30300
30300
60300
64318
C7FFC
C6318
E6318
1C6318
1C7FF8
2C6318
4C6318
C6318
C6318
C7FF8
C6318
C4310
C0300
C0300
C0300
C0300
80300
0200
ENDCHAR
STARTCHAR 20282
ENCODING 20282
SWIDTH 1000 1000
DWIDTH 24 0
BBX 24 24 0 0
BITMAP
20000
38000
30018
67FFC
60018
60018
C0198
DFFD8
1C0018
1E0018
2C4318
2C7F98
4C6318
C6318
C6318
C6318
C6318
C7F18
C6318
C4218
C0018
C01F8
C0070
80020
ENDCHAR
STARTCHAR 20284
ENCODING 20284
SWIDTH 1000 1000
DWIDTH 24 0
BBX 24 24 0 0
BITMAP
40000
70020
60038
64030
67030
C6430
C6630
C6330
186330
186230
2E6030
2C6030
4C6030
C6030
C6030
C6260
C6460
C6870
C70C8
CE0CC
C4186
C0306
C0C04
83000
ENDCHAR
STARTCHAR 20285
ENCODING 20285
SWIDTH 1000 1000
DWIDTH 24 0
BBX 24 24 0 0
BITMAP
88000
EE000
CC000
CC000
CC08C
18CCFE
1BFECC
18CCCC
1CCCCC
38CCCC
78CCCC
58CCCC
98CCCC
18CCCC
18CCCC
18CCCC
18CCCC
198CCC
198CFC
1B0CCC
1A7CCC
1C1888
180000
100000
ENDCHAR
STARTCHAR 20291
ENCODING 20291
SWIDTH 1000 1000
DWIDTH 24 0
BBX 24 24 0 0
BITMAP
40000
70000
60000
64018
67FFC
C6318
C6318
186318
1E6318
2C6318
2C6318
4C7FF8
C6318
C6318
C6318
C6318
C6318
C6318
C6318
C7FF8
C6018
C6018
C4010
80000
ENDCHAR
STARTCHAR 20294
ENCODING 20294
SWIDTH 1000 1000
DWIDTH 24 0
BBX 24 24 0 0
BITMAP
40000
70000
62018
63FFC
C3018
C3018
183018
183018
183018
3E3FF8
2C3018
4C3018
8C3018
C3018
C3018
C3FF8
C3018
C2000
C0000
C0000
C000C
CFFFE
C0000
80000
ENDCHAR
STARTCHAR 20301
ENCODING 20301
SWIDTH 1000 1000
DWIDTH 24 0
BBX 24 24 0 0
BITMAP
20400
38600
30300
30300
60200
60018
EFFFC
E0000
1E2040
362070
263060
461060
61040
61840
61C40
60CC0
60C80
60C80
60880
60100
6010C
7FFFE
60000
40000
ENDCHAR
STARTCHAR 20302
ENCODING 20302
SWIDTH 1000 1000
DWIDTH 24 0
BBX 24 24 0 0
BITMAP
20010
38078
343FC
67F80
66180
C6180
C6180
E6180
1C6180
1C618C
2C7FFE
2C6180
4C6180
C60C0
C60C0
C60C0
C62C4
C6464
C7864
C7234
CE31C
C418E
C0186
80100
ENDCHAR
STARTCHAR 20303
ENCODING 20303
SWIDTH 1000 1000
DWIDTH 24 0
BBX 24 24 0 0
BITMAP
20000
38C00
30600
60700
60310
C0238
DFFFC
C0600
1E0600
1C0600
2C0600
2C0600
4C0630
CFFF8
C0600
C0600
C0600
C0600
C0600
C0608
C061C
DFFFE
C0000
80000
ENDCHAR
STARTCHAR 20304
ENCODING 20304
SWIDTH 1000 1000
DWIDTH 24 0
BBX 24 24 0 0
BITMAP
20400
38700
30600
70600
60608
60C1C
DFFFE
C0600
181800
1E1800
2C1800
2C3018
4C3FFC
4C3180
C6180
C5180
CC180
C8180
D0180
E0180
C018C
DFFFE
C0000
80000
ENDCHAR
STARTCHAR 20305
ENCODING 20305
SWIDTH 1000 1000
DWIDTH 24 0
BBX 24 24 0 0
BITMAP
40400
70700
60600
60600
C0608
C0C1C
DFFFE
C0C00
1E0C00
1C1800
2C1800
4C3018
C3FFC
C7818
C5818
C9818
D1818
E1818
C1818
C1818
C1FF8
C1818
C1810
81000
ENDCHAR
STARTCHAR 20307
ENCODING 20307
SWIDTH 1000 1000
DWIDTH 24 0
BBX 24 24 0 0
BITMAP
40400
70700
60600
60600
C0608
C061C
DFFFE
1C0E80
1E1E80
3C1E80
2C36C0
2C3640
4C6640
C6620
CC630
C8618
D065E
EFFE8
C0600
C0600
C0600
C0600
C0600
80400
ENDCHAR
STARTCHAR 20309
ENCODING 20309
SWIDTH 1000 1000
DWIDTH 24 0
BBX 24 24 0 0
BITMAP
40000
70008
6001C
6FFFE
C0030
C0030
C0030
C4330
1E7FB0
1C6330
2C6330
2C6330
4C6330
C6330
C6330
C7F30
C6230
C4030
C0030
C0030
C0030
C03F0
C00E0
80040
ENDCHAR
STARTCHAR 20311
ENCODING 20311
SWIDTH 1000 1000
DWIDTH 24 0
BBX 24 24 0 0
BITMAP
20600
38300
30180
30180
6410C
67FFE
C400C
CC808
1D8E10
3C0C00
2C0C20
4C0C78
C0CE0
C0D80
C0E00
C0C00
C0C00
C0C04
C0C04
C0C04
C0C06
C0FFE
C07FC
80000
ENDCHAR
STARTCHAR 20312
ENCODING 20312
SWIDTH 1000 1000
DWIDTH 24 0
BBX 24 24 0 0
BITMAP
1000
1C00
3800
3400
6600
C300
18180
300E0
60178
DFFBE
300010
400000
0030
1FFFF8
1800
11900
398C0
71870
E1838
18181C
301808
40F800
7000
2000
ENDCHAR
STARTCHAR 20313
ENCODING 20313
SWIDTH 1000 1000
DWIDTH 24 0
BBX 24 24 0 0
BITMAP
1000
1C00
3800
3400
6600
C300
18180
300E0
60338
DFF9E
101808
601800
1830
1FFFF8
1800
11900
1D8C0
31870
61838
C181C
101808
61F800
7000
2000
ENDCHAR
STARTCHAR 20314
ENCODING 20314
SWIDTH 1000 1000
DWIDTH 24 0
BBX 24 24 0 0
BITMAP
20200
38380
30300
32300
63B00
63300
63318
C7FFC
E6300
1C4300
1C8300
2C030C
2DFFFE
4C0380
C0380
C0280
C0640
C0640
C0C60
C0C30
C1818
C301E
C4008
88000
ENDCHAR
STARTCHAR 20315
ENCODING 20315
SWIDTH 1000 1000
DWIDTH 24 0
BBX 24 24 0 0
BITMAP
20880
38EE0
30CC0
60CC0
60CCC
CFFFE
C0CCC
1E0CCC
1C8CCC
2CFFFC
2CCCC8
4CCCC0
CCCCC
DFFFE
C8CCC
C0CCC
C0CCC
C18CC
C10CC
C30FC
C60C8
CC0C0
900C0
20080
ENDCHAR
STARTCHAR 20316
ENCODING 20316
SWIDTH 1000 1000
DWIDTH 24 0
BBX 24 24 0 0
BITMAP
10800
1CE00
18C00
30C08
3181C
61FFE
63600
F2600
E6600
164600
168618
2607FC
460600
60600
60600
6060C
607FE
60600
60600
60600
60600
60600
60600
40400
ENDCHAR
STARTCHAR 20317
ENCODING 20317
SWIDTH 1000 1000
DWIDTH 24 0
BBX 24 24 0 0
BITMAP
20800
38E00
30C00
31800
6180C
63FFE
C300C
C600C
1EC00C
3CA18C
2D3FCC
4E318C
8C318C
C318C
C318C
C318C
C318C
C3F8C
C318C
C210C
C001C
C00F8
C0030
80020
ENDCHAR
STARTCHAR 20318
ENCODING 20318
SWIDTH 1000 1000
DWIDTH 24 0
BBX 24 24 0 0
BITMAP
40000
70030
6FFF8
60000
C0000
C0000
C0018
DFFFC
1E0800
1C0E00
2C0C00
2C180C
4FFFFE
C30E0
C30C0
C60C0
C6080
C1980
C0700
C07C0
C1C70
C3038
CC018
90000
ENDCHAR
STARTCHAR 20319
ENCODING 20319
SWIDTH 1000 1000
DWIDTH 24 0
BBX 24 24 0 0
BITMAP
20800
38E00
30C00
61818
61FFC
63030
C6830
C4860
1E84C0
1D0780
3C0300
2C0FC0
4C18F0
C703E
D8610
C0300
C0180
C0180
C0000
C3E00
C07C0
C01E0
C0070
80020
ENDCHAR
STARTCHAR 20320
ENCODING 20320
SWIDTH 1000 1000
DWIDTH 24 0
BBX 24 24 0 0
BITMAP
0800
20E00
38C00
31800
61800
E300C
C3FFE
C620C
1E6390
3CC300
2C8300
4D2300
4C3B60
C3330
C6318
C630C
C430C
CC306
C8306
D0304
C0300
C3F00
C0E00
80400
ENDCHAR
STARTCHAR 20323
ENCODING 20323
SWIDTH 1000 1000
DWIDTH 24 0
BBX 24 24 0 0
BITMAP
40000
70000
6400C
67FFE
C630C
C630C
C630C
E630C
1C7FFC
1C630C
2C630C
2C630C
4C630C
C7FFC
C630C
C630C
C630C
CC30C
CC30C
CC30C
D837C
D0318
A0310
0200
ENDCHAR
STARTCHAR 20324
ENCODING 20324
SWIDTH 1000 1000
DWIDTH 24 0
BBX 24 24 0 0
BITMAP
40000
70008
6001C
6FFFE
C1800
C1800
C1800
1C1860
1E1FF0
3C3060
2C3060
4C3060
8C3660
C3360
C3360
C6260
C6060
C6064
C6364
C6C64
C7066
CE07E
C403C
80000
ENDCHAR
STARTCHAR 20325
ENCODING 20325
SWIDTH 1000 1000
DWIDTH 24 0
BBX 24 24 0 0
BITMAP
1000
1C00
3800
7400
E600
C300
18180
300C0
60070
1C003E
300318
43FF80
0000
42040
21070
210C0
318C0
30C80
18D00
18900
10200
020C
7FFFFE
0000
ENDCHAR
STARTCHAR 20327
ENCODING 20327
SWIDTH 1000 1000
DWIDTH 24 0
BBX 24 24 0 0
BITMAP
20400
38700
30600
30600
60630
607F8
E0600
F0600
160600
16060C
26FFFE
460400
60700
60600
60780
60660
60638
6061C
60608
60600
60600
60600
60600
40400
ENDCHAR
STARTCHAR 20329
ENCODING 20329
SWIDTH 1000 1000
DWIDTH 24 0
BBX 24 24 0 0
BITMAP
80000
E0000
D0030
DFFF8
D8030
98030
198130
1DBFB0
398430
398430
59A4B0
59BFB0
99A4B0
19A4B0
19A4B0
19A4B0
19A4B0
19A4B2
19A7B2
19251A
1B041A
1B040F
1A0403
140000
ENDCHAR
STARTCHAR 20332
ENCODING 20332
SWIDTH 1000 1000
DWIDTH 24 0
BBX 24 24 0 0
BITMAP
20800
38E00
30C08
60C1E
60C98
CFFF0
C0C60
E0C60
1C0CC0
3C0D8C
2FFFFE
4C0600
C0C10
C1830
C3878
C78C0
CDB08
D1C08
E1808
C1808
C180C
C1FFC
C0FF8
80000
ENDCHAR
STARTCHAR 20335
ENCODING 20335
SWIDTH 1000 1000
DWIDTH 24 0
BBX 24 24 0 0
BITMAP
20040
39070
30860
60CC0
60C80
60498
CFFFC
C0300
1F0300
160300
360330
267FF8
460300
60300
60300
6030C
7FFFE
60300
60300
60300
60300
60300
60300
40200
ENDCHAR
STARTCHAR 20336
ENCODING 20336
SWIDTH 1000 1000
DWIDTH 24 0
BBX 24 24 0 0
BITMAP
40000
70008
6001C
6FFFE
60300
C0600
C0600
182418
1E3FFC
3C3018
2C3018
2C3018
4C3018
C3018
C3FF8
C3018
C3018
C3018
C3018
C3018
C3FF8
C3018
C3010
82000
ENDCHAR
STARTCHAR 20339
ENCODING 20339
SWIDTH 1000 1000
DWIDTH 24 0
BBX 24 24 0 0
BITMAP
20200
38380
30300
60300
60318
67FFC
C0300
C0300
180300
1E030C
3CFFFE
2C0200
4C0380
C0300
C0300
C0318
C7FFC
C0300
C0300
C0300
C030C
DFFFE
C0000
80000
ENDCHAR
STARTCHAR 20340
ENCODING 20340
SWIDTH 1000 1000
DWIDTH 24 0
BBX 24 24 0 0
BITMAP
20000
38000
3000C
7FFFE
61830
61830
E1830
C1FF0
1E1830
1C1830
2C1830
2C1830
4C1FF0
C1830
C1830
C1830
C1836
C19FF
DFE30
C0030
C0030
C0030
C0030
80020
ENDCHAR
STARTCHAR 20342
ENCODING 20342
SWIDTH 1000 1000
DWIDTH 24 0
BBX 24 24 0 0
BITMAP
40400
70700
60600
60600
C060C
DFFFE
C0600
180600
1E0600
3C0618
2CFFFC
4C0000
8C0000
C4030
C7FF8
C6030
C6030
C6030
C6030
C6030
C6030
C7FF0
C6030
84020
ENDCHAR
STARTCHAR 20347
ENCODING 20347
SWIDTH 1000 1000
DWIDTH 24 0
BBX 24 24 0 0
BITMAP
41100
71DC0
61980
61980
61984
C198E
C9998
E5990
1C79E0
1C5980
3C19C0
2C19A0
4C3998
C798C
DD984
C9980
C1980
C1984
C3184
C3184
C6186
CC1FE
900FC
20000
ENDCHAR
STARTCHAR 20348
ENCODING 20348
SWIDTH 1000 1000
DWIDTH 24 0
BBX 24 24 0 0
BITMAP
20C00
38600
30300
6020C
6FFFE
60000
C2080
E3860
1C3038
3C609C
2CD0EC
4D90C4
E10C0
C1180
C0980
C0B00
C0E00
C0600
C0F00
C1980
C30F0
C607E
98018
20000
ENDCHAR
STARTCHAR 20350
ENCODING 20350
SWIDTH 1000 1000
DWIDTH 24 0
BBX 24 24 0 0
BITMAP
40080
710C0
61C80
630C0
C3040
C6060
E6030
1CC01C
1CBFFF
3D3034
2E3030
4C3030
C3FF0
C3030
C3030
C3030
C3FF0
C3030
C3030
C3030
C3030
C31F0
C3060
82040
ENDCHAR
STARTCHAR 20351
ENCODING 20351
SWIDTH 1000 1000
DWIDTH 24 0
BBX 24 24 0 0
BITMAP
20200
38380
30300
6030C
6FFFE
C0300
C0300
C4318
1C7FFC
1C6318
2C6318
4C6318
C6318
C7FF8
C4310
C1300
C1300
C0F00
C0600
C0D80
C18F0
C303F
8C00C
10000
ENDCHAR
STARTCHAR 20355
ENCODING 20355
SWIDTH 1000 1000
DWIDTH 24 0
BBX 24 24 0 0
BITMAP
40000
70000
64030
67FF8
C6030
C6030
C6030
186030
1E7FF0
3C4020
2C0000
4C4440
C7770
C6660
C6660
C6660
C6660
C6664
C6664
C4664
CC666
C867E
D063C
80400
ENDCHAR
STARTCHAR 20356
ENCODING 20356
SWIDTH 1000 1000
DWIDTH 24 0
BBX 24 24 0 0
BITMAP
20000
38000
30018
6FFFC
60600
C0700
C0C40
1E1830
1C3018
2CFFFC
2C700C
4C0208
C0380
C0300
C0318
CFFFC
C0300
C0300
C0300
C0300
C030C
DFFFE
C0000
80000
ENDCHAR
STARTCHAR 20360
ENCODING 20360
SWIDTH 1000 1000
DWIDTH 24 0
BBX 24 24 0 0
BITMAP
40800
70E00
60C00
61810
61FF8
C2030
C3060
848C0
1C8D80
1D0B80
2C06C0
2C1980
4C6304
D87FE
C040C
C0A18
C1130
C21B0
C4160
C80C0
C0180
C0600
C1800
8E000
ENDCHAR
STARTCHAR 20361
ENCODING 20361
SWIDTH 1000 1000
DWIDTH 24 0
BBX 24 24 0 0
BITMAP
40800
70E00
60C00
60C0C
DFFFE
C1900
C3080
1E30C0
1C6160
3CDFB8
2C801E
4D0068
EFFF0
C1800
C1800
C3060
C7FF0
C2060
C0060
C00C0
C00C0
C0FC0
C0380
80200
ENDCHAR
STARTCHAR 20363
ENCODING 20363
SWIDTH 1000 1000
DWIDTH 24 0
BBX 24 24 0 0
BITMAP
40008
7000E
6030C
DFF8C
C300C
C304C
18306C
1C664C
3C7F4C
2CC64C
2CC64C
4C864C
D4C4C
D6C4C
E3C4C
C2C4C
C184C
C184C
C300C
C600C
C800C
D00FC
A0038
0010
ENDCHAR
STARTCHAR 20365
ENCODING 20365
SWIDTH 1000 1000
DWIDTH 24 0
BBX 24 24 0 0
BITMAP
20400
38700
30600
60618
6FFFC
60600
C0600
C0600
1E060C
1DFFFE
3C0080
2C00E0
4C00C0
C00CC
DFFFE
C00C0
C30C0
C18C0
C1CC0
C08C0
C00C0
C0FC0
C0380
80100
ENDCHAR
STARTCHAR 20367
ENCODING 20367
SWIDTH 1000 1000
DWIDTH 24 0
BBX 24 24 0 0
BITMAP
20200
38380
32300
63B00
63300
66318
C7FFC
EC300
1C8300
1D0300
2C030C
2DFFFE
4C0F40
C0F40
C1B60
C1B20
C1330
C3330
C6318
C830E
D0308
C0300
C0300
80200
ENDCHAR
STARTCHAR 20369
ENCODING 20369
SWIDTH 1000 1000
DWIDTH 24 0
BBX 24 24 0 0
BITMAP
40800
70E00
60C00
60C0C
6FFFE
C1800
C1800
C3030
1E3FF8
1C7030
3C7030
2CF030
4CBFF0
D3030
E3030
C3030
C3FF0
C3030
C3030
C3030
C3030
C31F0
C3060
82040
ENDCHAR
STARTCHAR 20372
ENCODING 20372
SWIDTH 1000 1000
DWIDTH 24 0
BBX 24 24 0 0
BITMAP
40200
70780
60600
60C40
C1830
C2018
CFFFC
E420C
1C0384
1C2300
3C3300
2C6318
4CFFFC
C8300
D0300
C030C
DFFFE
C0300
C0300
C0300
C0300
C0300
C0300
80200
ENDCHAR
STARTCHAR 20375
ENCODING 20375
SWIDTH 1000 1000
DWIDTH 24 0
BBX 24 24 0 0
BITMAP
80000
E800C
CFFFE
CC00C
CC00C
18C04C
18DFEC
1CC00C
38C00C
38C8CC
58CFEC
98CCCC
18CCCC
18CCCC
18CCCC
18CCCC
18CFCC
18CC8C
18C80C
18C00C
18C00C
18C0FC
18C038
108010
ENDCHAR
STARTCHAR 20379
ENCODING 20379
SWIDTH 1000 1000
DWIDTH 24 0
BBX 24 24 0 0
BITMAP
41080
71CE0
618C0
618C0
C18C0
C18C8
19FFFC
1E18C0
1C18C0
2C18C0
2C18C0
4C18C0
C18C0
C18CC
DFFFE
C0000
C0880
C0E40
C1830
C3018
C601C
CC00C
D8004
A0000
ENDCHAR
STARTCHAR 20381
ENCODING 20381
SWIDTH 1000 1000
DWIDTH 24 0
BBX 24 24 0 0
BITMAP
40000
70C00
60600
60300
C020C
DFFFE
E0600
C0E00
1C0A00
1C1A10
2C121C
2C2130
4C7960
C7180
CB080
D30C0
E3040
C3060
C3130
C3238
C341E
C3808
C7000
82000
ENDCHAR
STARTCHAR 20384
ENCODING 20384
SWIDTH 1000 1000
DWIDTH 24 0
BBX 24 24 0 0
BITMAP
20400
38700
30600
60600
60618
DFFFC
C0600
1C8610
1E4638
3C6660
2C3640
4C2680
C070C
DFFFE
C0D00
C0D00
C0D80
C1880
C18C0
C3060
C6038
CC01E
D8008
A0000
ENDCHAR
STARTCHAR 20387
ENCODING 20387
SWIDTH 1000 1000
DWIDTH 24 0
BBX 24 24 0 0
BITMAP
40000
70000
62030
63FF8
C3030
C3030
C3030
1E3030
1C3030
1C3FF0
2C3020
2C2000
4C4018
C7FFC
C6018
C6018
C6018
C6018
C6018
C6018
C7FF8
C6018
C4010
80000
ENDCHAR
STARTCHAR 20389
ENCODING 20389
SWIDTH 1000 1000
DWIDTH 24 0
BBX 24 24 0 0
BITMAP
21000
39C00
31800
60C0C
60FFE
DFC00
C0640
1E06E4
2C0384
2C0784
4C0CFC
C707E
D8000
C0018
DFFFC
C1980
C1980
C1984
C3184
C3184
C6186
CC1FE
D80FC
A0000
ENDCHAR
STARTCHAR 20390
ENCODING 20390
SWIDTH 1000 1000
DWIDTH 24 0
BBX 24 24 0 0
BITMAP
20400
38700
30608
3061C
607FE
60600
C0600
C4618
1E7FFC
1C6018
2C6218
2C6398
4C6318
C6318
C6318
C6318
C6318
C6610
C46C0
C0C30
C1C18
C300C
CE006
B0004
ENDCHAR
STARTCHAR 20391
ENCODING 20391
SWIDTH 1000 1000
DWIDTH 24 0
BBX 24 24 0 0
BITMAP
80008
E000E
C000C
D060C
DFF4C
19066C
19264C
19364C
3D264C
39264C
59264C
19264C
19264C
19264C
19264C
19264C
19264C
19244C
18680C
18C40C
18860C
19037C
1A0118
100010
ENDCHAR
STARTCHAR 20392
ENCODING 20392
SWIDTH 1000 1000
DWIDTH 24 0
BBX 24 24 0 0
BITMAP
40020
70070
607F8
6FF80
C0600
C0600
C0C0C
1DFFFE
1C1880
3C18C0
2C3060
4C6030
CD05E
D9C68
E1860
C1860
C1860
C1860
C1860
C3060
C3060
C6060
98060
0040
ENDCHAR
STARTCHAR 20393
ENCODING 20393
SWIDTH 1000 1000
DWIDTH 24 0
BBX 24 24 0 0
BITMAP
20400
30700
30F00
60C80
608C0
41840
C3060
C6038
1CC01E
1D00C8
2E7FE0
2C0000
4C0000
C000C
DFFFE
C0400
C0E00
C0C80
C1840
C2020
C4030
CFFF8
C6010
80000
ENDCHAR
STARTCHAR 20394
ENCODING 20394
SWIDTH 1000 1000
DWIDTH 24 0
BBX 24 24 0 0
BITMAP
40600
70300
60300
6020C
6FFFE
C2060
C1060
E18C0
1C0F80
3C0780
2C0DE0
4C387E
CC018
F1040
C1C70
C1860
C1860
C1860
C1060
C3060
C3060
C6060
C8060
90040
ENDCHAR
STARTCHAR 20396
ENCODING 20396
SWIDTH 1000 1000
DWIDTH 24 0
BBX 24 24 0 0
BITMAP
40200
70380
60300
60300
C460C
C7FFE
C470C
CCD18
188D10
1E1900
3C1908
2C309C
4C30B0
C7CC0
C58C0
C9840
D1860
C1860
C1830
C19B0
C1E18
C1C0E
C3808
81000
ENDCHAR
STARTCHAR 20398
ENCODING 20398
SWIDTH 1000 1000
DWIDTH 24 0
BBX 24 24 0 0
BITMAP
20800
38E00
71C00
6180C
63FFE
C3000
C6030
1CFFF8
1DB230
3E3130
2C31B0
4C3134
FFFFE
C6430
C6230
C6330
C6330
C6234
CFFFE
C4030
C0060
C0FE0
C0380
80100
ENDCHAR
STARTCHAR 20399
ENCODING 20399
SWIDTH 1000 1000
DWIDTH 24 0
BBX 24 24 0 0
BITMAP
20000
38060
33FF0
60060
60060
C006C
DFFFE
1C2000
1C3800
2C3030
2C7FF8
4C6300
8C4300
C8300
C030C
DFFFE
C0680
C0680
C0C40
C1860
C3030
CC01E
D0008
80000
ENDCHAR
STARTCHAR 20405
ENCODING 20405
SWIDTH 1000 1000
DWIDTH 24 0
BBX 24 24 0 0
BITMAP
20000
38030
73FF8
60030
C0030
C3FF0
C0030
1C0030
1C3FF0
3C0020
2C8004
4CFFFE
D800C
F0068
C7FF0
C1060
C10C0
C08C0
C0580
C0300
C07C0
C1CFE
C6038
98008
ENDCHAR
STARTCHAR 20415
ENCODING 20415
SWIDTH 1000 1000
DWIDTH 24 0
BBX 24 24 0 0
BITMAP
40000
7000C
6FFFE
60300
C0300
C4318
C7FFC
1E6318
1C6318
2C7FF8
2C6318
4C6318
C6318
C7FF8
C4310
C2300
C1300
C1300
C0E00
C0700
C0DE0
C187E
C6018
98000
ENDCHAR
STARTCHAR 20419
ENCODING 20419
SWIDTH 1000 1000
DWIDTH 24 0
BBX 24 24 0 0
BITMAP
40000
60000
72030
63FF8
63030
C3030
C3030
C3030
1C3030
3C3FF0
2C3330
4C0300
8C4300
C7318
C63FC
C6300
C6300
C6300
CD300
CCB00
CC700
D83FE
D01F8
A0000
ENDCHAR
STARTCHAR 20420
ENCODING 20420
SWIDTH 1000 1000
DWIDTH 24 0
BBX 24 24 0 0
BITMAP
40100
701C0
60990
63D98
DF18C
C3188
C3180
E318C
1DFFFE
1C3180
2C3190
2C319C
4C3598
C79B0
FF1A0
D31C0
C3080
C31C4
C3364
C3424
C3834
DF01C
C600E
84006
ENDCHAR
STARTCHAR 20421
ENCODING 20421
SWIDTH 1000 1000
DWIDTH 24 0
BBX 24 24 0 0
BITMAP
20200
38380
30300
30360
60330
60320
6030C
CFFFE
1E0300
1CC310
3C631C
2C3330
4C1BA0
C1340
C0740
C1B60
C6320
DC338
C831E
C0308
C0300
C7F00
C0E00
80400
ENDCHAR
STARTCHAR 20426
ENCODING 20426
SWIDTH 1000 1000
DWIDTH 24 0
BBX 24 24 0 0
BITMAP
20400
38700
30C40
61830
62018
6FFFC
C7C0C
E1088
1C3860
1C6038
2CC81C
2D0E0C
4C0C30
C1FF8
C3070
C6860
C88C0
C04C0
C0780
C0300
C0DC0
C3070
CC03E
80010
ENDCHAR
STARTCHAR 20430
ENCODING 20430
SWIDTH 1000 1000
DWIDTH 24 0
BBX 24 24 0 0
BITMAP
0000
41030
71FF8
61830
C1830
C1830
1B1830
199830
10DFF0
209830
441830
71830
61830
61830
C1FF0
E1830
191830
199830
10D830
209830
401834
1FFFE
0000
0000
ENDCHAR
STARTCHAR 20431
ENCODING 20431
SWIDTH 1000 1000
DWIDTH 24 0
BBX 24 24 0 0
BITMAP
40200
70380
64310
6231C
C3330
C1B20
C1340
184318
1E7FFC
3C6018
2C6018
4C6018
C7FF8
C6018
C6018
C6018
C7FF8
C6018
C6018
C6018
C6018
C61F8
C4070
80020
ENDCHAR
STARTCHAR 20432
ENCODING 20432
SWIDTH 1000 1000
DWIDTH 24 0
BBX 24 24 0 0
BITMAP
40008
7060E
61F0C
6F80C
C188C
C18EC
C18CC
1818CC
19FFCC
3E38CC
2C38CC
4C38CC
C7CCC
C5ACC
CDACC
C98CC
D188C
D180C
E180C
C180C
C180C
C18FC
C1838
81010
ENDCHAR
STARTCHAR 20433
ENCODING 20433
SWIDTH 1000 1000
DWIDTH 24 0
BBX 24 24 0 0
BITMAP
40000
70018
6FFFC
60030
63060
C0C80
C0780
E4118
1C7FFC
1C6318
3C6318
2C6318
4C7FF8
C6318
C6318
C6318
C7FF8
C6318
C6318
C6318
C6318
C6378
C4238
80010
ENDCHAR
STARTCHAR 20439
ENCODING 20439
SWIDTH 1000 1000
DWIDTH 24 0
BBX 24 24 0 0
BITMAP
41000
71C80
61860
63038
C301C
C620C
CC384
E8700
D0680
1C0CC0
1C1860
2C3038
2C601F
4DA024
C3FF8
C3030
C3030
C3030
C3030
C3030
C3030
C3FF0
C3030
82020
ENDCHAR
STARTCHAR 20440
ENCODING 20440
SWIDTH 1000 1000
DWIDTH 24 0
BBX 24 24 0 0
BITMAP
10000
1C070
383F8
37C00
60410
6661C
E2330
E3320
161240
160098
267FFC
260018
460260
60380
6030C
6FFFE
60300
60300
60300
60300
60300
63F00
60E00
40400
ENDCHAR
STARTCHAR 20442
ENCODING 20442
SWIDTH 1000 1000
DWIDTH 24 0
BBX 24 24 0 0
BITMAP
40000
74018
67FFC
66318
C6318
C6318
C6318
187FF8
1E6318
3C6318
2C6318
4C6318
C7FF8
C6310
C4300
C0318
CFFFC
C0300
C0300
C0300
C030C
DFFFE
C0000
80000
ENDCHAR
STARTCHAR 20444
ENCODING 20444
SWIDTH 1000 1000
DWIDTH 24 0
BBX 24 24 0 0
BITMAP
40200
70380
60300
64318
E7FFC
C6318
C6318
1C7FF8
1E6318
3C6318
2C7FF8
4C4000
C000C
DFFFE
C1800
C3030
C7FF8
C2030
C0030
C0030
C0070
C0FE0
C00C0
80080
ENDCHAR
STARTCHAR 20445
ENCODING 20445
SWIDTH 1000 1000
DWIDTH 24 0
BBX 24 24 0 0
BITMAP
40000
72030
63FF8
63030
63030
C3030
C3030
E3030
1C3FF0
1C3330
2C2320
2C030C
4DFFFE
C0F40
C1B40
C1B20
C3320
C3330
C6318
CC31C
D830E
C0308
C0300
80200
ENDCHAR
STARTCHAR 20446
ENCODING 20446
SWIDTH 1000 1000
DWIDTH 24 0
BBX 24 24 0 0
BITMAP
1000
1C00
3800
6400
C300
181C0
30370
DFFBE
100008
683020
FFA38
C33B0
C3330
C3330
FF330
C3330
C3330
FF330
C3330
C3230
C3030
DF3F0
86060
4040
ENDCHAR
STARTCHAR 20447
ENCODING 20447
SWIDTH 1000 1000
DWIDTH 24 0
BBX 24 24 0 0
BITMAP
40400
70700
60C00
61840
63030
C2018
CFFFC
C500C
1E1C00
1C1830
3C3FF8
2C6300
4C8300
C030C
FFFFE
C0680
C0680
C0C80
C0C40
C1860
C3038
C601E
D8008
80000
ENDCHAR
STARTCHAR 20449
ENCODING 20449
SWIDTH 1000 1000
DWIDTH 24 0
BBX 24 24 0 0
BITMAP
40600
70300
60300
6020C
6FFFE
C0000
C0030
E7FF8
1C0000
1C0000
2C0030
4C7FF8
C0000
C0000
C4030
C7FF8
C6030
C6030
C6030
C6030
C7FF0
C6030
C6030
84020
ENDCHAR
STARTCHAR 20451
ENCODING 20451
SWIDTH 1000 1000
DWIDTH 24 0
BBX 24 24 0 0
BITMAP
40000
72030
63FF8
63030
C3030
C3030
C3030
1C3FF0
1E2020
3C0010
2C7FF8
4C0300
C0300
C030C
DFFFE
C0300
C0380
C0680
C0640
C0C60
C1838
C701E
CC008
90000
ENDCHAR
STARTCHAR 20454
ENCODING 20454
SWIDTH 1000 1000
DWIDTH 24 0
BBX 24 24 0 0
BITMAP
20400
38700
30600
6060C
7FFFE
C0C00
C0C30
CFFF8
1E0C00
1C180C
3DFFFE
2C1840
4C3070
C3064
C7FFE
C6060
CC860
C8C60
D0660
E0460
C0060
C07E0
C01C0
80080
ENDCHAR
STARTCHAR 20456
ENCODING 20456
SWIDTH 1000 1000
DWIDTH 24 0
BBX 24 24 0 0
BITMAP
40000
70018
67FFC
60CC0
C8CC8
C4CCC
C6CD8
1C6CD0
1E2CE0
1C8CCC
2CFFFE
2CC000
4CC000
CC000
CC000
CC000
CC000
CC000
CC000
CC000
D8000
D0000
A0000
40000
ENDCHAR
STARTCHAR 20457
ENCODING 20457
SWIDTH 1000 1000
DWIDTH 24 0
BBX 24 24 0 0
BITMAP
80000
E000C
DFFFE
C18C0
1818C0
1818C0
1118CC
3DFFFE
3998CC
5998CC
9998CC
1998CC
1998CC
1994CC
1996AC
19A5BC
19A12C
19C20C
19840C
19800C
19800C
1980FC
198038
110010
ENDCHAR
STARTCHAR 20458
ENCODING 20458
SWIDTH 1000 1000
DWIDTH 24 0
BBX 24 24 0 0
BITMAP
80000
E0000
C000C
DFFFE
C0000
180000
191918
19FDFC
3D9998
799998
599998
99D9D8
19D9D8
19B9B8
19B9B8
199998
199998
199998
199998
199998
199998
19B9B8
191110
100000
ENDCHAR
STARTCHAR 20461
ENCODING 20461
SWIDTH 1000 1000
DWIDTH 24 0
BBX 24 24 0 0
BITMAP
20400
38700
30E00
60D00
61880
C1840
C3060
86038
1CC05E
1D3FE8
2E0000
2C0400
4C4410
C421C
C2318
C3330
C3320
C3320
C2240
C0048
C009C
DFFFE
C0000
80000
ENDCHAR
STARTCHAR 20462
ENCODING 20462
SWIDTH 1000 1000
DWIDTH 24 0
BBX 24 24 0 0
BITMAP
40200
70380
60300
60618
C87FC
CEC30
CCC30
1CD260
1CE1C0
1CC1F0
3CC63C
2CCC4F
6CF0C4
4CC180
CC720
CD870
CC0E0
CC1C8
CC71C
CB838
C0070
C00C0
C0700
83800
ENDCHAR
STARTCHAR 20463
ENCODING 20463
SWIDTH 1000 1000
DWIDTH 24 0
BBX 24 24 0 0
BITMAP
40600
70300
60300
6820C
6FFFE
CC410
CC71C
EC618
1CCC18
1CCC1A
2CDFFE
2CEC18
4CCC18
CCD18
CCD98
CCCD8
CCC98
CCC18
CCC18
C8C18
D8C18
D0DF8
E0C70
80820
ENDCHAR
STARTCHAR 20465
ENCODING 20465
SWIDTH 1000 1000
DWIDTH 24 0
BBX 24 24 0 0
BITMAP
20000
3A030
33FF8
63030
63030
43FF0
C3030
F3030
1E3FF0
363030
263030
463FF0
63030
63030
63034
7FFFE
60000
61000
61CC0
63070
6601C
6C00C
50004
0000
ENDCHAR
STARTCHAR 20467
ENCODING 20467
SWIDTH 1000 1000
DWIDTH 24 0
BBX 24 24 0 0
BITMAP
41080
71CE0
618C0
618C0
C18C4
DF8FE
1818C0
1818C0
3E18C0
3C18C8
6CF8FC
4C18C0
8C18C0
C18C0
C18C4
DF8FE
C18C0
C18C0
C18C0
C18C0
C18C0
C18C0
C10C0
80080
ENDCHAR
STARTCHAR 20472
ENCODING 20472
SWIDTH 1000 1000
DWIDTH 24 0
BBX 24 24 0 0
BITMAP
40400
70700
60630
6FFF8
60600
C0C60
CFFF0
E0C00
1C180C
1DFFFE
3C3080
2C34C0
4C6760
C4638
D865E
E7FE8
C0600
C0630
DFFF8
C0600
C0600
C0600
C0600
80400
ENDCHAR
STARTCHAR 20474
ENCODING 20474
SWIDTH 1000 1000
DWIDTH 24 0
BBX 24 24 0 0
BITMAP
40400
70700
60610
60C38
6FFFC
C1900
C3080
C6440
C8760
1D4638
2E7FFE
2C6668
4C6660
C7FE0
C6660
C6660
C7FE0
C4644
C0604
C0604
C0606
C07FE
C03FC
80000
ENDCHAR
STARTCHAR 20478
ENCODING 20478
SWIDTH 1000 1000
DWIDTH 24 0
BBX 24 24 0 0
BITMAP
40400
70600
60C00
64818
C7FFC
C6318
C6318
C6318
187FF8
1E6318
3C6318
2C6618
4C7FF8
C6618
C0D00
C31C0
CC18C
DFFFE
C0180
C0180
C0180
C0180
C0180
80100
ENDCHAR
STARTCHAR 20492
ENCODING 20492
SWIDTH 1000 1000
DWIDTH 24 0
BBX 24 24 0 0
BITMAP
40C00
70600
60300
6820C
CFFFE
C800C
D8010
192020
1C3FF8
3C3030
2C3030
4C3030
C3FF0
C3000
C3018
C3FFC
C3018
C3018
C3018
C3018
C3FF8
C3018
C3010
82000
ENDCHAR
STARTCHAR 20493
ENCODING 20493
SWIDTH 1000 1000
DWIDTH 24 0
BBX 24 24 0 0
BITMAP
40C00
70700
60300
60218
CFFFC
C0040
C3070
C1860
1C0CC0
1C0C80
2C088C
2DFFFE
4C0000
C2030
C3FF8
C3030
C3030
C3030
C3030
C3030
C3FF0
C3030
C3030
82020
ENDCHAR
STARTCHAR 20495
ENCODING 20495
SWIDTH 1000 1000
DWIDTH 24 0
BBX 24 24 0 0
BITMAP
40400
70700
60C18
60FFC
C9830
CD460
CA2C0
1EC180
1C83C0
3C8678
2C981F
4CA208
8C83A0
C8330
C8314
CFFFE
C8300
C8700
C06E0
C0C30
C1818
C600C
D8004
80000
ENDCHAR
STARTCHAR 20498
ENCODING 20498
SWIDTH 1000 1000
DWIDTH 24 0
BBX 24 24 0 0
BITMAP
40008
7000E
6060C
EFF0C
C200C
C308C
1860EC
1848CC
1C84CC
2DFECC
2CB4CC
4C30CC
4C30CC
C34CC
CFECC
C30CC
C308C
C300C
C3F0C
DF80C
CC00C
C007C
C0018
80010
ENDCHAR
STARTCHAR 20500
ENCODING 20500
SWIDTH 1000 1000
DWIDTH 24 0
BBX 24 24 0 0
BITMAP
40000
78018
6FFFC
6C018
CC018
CC018
CFFF8
EC110
1CC1C0
1CD190
2CDD9C
2CD998
4CD998
CFFF8
CD190
CC180
DA188
DB98E
DB18C
D318C
D318C
E7FFC
C200C
80008
ENDCHAR
STARTCHAR 20504
ENCODING 20504
SWIDTH 1000 1000
DWIDTH 24 0
BBX 24 24 0 0
BITMAP
40200
70380
60308
6630E
C3318
C1B30
C1B20
18834C
1EFFFE
3CC00C
2CC00C
4CC8CC
4CCFEC
CCCCC
CCCCC
CCCCC
CCCCC
CCFCC
CC88C
CC00C
CC00C
CC0FC
C8038
80010
ENDCHAR
STARTCHAR 20505
ENCODING 20505
SWIDTH 1000 1000
DWIDTH 24 0
BBX 24 24 0 0
BITMAP
40000
70060
61FF0
60060
C0060
C006C
C3FFE
188800
1C8C00
2C9830
2C9FF8
4C9300
8CA300
C830C
CFFFE
C8380
C8680
C8640
C0C60
C0C30
C1838
C601E
D8008
80000
ENDCHAR
STARTCHAR 20506
ENCODING 20506
SWIDTH 1000 1000
DWIDTH 24 0
BBX 24 24 0 0
BITMAP
40400
70700
60600
60618
CFFFC
C0C00
1E0D80
1C18E0
3C3060
2CC02C
4FFFFE
C0030
C4330
C7FB0
C6330
C6330
C6330
C7F30
C6330
C6030
C0030
C03F0
C00E0
80040
ENDCHAR
STARTCHAR 20508
ENCODING 20508
SWIDTH 1000 1000
DWIDTH 24 0
BBX 24 24 0 0
BITMAP
80000
E800C
CFFFE
CC20C
CC30C
CC34C
18DFEC
18C30C
18C30C
3CC32C
38FFFC
78C00C
58C8CC
98CFEC
18CCCC
18CCCC
18CCCC
188FCC
198C8C
19880C
1900FC
1B0038
1A0010
140000
ENDCHAR
STARTCHAR 20511
ENCODING 20511
SWIDTH 1000 1000
DWIDTH 24 0
BBX 24 24 0 0
BITMAP
41040
71C70
61860
61860
C1868
CFFFC
C1860
1C1860
1E1864
2DFFFE
4C0000
C4018
C7FFC
C6018
C6018
C6018
C7FF8
C6018
C6018
C6018
C7FF8
C6018
C6018
84010
ENDCHAR
STARTCHAR 20513
ENCODING 20513
SWIDTH 1000 1000
DWIDTH 24 0
BBX 24 24 0 0
BITMAP
20000
3A030
73FF8
63030
63030
C3030
C3FF0
183030
1E3030
2C3030
2C3FF0
4C2020
C800C
CFFFE
CC00C
CC00C
CC00C
CFFFC
CC00C
CC00C
CC00C
CFFFC
CC00C
88008
ENDCHAR
STARTCHAR 20517
ENCODING 20517
SWIDTH 1000 1000
DWIDTH 24 0
BBX 24 24 0 0
BITMAP
40C00
70600
60300
6420C
67FFE
C400C
CC810
D9C80
181870
1E3018
3C600C
6C8004
4D0060
8C3FF0
C0300
C0300
C0300
C0300
C0300
C0308
C031C
DFFFE
C0000
80000
ENDCHAR
STARTCHAR 20518
ENCODING 20518
SWIDTH 1000 1000
DWIDTH 24 0
BBX 24 24 0 0
BITMAP
40400
70720
64638
62630
C3660
C1648
18FFFC
180C00
1E0C00
2C180C
2DFFFE
4C3040
C3060
C7FF8
CF0DE
D30C8
E30C0
C37C8
C3188
C3108
C300C
C3FFC
C1FF8
80000
ENDCHAR
STARTCHAR 20520
ENCODING 20520
SWIDTH 1000 1000
DWIDTH 24 0
BBX 24 24 0 0
BITMAP
40000
74018
67FFC
66018
66018
C6018
C7FF8
C6110
1861C0
1E6180
3C618C
2C7FFE
4C6180
C6180
C7198
CDFFC
CD818
CD818
C9818
D9818
D1FF8
E1818
C1810
81000
ENDCHAR
STARTCHAR 20521
ENCODING 20521
SWIDTH 1000 1000
DWIDTH 24 0
BBX 24 24 0 0
BITMAP
20400
38700
30618
6FFFC
60600
C0630
CFFF8
1E0600
1C060C
3FFFFE
2C0000
4C4030
C7FF8
C6030
C6030
C7FF0
C6030
C6030
C7FF0
C6030
C6030
C61F0
C6060
84040
ENDCHAR
STARTCHAR 20522
ENCODING 20522
SWIDTH 1000 1000
DWIDTH 24 0
BBX 24 24 0 0
BITMAP
40000
70200
60700
65818
C60FC
C6018
186018
186618
1E7EF8
2C6018
2C6018
4C6018
C7FF8
C4CD0
C0CC0
C0CC0
C0CC0
C18C4
C18C4
C30C4
C60C6
CC0FE
D007C
80000
ENDCHAR
STARTCHAR 20524
ENCODING 20524
SWIDTH 1000 1000
DWIDTH 24 0
BBX 24 24 0 0
BITMAP
40200
70380
60318
603FC
60300
C4318
C7FFC
C6018
1C6018
1E7FF8
3C6018
2C6018
4C6018
C7FF8
C6318
C4300
C030C
FFFFE
C0300
C0300
C0300
C0300
C0300
80200
ENDCHAR
STARTCHAR 20525
ENCODING 20525
SWIDTH 1000 1000
DWIDTH 24 0
BBX 24 24 0 0
BITMAP
40020
700F0
607F8
67F00
C0300
C0318
DFFFC
1C1B40
1C1B60
3C3330
2C631E
4CC308
D0400
C0700
C0C0C
DFFFE
C30E0
C60C0
C7980
C0FC0
C0EF0
C3838
CE018
80000
ENDCHAR
STARTCHAR 20526
ENCODING 20526
SWIDTH 1000 1000
DWIDTH 24 0
BBX 24 24 0 0
BITMAP
40000
74018
67FFC
66318
C6318
C6318
C7FF8
1C6318
1E6318
1C6318
3C7FF8
2C4300
4C030C
8DFFFE
C0F40
C0F40
C1B20
C1B30
C3310
C631C
CC30F
D0308
C0300
80200
ENDCHAR
STARTCHAR 20538
ENCODING 20538
SWIDTH 1000 1000
DWIDTH 24 0
BBX 24 24 0 0
BITMAP
40400
70700
60618
6FFFC
60600
C0630
CFFF8
C0600
1C060C
1DFFFE
2C0000
2C4030
4C7FF8
C6030
C6430
C6730
C6630
C6630
C6620
C46C0
C0C30
C1818
C600C
98004
ENDCHAR
STARTCHAR 20540
ENCODING 20540
SWIDTH 1000 1000
DWIDTH 24 0
BBX 24 24 0 0
BITMAP
40400
70700
60600
60618
DFFFC
C0600
C0600
1E4630
1C7FF8
1C6030
2C6030
2C7FF0
4C6030
C6030
C7FF0
C6030
C6030
C7FF0
C6030
C6030
C6034
FFFFE
C0000
80000
ENDCHAR
STARTCHAR 20542
ENCODING 20542
SWIDTH 1000 1000
DWIDTH 24 0
BBX 24 24 0 0
BITMAP
80000
E0000
C000C
D1FFE
DC0C0
198080
19888C
318FFE
3DAC0C
79FC8C
598CEC
998CCC
198CCC
198CCC
198CCC
199CCC
19ACCC
19CD88
1B89A0
190318
18060C
180C0C
183006
10C004
ENDCHAR
STARTCHAR 20547
ENCODING 20547
SWIDTH 1000 1000
DWIDTH 24 0
BBX 24 24 0 0
BITMAP
80000
E800C
CFFFE
CC000
CCFF8
18CC18
18CC18
18CFF8
1CCC18
38CC18
78CFF8
58C180
98C184
18FFFE
18C330
18C660
18C7C0
18C0E0
18C338
18DC10
18C004
19FFFE
188000
100000
ENDCHAR
STARTCHAR 20551
ENCODING 20551
SWIDTH 1000 1000
DWIDTH 24 0
BBX 24 24 0 0
BITMAP
80000
E8618
CFEFC
CC618
CC618
CC618
18C618
18FEF8
1EC610
2CC000
2CC818
4CFDFC
CC118
CC118
CC4B0
CFEB0
CC0F0
CC060
CC0E0
CC1B0
CC318
CCC1E
CB008
80000
ENDCHAR
STARTCHAR 20552
ENCODING 20552
SWIDTH 1000 1000
DWIDTH 24 0
BBX 24 24 0 0
BITMAP
40000
72030
63FF8
63030
63030
C3FF0
C3030
C3030
183FF0
1E2820
3C0C00
2C180C
4C3FFE
C620C
CC30C
D670C
E64CC
C688C
C600C
CFFCC
C401C
C00F8
C0030
80020
ENDCHAR
STARTCHAR 20556
ENCODING 20556
SWIDTH 1000 1000
DWIDTH 24 0
BBX 24 24 0 0
BITMAP
42040
73870
63060
6306C
DFFFE
C3060
C3460
E2740
1C0600
1C060C
3DFFFE
2C0C00
4C1800
C3030
C7FF8
C7030
CB030
D3030
E3030
C3030
C3FF0
C3030
C3030
82020
ENDCHAR
STARTCHAR 20558
ENCODING 20558
SWIDTH 1000 1000
DWIDTH 24 0
BBX 24 24 0 0
BITMAP
40000
74018
67FFC
66318
66318
C6318
C7FF8
E6318
1C6318
1C6318
2C7FF8
4C4010
C000C
DFFFE
C6400
C6230
C6238
C61C0
C6180
C60C0
C6470
C783E
CF018
84000
ENDCHAR
STARTCHAR 20559
ENCODING 20559
SWIDTH 1000 1000
DWIDTH 24 0
BBX 24 24 0 0
BITMAP
20400
38300
70380
6410C
67FFE
C600C
C600C
1C600C
1E7FFC
2C6000
2C600C
4C7FFE
C724C
CD24C
CD24C
CDFFC
C924C
DB24C
D324C
D324C
E320C
C307C
C3018
80010
ENDCHAR
STARTCHAR 20565
ENCODING 20565
SWIDTH 1000 1000
DWIDTH 24 0
BBX 24 24 0 0
BITMAP
440A0
770E0
660C4
660CE
C66D8
C7EE0
C60C4
1C60C4
1E62C6
3C6CFE
2CF27C
4C4300
8C2430
C3FF8
C3030
C3030
C3030
C3FF0
C3030
C3030
C3030
C3FF0
C3030
82020
ENDCHAR
STARTCHAR 20570
ENCODING 20570
SWIDTH 1000 1000
DWIDTH 24 0
BBX 24 24 0 0
BITMAP
42080
738E0
630C0
630C0
630C0
43580
DFF8C
C31FE
1C3198
1E3318
2C3318
2C3518
4CFD10
CCCB0
CCCB0
CCC70
CCC60
CCC60
CFCF0
CCC98
CC10C
C020F
C0C04
81000
ENDCHAR
STARTCHAR 20572
ENCODING 20572
SWIDTH 1000 1000
DWIDTH 24 0
BBX 24 24 0 0
BITMAP
40400
70600
60300
C020C
CFFFE
180000
180000
383FF0
2E3030
4C3030
8C3FF0
C8000
C800C
CFFFE
D800C
D8068
D3FF0
C0300
C0300
C0300
C0300
C0300
C1F00
80600
ENDCHAR
STARTCHAR 20581
ENCODING 20581
SWIDTH 1000 1000
DWIDTH 24 0
BBX 24 24 0 0
BITMAP
80100
E01C0
C0190
C4FF8
1BE190
18C194
18DFFE
198190
3D8190
39AFF0
5BF190
996188
186FFC
1A6180
1A6188
197FFC
196180
18C180
18C180
196100
193FFE
1A1FF8
1C0000
100000
ENDCHAR
STARTCHAR 20588
ENCODING 20588
SWIDTH 1000 1000
DWIDTH 24 0
BBX 24 24 0 0
BITMAP
41000
71C00
61800
63018
C3FFC
C6CD8
C4CD8
1CB8D8
1C8D98
3D1B98
2C13D8
4C6258
C8438
C09F0
C2060
C3A00
CB310
CB30C
CB126
DB026
D3032
D3FF0
C1FE0
80000
ENDCHAR
STARTCHAR 20598
ENCODING 20598
SWIDTH 1000 1000
DWIDTH 24 0
BBX 24 24 0 0
BITMAP
40000
74018
67FFC
66318
C6318
C6318
C7FF8
186318
1E6318
2C6318
2C7FF8
4C0300
C830C
CFFFE
CC30C
CC30C
CC34C
CC32C
CDFEC
CCC2C
CC00C
CC0FC
C8038
80010
ENDCHAR
STARTCHAR 20599
ENCODING 20599
SWIDTH 1000 1000
DWIDTH 24 0
BBX 24 24 0 0
BITMAP
20400
38700
30E00
60D00
61880
C3060
C6170
1EDFBE
3D8008
2E0010
4CFC1C
CC498
CC4D8
CFC98
CC498
CC498
CC498
CFC98
CC498
CC498
CC418
CDCF8
C8830
80020
ENDCHAR
STARTCHAR 20603
ENCODING 20603
SWIDTH 1000 1000
DWIDTH 24 0
BBX 24 24 0 0
BITMAP
40200
74390
6331C
61B30
61320
C0348
CFFFC
C0780
1E0F40
1C1B60
3C3330
2CC21E
4D0708
C0604
DFFFE
C0C60
C1860
C30C0
C0F80
C03C0
C0678
C1C1C
C600C
98000
ENDCHAR
STARTCHAR 20606
ENCODING 20606
SWIDTH 1000 1000
DWIDTH 24 0
BBX 24 24 0 0
BITMAP
40400
70700
60618
6FFFC
C0600
C6660
C6660
C646C
1FFFFE
1C6060
3C6060
2C8030
4CFFF8
CC430
CC730
CC630
CC630
CC630
CCC20
C8CC0
C1838
C601C
D800C
A0004
ENDCHAR
STARTCHAR 20607
ENCODING 20607
SWIDTH 1000 1000
DWIDTH 24 0
BBX 24 24 0 0
BITMAP
40400
70710
64638
C6630
C3660
C3640
18A68C
1EFFFE
3D800C
2D8010
4D0020
8C7FF0
C0000
C0008
C001C
DFFFE
C0E00
C1840
C1020
C2030
DFFF8
CFC1C
C000C
80004
ENDCHAR
STARTCHAR 20608
ENCODING 20608
SWIDTH 1000 1000
DWIDTH 24 0
BBX 24 24 0 0
BITMAP
40400
70E00
60C00
69018
CFFFC
CC318
18C318
18C318
1EFFF8
2CC318
2CC618
4CC618
CFFF8
C8600
C0E60
C0F40
C1B50
C1BF4
C3354
C6304
C4306
D83FE
A01FC
0000
ENDCHAR
STARTCHAR 20613
ENCODING 20613
SWIDTH 1000 1000
DWIDTH 24 0
BBX 24 24 0 0
BITMAP
40400
70760
60630
60606
CFFFE
C0600
188618
18FFFC
1EC618
2CC618
2CFFF8
4CC618
CC618
CFFF8
CC618
C8450
C006C
DFFFE
C0060
C1860
C0C60
C0060
C03E0
800C0
ENDCHAR
ENDFONT
